<?xml version="1.0" encoding="utf-8"?>
<!-- Generator: Adobe Illustrator 25.0.1, SVG Export Plug-In . SVG Version: 6.00 Build 0)  -->
<svg version="1.1" id="Layer_1" xmlns="http://www.w3.org/2000/svg" xmlns:xlink="http://www.w3.org/1999/xlink" x="0px" y="0px"
	 viewBox="0 0 141.73 141.73" style="enable-background:new 0 0 141.73 141.73;" xml:space="preserve">
<style type="text/css">
	.st0{fill:url(#SVGID_1_);}
	.st1{fill:url(#SVGID_2_);}
	.st2{fill:#FFFFFF;}
</style>
<g>
	<g>
		<linearGradient id="SVGID_1_" gradientUnits="userSpaceOnUse" x1="70.8062" y1="78.538" x2="70.8062" y2="13.7763">
			<stop  offset="0" style="stop-color:#004D7A"/>
			<stop  offset="1" style="stop-color:#2A719B"/>
		</linearGradient>
		<path class="st0" d="M127.44,78.54c0.33-2.49,0.52-5.03,0.52-7.61c0-31.56-25.59-57.15-57.15-57.15S13.66,39.36,13.66,70.93
			c0,2.39,0.16,4.73,0.45,7.04c15.22-8.24,34.8-13.2,56.15-13.2C92.09,64.77,112.07,69.96,127.44,78.54z"/>
		<linearGradient id="SVGID_2_" gradientUnits="userSpaceOnUse" x1="70.7702" y1="128.0758" x2="70.7702" y2="64.771">
			<stop  offset="0" style="stop-color:#01679A"/>
			<stop  offset="0.1628" style="stop-color:#056597"/>
			<stop  offset="0.3162" style="stop-color:#10618E"/>
			<stop  offset="0.4658" style="stop-color:#185A80"/>
			<stop  offset="0.6131" style="stop-color:#1C506D"/>
			<stop  offset="0.7588" style="stop-color:#1C4256"/>
			<stop  offset="0.9013" style="stop-color:#16323C"/>
			<stop  offset="1" style="stop-color:#0D2428"/>
		</linearGradient>
		<path class="st1" d="M70.81,128.08c28.98,0,52.91-21.58,56.63-49.54c-15.37-8.58-35.34-13.77-57.18-13.77
			c-21.35,0-40.93,4.96-56.15,13.2C17.58,106.21,41.63,128.08,70.81,128.08z"/>
	</g>
	<path class="st2" d="M90.82,37.41H49.69c-7.14,0-12.95,5.81-12.95,12.95v13.69v27.44c0,7.14,5.81,12.95,12.95,12.95h41.13
		c7.14,0,12.96-5.81,12.96-12.95V64.05V50.36C103.78,43.22,97.96,37.41,90.82,37.41z M94.54,45.13l1.48-0.01v1.48v9.88l-11.32,0.04
		l-0.04-11.36L94.54,45.13z M60.69,64.05c2.15-2.97,5.63-4.92,9.57-4.92s7.42,1.95,9.57,4.92c1.4,1.94,2.23,4.31,2.23,6.88
		c0,6.5-5.3,11.8-11.8,11.8c-6.51,0-11.8-5.29-11.8-11.8C58.45,68.36,59.29,65.99,60.69,64.05z M97.25,91.49
		c0,3.54-2.88,6.42-6.43,6.42H49.69c-3.54,0-6.42-2.88-6.42-6.42V64.05h10.01c-0.86,2.13-1.35,4.45-1.35,6.88
		c0,10.11,8.22,18.33,18.33,18.33c10.11,0,18.33-8.22,18.33-18.33c0-2.43-0.49-4.75-1.35-6.88h10.01V91.49z"/>
</g>
</svg>
