<?xml version="1.0" encoding="utf-8"?>
<!-- Generator: Adobe Illustrator 25.0.1, SVG Export Plug-In . SVG Version: 6.00 Build 0)  -->
<svg version="1.1" id="Layer_1" xmlns="http://www.w3.org/2000/svg" xmlns:xlink="http://www.w3.org/1999/xlink" x="0px" y="0px"
	 viewBox="0 0 141.73 141.73" style="enable-background:new 0 0 141.73 141.73;" xml:space="preserve">
<style type="text/css">
	.st0{fill:url(#SVGID_1_);}
	.st1{fill:url(#SVGID_2_);}
	.st2{fill:#FFFFFF;}
</style>
<g>
	<g>
		<linearGradient id="SVGID_1_" gradientUnits="userSpaceOnUse" x1="70.8661" y1="76.4323" x2="70.8661" y2="11.4648">
			<stop  offset="0" style="stop-color:#2A719B"/>
			<stop  offset="0.2431" style="stop-color:#2E739D"/>
			<stop  offset="0.4605" style="stop-color:#397AA2"/>
			<stop  offset="0.668" style="stop-color:#4A86AB"/>
			<stop  offset="0.8682" style="stop-color:#5F99B8"/>
			<stop  offset="1" style="stop-color:#71ABC5"/>
		</linearGradient>
		<path class="st0" d="M127.68,76.43c0.33-2.5,0.52-5.05,0.52-7.64c0-31.66-25.67-57.33-57.33-57.33S13.53,37.13,13.53,68.8
			c0,2.39,0.16,4.75,0.45,7.07c15.27-8.27,34.91-13.24,56.33-13.24C92.22,62.62,112.26,67.82,127.68,76.43z"/>
		<linearGradient id="SVGID_2_" gradientUnits="userSpaceOnUse" x1="70.83" y1="126.1277" x2="70.83" y2="62.6216">
			<stop  offset="0" style="stop-color:#2A719B"/>
			<stop  offset="0.2306" style="stop-color:#296E9A"/>
			<stop  offset="0.4478" style="stop-color:#266895"/>
			<stop  offset="0.6595" style="stop-color:#225E8E"/>
			<stop  offset="0.8668" style="stop-color:#1C5084"/>
			<stop  offset="1" style="stop-color:#1B447D"/>
		</linearGradient>
		<path class="st1" d="M70.87,126.13c29.07,0,53.07-21.64,56.81-49.7c-15.42-8.61-35.45-13.81-57.36-13.81
			c-21.42,0-41.06,4.97-56.33,13.24C17.47,104.19,41.6,126.13,70.87,126.13z"/>
	</g>
	<g>
		<rect x="40.34" y="54.13" class="st2" width="15.69" height="44.84"/>
		
			<ellipse transform="matrix(0.2289 -0.9735 0.9735 0.2289 -1.3573 77.4092)" class="st2" cx="48.18" cy="39.56" rx="7.85" ry="7.85"/>
		<path class="st2" d="M107.59,74.33c0-12.1-2.61-20.2-16.71-20.2c-6.78,0-11.33,2.52-13.19,6.05H77.5v-6.05H65v44.84h13.07V76.75
			c0-5.86,1.11-11.53,8.36-11.53c7.14,0,7.72,6.7,7.72,11.91v21.84h13.45L107.59,74.33L107.59,74.33z"/>
	</g>
</g>
</svg>
