<?xml version="1.0" encoding="utf-8"?>
<!-- Generator: Adobe Illustrator 25.0.1, SVG Export Plug-In . SVG Version: 6.00 Build 0)  -->
<svg version="1.1" id="Layer_1" xmlns="http://www.w3.org/2000/svg" xmlns:xlink="http://www.w3.org/1999/xlink" x="0px" y="0px"
	 viewBox="0 0 141.73 141.73" style="enable-background:new 0 0 141.73 141.73;" xml:space="preserve">
<style type="text/css">
	.st0{fill:url(#SVGID_1_);}
	.st1{fill:url(#SVGID_2_);}
	.st2{fill:#FFFFFF;}
</style>
<g>
	<g>
		<linearGradient id="SVGID_1_" gradientUnits="userSpaceOnUse" x1="70.8661" y1="78.9771" x2="70.8661" y2="9.9699">
			<stop  offset="0" style="stop-color:#29B3E8"/>
			<stop  offset="0.2776" style="stop-color:#31B5E9"/>
			<stop  offset="0.5258" style="stop-color:#46BAEB"/>
			<stop  offset="0.7627" style="stop-color:#61C3EF"/>
			<stop  offset="0.9915" style="stop-color:#7FD2F6"/>
			<stop  offset="1" style="stop-color:#80D3F6"/>
		</linearGradient>
		<path class="st0" d="M131.21,78.98c0.35-2.66,0.55-5.36,0.55-8.11c0-33.63-27.26-60.9-60.9-60.9s-60.9,27.26-60.9,60.9
			c0,2.54,0.17,5.04,0.48,7.51c16.22-8.78,37.08-14.07,59.83-14.07C93.55,64.31,114.83,69.83,131.21,78.98z"/>
		<linearGradient id="SVGID_2_" gradientUnits="userSpaceOnUse" x1="70.8277" y1="131.7624" x2="70.8277" y2="64.3075">
			<stop  offset="0" style="stop-color:#29B3E8"/>
			<stop  offset="0.1931" style="stop-color:#27B1E6"/>
			<stop  offset="0.375" style="stop-color:#24A9E1"/>
			<stop  offset="0.5524" style="stop-color:#1E9ED9"/>
			<stop  offset="0.7271" style="stop-color:#198DCD"/>
			<stop  offset="0.8981" style="stop-color:#127ABF"/>
			<stop  offset="1" style="stop-color:#0C6DB6"/>
		</linearGradient>
		<path class="st1" d="M70.87,131.76c30.88,0,56.37-22.99,60.34-52.79c-16.37-9.14-37.66-14.67-60.93-14.67
			c-22.75,0-43.61,5.28-59.83,14.07C14.15,108.46,39.78,131.76,70.87,131.76z"/>
	</g>
	<path class="st2" d="M104.62,43.34c-2.83,1.66-5.97,2.86-9.31,3.51c-2.67-2.81-6.48-4.56-10.7-4.56c-8.09,0-14.65,6.46-14.65,14.43
		c0,1.13,0.13,2.23,0.38,3.29c-12.18-0.6-22.98-6.35-30.21-15.07c-1.26,2.13-1.99,4.61-1.99,7.25c0,5,2.59,9.42,6.52,12.01
		c-2.4-0.08-4.66-0.72-6.64-1.8c0,0.06,0,0.12,0,0.18c0,6.99,5.05,12.82,11.76,14.15c-1.23,0.33-2.52,0.5-3.86,0.5
		c-0.94,0-1.86-0.09-2.76-0.26c1.87,5.73,7.28,9.9,13.69,10.02c-5.02,3.87-11.33,6.18-18.2,6.18c-1.19,0-2.35-0.07-3.5-0.2
		c6.49,4.09,14.2,6.48,22.47,6.48c26.96,0,41.7-21.98,41.7-41.05c0-0.62-0.01-1.25-0.04-1.87c2.86-2.03,5.35-4.57,7.31-7.47
		c-2.63,1.15-5.45,1.92-8.42,2.27C101.2,49.54,103.52,46.72,104.62,43.34z"/>
</g>
</svg>
