<?xml version="1.0" encoding="utf-8"?>
<!-- Generator: Adobe Illustrator 25.0.1, SVG Export Plug-In . SVG Version: 6.00 Build 0)  -->
<svg version="1.1" id="Layer_1" xmlns="http://www.w3.org/2000/svg" xmlns:xlink="http://www.w3.org/1999/xlink" x="0px" y="0px"
	 viewBox="0 0 510.24 841.89" style="enable-background:new 0 0 510.24 841.89;" xml:space="preserve">
<style type="text/css">
	.st0{clip-path:url(#SVGID_2_);fill:none;stroke:#636466;stroke-width:0.25;}
	.st1{fill:#0067B1;}
	.st2{clip-path:url(#SVGID_4_);fill:#FFFFFF;}
	.st3{clip-path:url(#SVGID_4_);fill:#0067B1;}
	.st4{clip-path:url(#SVGID_4_);}
	.st5{fill:#FFFFFF;}
	.st6{clip-path:url(#SVGID_6_);}
	.st7{clip-path:url(#SVGID_16_);fill:#FFFFFF;}
	.st8{clip-path:url(#SVGID_16_);fill:#0067B1;}
	.st9{clip-path:url(#SVGID_16_);fill-rule:evenodd;clip-rule:evenodd;}
	.st10{clip-path:url(#SVGID_18_);fill-rule:evenodd;clip-rule:evenodd;}
	.st11{clip-path:url(#SVGID_20_);fill-rule:evenodd;clip-rule:evenodd;}
	.st12{clip-path:url(#SVGID_22_);fill:none;stroke:#636466;stroke-width:0.25;}
	.st13{fill:#9B9DA0;}
	.st14{fill:none;stroke:#FFFFFF;}
	.st15{fill:#006BB6;}
	.st16{clip-path:url(#SVGID_24_);}
	.st17{clip-path:url(#SVGID_28_);}
	.st18{clip-path:url(#SVGID_32_);fill:#FFFFFF;}
	.st19{clip-path:url(#SVGID_32_);fill:#0067B1;}
	.st20{clip-path:url(#SVGID_34_);fill:#FFFFFF;}
	.st21{clip-path:url(#SVGID_34_);}
	.st22{clip-path:url(#SVGID_34_);fill:#0067B1;}
	.st23{clip-path:url(#SVGID_36_);fill:#FFFFFF;}
	.st24{clip-path:url(#SVGID_36_);}
	.st25{fill:none;stroke:#FFFFFF;stroke-width:0.544;}
	.st26{clip-path:url(#SVGID_40_);fill:#FFFFFF;}
	.st27{clip-path:url(#SVGID_42_);fill:#FFFFFF;}
	.st28{clip-path:url(#SVGID_44_);fill:#FFFFFF;}
	.st29{clip-path:url(#SVGID_44_);fill:#0067B1;}
	.st30{clip-path:url(#SVGID_46_);fill:#FFFFFF;}
	.st31{clip-path:url(#SVGID_46_);fill:#0067B1;}
	.st32{clip-path:url(#SVGID_48_);fill:#FFFFFF;}
	.st33{clip-path:url(#SVGID_48_);fill:#0067B1;}
	.st34{clip-path:url(#SVGID_48_);}
	.st35{clip-path:url(#SVGID_50_);}
	.st36{clip-path:url(#SVGID_56_);fill:#FFFFFF;}
	.st37{clip-path:url(#SVGID_56_);fill:#0067B1;}
</style>
<g>
	<rect x="95.2" y="14.16" class="st5" width="314.58" height="625.39"/>
	<rect x="102.56" y="332.36" class="st1" width="146.44" height="146.44"/>
	<path class="st5" d="M139.69,356.35v57.6c0,30.47,15.08,41.78,35.12,41.78c21.16,0,36.99-12.21,36.99-42.23v-57.16h-12.77v58.03
		c0,21.51-9.43,31.06-23.79,31.06c-13.06,0-22.76-9.3-22.76-31.06v-58.03H139.69z"/>
	<rect x="258.02" y="332.36" class="st1" width="146.43" height="146.44"/>
	<path class="st5" d="M306.45,454.48v-41.77c0-16.28-0.14-28.01-0.89-40.34l0.45-0.14c4.81,10.59,11.34,21.75,18.14,32.62
		l31.04,49.63h12.76V356.7h-11.88v41.05c0,15.12,0.28,26.99,1.44,40.06l-0.45,0.13c-4.51-10.14-10.28-20.31-17.4-31.76l-31.19-49.48
		h-13.93v97.79H306.45z"/>
	<rect x="258.02" y="487.78" class="st1" width="146.43" height="146.43"/>
	<path class="st5" d="M355.98,519.24c-5.82-5.23-14.94-8.14-27.43-8.14c-10.15,0-18.13,0.89-24.22,2.05v96.47h12.62v-39.16
		c2.92,0.71,6.39,0.86,10.17,0.86c12.33,0,23.2-3.67,29.86-10.73c5.1-5.1,7.7-12.07,7.7-20.9
		C364.66,530.95,361.33,523.86,355.98,519.24"/>
	<path class="st1" d="M327.4,561.73c-4.07,0-7.7-0.29-10.46-1.01v-38c2.18-0.43,6.39-1.02,11.89-1.02c13.93,0,23.09,6.21,23.09,19.3
		C351.92,554.19,342.76,561.73,327.4,561.73"/>
	<rect x="102.41" y="487.92" class="st1" width="146.44" height="146.43"/>
	<path class="st5" d="M205.37,523.01c-8.56-7.98-21.46-12.06-39.6-12.06c-10.02,0-19.13,0.87-26.99,2.05v96.19
		c6.52,0.87,13.93,1.12,23.08,1.12c18.99,0,34.08-4.88,43.39-14.03c8.96-8.98,14.03-22.07,14.03-38.01
		C219.28,542.44,214.21,531,205.37,523.01"/>
	<path class="st1" d="M164.32,600.2c-4.95,0-9.58,0-12.76-0.61v-77.31c3.33-0.72,8.27-1.29,14.79-1.29
		c26.68,0,39.77,14.36,39.61,37.7C205.96,585.1,191.29,600.33,164.32,600.2"/>
	<rect x="102.56" y="21.06" class="st1" width="302.05" height="302.11"/>
	<path class="st5" d="M361.66,178.36c-4.23,5.99-9.34,11.6-13.25,17.71c0.44-4.83,1.01-10.79-0.89-15.38
		c-3.25-9.87-6.11-19.87-7.02-30.71l0.09-4.14c2.46,11.06,13.34,18.68,12.64,31.09c0.25,3.01-0.69,5.55-1.23,8.2l0.19,0.2l0.49-0.56
		c1.61-6.08,2.41-12.49,4.91-18.16c3.58-8.16,8-16.41,6.2-26.27C369.21,151.96,367.59,167.49,361.66,178.36"/>
	<path class="st5" d="M354.96,115.68c7.15,9.66,8.72,25.04,3.51,36.11c-1.92,4.71-3.3,9.7-4.06,14.89c-0.38-0.89-0.44-2.09-0.76-3.1
		c-2.82-10.83-13.08-18.55-17.32-28.78c-1.32-3.35-2.45-6.8-3.09-10.43c4.49,8.33,15.61,12.64,18.63,21.82
		c1.25,2.34,1.17,5.23,1.93,7.73c0.17,0,0.33-0.12,0.33-0.29c-1.33-9.46-0.93-19.36,0.37-28.69c-0.08-5.08-0.57-9.98-3.38-13.89
		C352.92,112.11,353.74,114.12,354.96,115.68"/>
	<path class="st5" d="M349.95,113.84c1.87,8.45-0.85,16.7,0.88,25.24l-0.09,0.07c-4.59-9.05-14.37-13.31-21.09-20.56
		c-3.91-4.3-5.6-9.54-6.55-15.1c3.86,9.3,14.24,11.35,20.2,19.15c2,1.81,2.65,4.31,3.94,6.37l0.2-0.21
		c-3.43-7.32-4.59-15.58-6.95-23.38c-1.23-3.4-3.6-6.73-6.79-8.86C341.54,98.18,348.33,106.34,349.95,113.84"/>
	<path class="st5" d="M329.01,94.43c5.91,5.27,8.57,12.12,10.32,19.21l0.96,2.24c-8.57-6.14-16.34-14.45-21.82-23.18l-6.69-6.77
		C317.66,88.43,323.99,89.92,329.01,94.43"/>
	<path class="st5" d="M217.04,87.87c11.15-5.51,23.35-8.45,36.62-8.69c30.34,0.05,59.33,17.86,72.53,45.96
		c8.37,16.14,10.76,38.37,5.32,56.6c-5.52,21.53-23.63,43.31-44.72,52.17c-23.74,11.63-57.49,8.73-78.65-6.45
		c-29.43-20.15-41.46-54.9-32.57-89.19C180.97,117.9,197.2,97.33,217.04,87.87"/>
	<path class="st5" d="M193.76,87.07c-5.92,5.19-10.02,11.75-14.4,17.87c-3.94,4.86-8.97,8.08-13.46,12.27
		c2.42-4.99,2.51-10.95,5.93-15.54C176.71,93.18,185.74,90.21,193.76,87.07"/>
	<path class="st5" d="M161.42,105.13c2.86-3.57,6.52-6.07,10.63-7.11c-7.96,5.46-7.45,15.29-9.99,23.46
		c-0.81,3.02-2.21,5.8-2.9,8.89l0.21,0.17c1.33-3.51,3.65-6.8,6.54-9.66c5.69-5.23,14.07-8.49,16.84-16.22
		c-0.12,10.75-9.1,19.19-17.67,25.25c-3.56,3.09-6.97,6.64-8.9,10.61c-0.2-2.69,0.41-5.43,0.21-8.33
		C155.45,122.8,154.77,112.1,161.42,105.13"/>
	<path class="st5" d="M145.28,137.22c-0.25-9.51,3.69-17.27,9.26-24.36c0.14-0.08,0.27-0.24,0.47-0.21
		c-6.11,9.3-1.06,21.02-1.33,31.6l-0.81,10.83c0.11,0.08,0.11,0.4,0.4,0.28c0.36-1.19,0.44-2.49,0.67-3.74
		c1.46-8.74,9.03-14.94,15.67-20.98c1.42-1.55,2.64-3.18,3.38-5.02c-0.52,4.34-1.9,8.73-3.7,12.76
		c-5.16,10.06-14.7,18.3-16.43,29.81C152.04,157.19,144.5,148.94,145.28,137.22"/>
	<path class="st5" d="M140.63,150.74c0.69-2.97,1.23-6.04,2.51-8.77c-2.46,12.56,5.99,21.61,8.76,32.52
		c1.17,4.06,1.46,8.45,3.11,12.27c0.16,0.08,0.29-0.08,0.4-0.2c-4.14-11.59,1.82-22.34,7.81-31.4c1.44-2.46,2.31-5.2,3.02-8
		c0.64,5.23-0.67,11.27-1.44,16.7c-1.45,6.93-3.62,13.48-5.5,20.21c-1.26,4.17-0.93,8.93-0.29,13.32l-0.6-0.48
		c-4.4-8.09-13.09-14.42-15.65-23.27C140.6,166.6,139.19,158.44,140.63,150.74"/>
	<path class="st5" d="M140.23,175.3c0.97,13.33,15.3,20.37,21.95,31.4c1.57,2.26,2.94,4.74,5.03,6.63c-0.34-1.4-1.65-2.61-2.13-4.06
		c-2.34-4.63-3.18-10.13-2.62-15.74c0.65-6.8,3.51-13.12,2.42-20.29c5.83,12.6,4.06,28.31,7.32,41.94c0.84,2.98,2.58,5.63,3.7,8.5
		c-11.99-8.18-28.35-15.94-33.66-30.91C140,187.61,139.76,181.21,140.23,175.3"/>
	<path class="st5" d="M147.4,205.88c6.69,15.13,23.42,16.38,34.66,25.59c2.04,1.82,4.24,3.38,6.56,4.48l0.12-0.13
		c-2.58-2.33-5.55-4.99-7.36-8c-6.56-9.14-4.26-21.94-9.17-31.76c4.47,5.35,8.53,10.89,11.23,16.98
		c4.03,9.91,5.55,21.09,14.86,28.59c-10.09-3.31-21.86-2.38-30.73-8.58C157.88,227.1,149.21,216.99,147.4,205.88"/>
	<path class="st5" d="M164.59,234.1c10.7,12.2,28.23,8.13,42.51,11.31c2,0.29,3.86,1.08,6,0.76c-1.7-1.08-4.07-0.96-5.93-1.93
		c-11.19-3.95-12.83-16.06-18.92-24.22c7.77,5.15,14.29,12.1,21.46,18.83c5.16,4.5,11.34,6.59,17.86,7.93
		c-1.56,0.56-3.62,0.39-5.31,0.84c-11.7,2.9-24.76,7.6-37.19,3.37C176.99,248.46,168.65,242.08,164.59,234.1"/>
	<path class="st5" d="M310.06,262.51c-12.07,4.51-24.68-0.2-34.1-7.35c-3.81-2.43-7.19-5.93-12.15-5.6
		c-1.77-0.05-3.52,0.04-5.03,0.48c9.17,4.26,17.68,10.14,25.48,17.67c-1.33,1.49-3.01,2.89-4.62,4.18
		c-7.49-8.07-15.83-15.86-25.12-20.41c-1.8,0.24-3.55,1.33-5.19,2.21c-7.58,4.8-15.07,10.96-20.69,18.48l-4.85-3.98
		c7.73-7.8,16.28-13.88,25.6-18.23c-9.16-2.9-15.16,4.79-22.12,8.69c-8.13,5.67-19.8,8.33-29.63,4.43
		c-5.29-2.01-10.38-4.96-14.21-9.75c7.74,5.32,19.24,5.89,28.01,2.43c11.8-5.12,24.02-11.59,38.22-8.5c2.23,0.04,4.4,2.26,6.5,0.37
		c10.55-2.74,22.49-0.84,31.59,3.98l9.38,3.74c8.69,3.22,19.97,2.34,27.42-2.99C320.72,257.15,315.49,260.59,310.06,262.51"/>
	<path class="st5" d="M323.02,250.04c-13.59,5.11-27.21-1.16-40.22-3.26l-2.49-0.33v-0.08c6.2-1.41,12.23-3.26,17.19-7.74
		c7.28-6.99,13.76-14.19,21.85-19.72c-6,7.69-6.62,18.63-16.53,23.59c-2.47,1.6-5.55,1.88-8.1,3.11c3.62,0.08,6.92-1.23,10.51-1.59
		c13.28-2.08,28.49,0.05,37.79-11.27C339.55,240.65,330.91,247.26,323.02,250.04"/>
	<path class="st5" d="M330.53,236.24c-6.9,1.85-14.31,2.45-21.05,4.75c11.39-9.78,10.76-24.91,18.36-36.42
		c2.4-3.27,4.42-6.7,7.24-9.78c-4.61,9.29-2.61,21.33-7.93,30.34c-2.05,3.57-4.98,7.04-8.22,9.87c1.06-0.05,2-0.96,2.91-1.57
		c8.66-8.61,19.93-11.03,29.27-18.04c3.73-2.98,7.17-6.88,8.82-11.1C358.16,218.56,343.95,231.96,330.53,236.24"/>
	<path class="st5" d="M347.65,211.88c-5.35,3.5-10.78,6.75-15.94,10.73v-0.46c7.9-13.12,4.03-31.13,8.88-45.53l1.82-4.83
		c-1,8.97,2.9,16.58,2.63,25.6c-0.3,5.44-2.06,10.27-4.92,14.6h0.47c3.88-5.07,6.9-10.45,11.41-15.29
		c7-6.75,14.12-13.67,15.05-23.06C369.42,189.3,360.65,203.02,347.65,211.88"/>
	<path class="st1" d="M287.07,210.84l0.56-0.77c2.42-1.89,5.03-3.67,7.17-6h0.29c-0.5-0.16-1.1,0.32-1.65,0.09
		c-1.15-0.52-1.33-1.54-1.33-2.7l-4.96-5.12l-0.27-0.76c-0.37,0.97-1.1,1.56-1.82,2.28c0.04,0.65-0.2,1.63,0.57,2.06
		c1.61,0.53,3.7,1.58,4.06,3.46c-0.65,1.78-4.03,3.38-1.95,5.32C288.43,209.66,286.79,210.02,287.07,210.84"/>
	<path class="st1" d="M258.3,145.51c0.92,0.52,1.44-0.44,2.22-0.64c1.12,0.12,1.99,1.09,2.68,1.8c0.72,0.33,1.42-0.11,2.05-0.35
		c0.45-3.34,4.63-2.86,5.88-5.99l-0.76,0.28c-0.32-0.45-1.12-0.25-1.08-0.97c0.68-0.66,1.57-1.66,2.41-1.94
		c-3.61-2.25-7.36-4.19-11.47-5.23c-1.6-0.37-3.3-0.41-4.83-0.97c0.77,2.29,0.09,5.67,0.58,8.33l2.88,0.95
		c0.86-1.39,2.71-1.67,3.51-3c0.52-0.44,1.12,0,1.54,0.48c0.13,1.09-0.15,2.17-0.48,3.21C262.31,143.66,259.73,143.93,258.3,145.51"
		/>
	<path class="st1" d="M301.18,172.55c-1.7,5.4-3.68,10.66-7.06,15.38c-1.32,1.69-2.62,4.04-4.33,4.91l3.66,3.23
		c0.19-0.2,0.08-0.53,0.13-0.81c0-0.48,0.23-1.05,0.83-0.97c1.76-0.04,1.8,1.85,2.82,2.82c-0.21,1.53,1.13,2.74,0.68,4.15
		c10.16-10.71,15.23-23.83,16.16-38.36l0.54-0.64c-3.62,0.35-7.44,0.1-11.17,0.16l-0.89-0.27c0.25,2.45-0.4,4.82-0.54,7.24l1.3,1.44
		c0.39,0.57,0.25,1.42-0.27,1.85C302.44,173.04,301.73,173.01,301.18,172.55"/>
	<path class="st1" d="M291.49,136.93c-1.35-2.57-3.52-4.87-5.39-7.16l-0.19,0.49c-3.71,3.85-7.78,7.84-11.31,11.8
		c0.22,0.48,0.62,0.92,1.09,1.16c0.14-0.96,0.68-1.81,0.77-2.81c0.95-1.33,2.41-0.48,3.65-0.2c1.93-0.44,3.74,0.44,5.71,0.41
		c1.46,0.71,1.58,2.57,2.91,3.29c0.36,0.52,0.07,1.13-0.41,1.53c0.41,3.02,1.85-0.81,3.39-0.09c0.64,0.24,1.44,0.16,1.91,0.85
		c0.25,1.25,1.78,1.02,1.86,2.21c-0.13,0.6-0.77,0.76-1.19,1.09c0.38,1.2-1.22,1.96-0.68,3.25c2.34,0.44,2.42-2.26,3.51-3.46
		c-0.6-2.08-1.05-4.22-2.24-6.08c-1.32-0.27-2.13-1.85-3.47-2.13C288.85,140.07,291.82,138.47,291.49,136.93"/>
	<path class="st1" d="M255.58,220.98c2.99-1.01,6.45-0.84,9.67-1.37c-0.64-0.24-1.29-0.39-1.78-1.05c-1.88-0.11-2.77-2.08-3.37-3.58
		c-0.29-1.07,0.45-1.97,0.89-2.9c-0.8-1.65-3.3-0.45-4.76-1.04c-0.4-0.33-0.69-0.82-1.25-0.9l0.59,0.9
		C255.58,214.34,255.99,217.73,255.58,220.98"/>
	<path class="st1" d="M258.18,189.58c1.04,0.2,0.3,1.34,1.08,1.74c1.65-0.53,2.91,1.4,4.22,0.2c-0.06-1.9,2.08-1.73,3.23-2.21
		c1.82-1.08,3.87-2.53,3.66-4.96l-0.3-0.35c-1.25,0-1.88,0.96-2.79,1.72c-1.15,0.65-1.71-1.21-2.64-0.76
		c0.05,0.2,0.25,0.29,0.42,0.37c0.23,0.29,0.31,0.88,0,1.17c-1.38,1.24-2.01-0.62-3.32-0.49v0.49c0.06,0.28-0.07,0.72-0.47,0.55
		c-0.82-1.33-2.46-0.84-3.28-2c-0.51-0.29-1,0.07-1.35,0.4c-0.29,0.61-1.58-0.08-1.26,0.97c-1,0.36-1.11,1.43-1.84,2.09
		c-1.26-0.22-1.81,1.2-2.99,1.17c0.11,0.24,0,0.64,0.35,0.68c0.74,0.32,1.46,0.4,2.35,0.28
		C254.47,188.7,256.48,190.31,258.18,189.58"/>
	<path class="st1" d="M270.07,173.85c0.06,0.6,0.15,1.4,0.66,1.92c1.57-0.23,0.9,1.94,2.34,1.74c0.81-0.24,0.05-0.93,0.27-1.45
		c-0.22-1.21-1.4-1.34-2.21-2.05c-0.09-0.24,0.09-0.44,0.19-0.64C270.73,173.04,270.45,173.41,270.07,173.85"/>
	<path class="st1" d="M268.25,118.3c-4.08-1.45-8.54-2.06-12.97-2.73l0.4,0.88l-0.09,10.9l1.06-0.2c6.68,0.92,12.78,3.06,18.06,7.36
		l0.29,0.85c1.79-2.54,4.54-4.71,6.66-7.12l2.02-1.17l-0.97-0.4C278.29,122.97,273.48,120.16,268.25,118.3"/>
	<path class="st1" d="M193.38,163.22l0.87,7.41c0.36,2.85,1.61,5.59,1.52,8.41c0.44-0.6,0.17-1.81,1.26-1.94
		c-0.45-0.88,0.84-1.64,0.11-2.41c0.36-1.92,0.59-3.9,2.3-5.31c2.06-0.09,2.21-2.79,4.27-2.91c1.04-0.05,1.69,1.38,2.15,1.85
		c-1.3-1.55-1.23-4.14-0.91-5.91l-0.89,0.41c-3.74-0.08-7.64,0.22-11.18-0.28L193.38,163.22z"/>
	<path class="st1" d="M265.55,182.06c0.95-1,2.99-0.96,3.08-2.4c-1.41-0.22-2.13,0.55-3.08,1.32
		C265.42,181.28,264.98,181.84,265.55,182.06"/>
	<path class="st1" d="M291.15,161.86l1.24,1.23c1.24,0.85,0.41,2.65,1.73,3.38c1.56,0.81,2.13,2.62,2.84,3.99
		c0.23-0.36,0.23-0.8,0.36-1.16c0.54-2.21,0.46-4.7,1.16-6.88C296.05,162.54,293.26,162.78,291.15,161.86"/>
	<path class="st1" d="M274.92,190.06c1.37,0.36,2.3,2.06,4.01,1.53c1.46-0.81,3.87,0.48,4.84-1.04c-0.16-1.49,1.13-2.58,1.78-3.86
		l0.47-0.12c0.81,0.84,0.77,2.1,1.13,3.02c1.12-1.2,2.01-2.54,3.03-3.78c2.65-3.87,4.91-8.01,5.87-12.44
		c-1.08,0.04-2.18,0.23-3.17,0.55c-1.17-0.07-2.59,0.61-3.59-0.2c-0.35-0.31-0.61,0.16-0.55,0.49c-0.42,0.6-0.82,1.36-1.75,1.09
		c-0.72-0.32-0.72-1.09-0.97-1.65c0.04,0.44-0.11,0.85-0.2,1.25c-0.84,0.88-1.13,1.73-1.72,2.69c-0.85,0.93-2.22,0.61-3.11,1.36
		c-0.16,1.94-2.3,1.53-3.5,2.14c-0.08,0.24,0.2,0.28,0.32,0.48c0.57,0.16,1.33,0.16,1.73-0.41c1.7,0.46,1.33-1.68,2.32-2.41
		c0.84-0.12,1.64-0.84,2.51-0.27c0.9,1.08,1.1,2.64,0.97,4.06c-0.97,0.96-0.47,2.53-1.16,3.66c0.15,1.33-1.46,1.93-1.25,3.27
		c-0.52,0.59-1.42,0.69-2.22,0.69c-3.17-1.21-6.52-1.98-10.07-2.31c-0.31,0.12-0.52,0.4-0.47,0.77
		C271.63,189.38,273.39,189.42,274.92,190.06"/>
	<path class="st1" d="M250.92,225.33l0.41-0.61l-1.25,0.33c-15.69-1.09-29.58-6.64-41.04-17.72l-0.12,0.49l-8.29,8.33
		c12.55,10.88,26.73,17.88,42.9,20.09c2.59,0.44,5.53,0.2,8.01,0.96l-0.61-0.96V225.33z"/>
	<path class="st1" d="M234.69,181.93c4.31,3.55,9.14,5.75,14.51,6.69c0.28-1.09-0.16-2.45,0.4-3.38c0.39-0.9,1.48-0.85,2.28-0.69
		c0.48-0.04,0.77-0.63,0.48-1.05c-1.15-0.22-0.63-1.52-1.05-2.25c0.06-0.4,0.74-0.32,0.57-0.85c-0.81-0.64,0.4-1.36-0.28-2.05
		c0.2-0.13,0.34-0.37,0.54-0.51c-2.43,1.02-5.03-0.46-7.18-1.42c-1.06-0.62-2.58-1.21-2.81-2.5
		C240.43,176.74,237.11,179.31,234.69,181.93"/>
	<path class="st1" d="M230.56,169.38c-0.39-0.21-0.44-0.16-0.76,0.19c-0.2,0-0.44,0.04-0.6-0.08c0-2.29-2.56-0.92-3.54-2.12
		c1.13,2.08,1.73,4.46,2.89,6.55c0.73,1.85,2.33,3.31,3.07,5.12c0.77-1.46,2.29-2.62,3.39-3.95c0.07-0.6-0.05-1.13-0.39-1.57
		c-0.35-0.85-0.02-2.05-0.68-2.77c-1.03,0.36,0.37,1.4-0.08,2.02c-0.44,0.27-0.92-0.1-0.95-0.5c-0.93-0.15-1.65-0.96-1.95-1.81
		C231.72,169.98,230.76,169.77,230.56,169.38"/>
	<path class="st1" d="M238.29,170.55c-0.25,1-0.92,1.88-1.66,2.61l0.13,0.08c0.97-0.68,1.66-1.93,2.9-2.01L238.29,170.55z"/>
	<path class="st1" d="M249.96,209.67c-9.79-0.49-18.35-4.07-25.97-9.75c0.24,0.96,1.52,1.58,1.17,2.78c-0.69,1.1-2.1,1.12-3.22,1.1
		c-2.31-0.37-4,1.36-6.15,1.59c-1.98,0.62-2.66-1.81-4.47-1.59c11.18,9.77,23.97,15.88,38.96,16.69l1.12,0.76l-0.49-1.36v-10.63
		L249.96,209.67z"/>
	<path class="st1" d="M206.49,204.43c-1.37-0.97-2.59-2.53-3.75-3.87c-1.33-0.36-2.7-1.28-3.38-2.56c-0.4-0.46-0.03-1.25-0.48-1.57
		l-0.49,0.6c-1.41,0.68-1.91-0.77-2.89-1.36c-1.25-0.68-0.64-3.06-2.35-2.62c-0.63-0.04-0.84-0.76-1.24-1.16
		c-1.56,0.15-1.97-1.58-2.82-2.42c-0.16,0.36,0,0.84-0.48,1.08c-1.61,0.37-2.17-1.6-3.27-2.42c-0.28,0.12-0.48,0.46-0.89,0.37
		c-0.95-0.85-1.59-2.06-1.65-3.39c-1.32-1.5-0.71-3.87-0.47-5.68c0.24-0.48,0.94-0.75,0.8-1.36c0.37-0.85,1.26-0.93,2.1-0.97
		c0.33,0.17,0.65,0.48,0.8,0.77c0.53-0.33,1.7,0.04,1.26-1.13c0.68-0.59,1.69-0.81,2.62-0.97c0.64,0.82,0.95,1.74,1.82,2.49
		l-0.56-0.87c-0.97-3.95-1.73-7.97-1.94-12.24c0.04-0.24-0.51-0.36-0.19-0.59l0.07,0.11c0.06-0.89-0.02-1.65,0.12-2.26l-1.08,0.41
		l-11.2-0.08c0.64,12.87,4.07,24.58,9.86,35.34c2.85,5.3,7.04,10.09,10.69,15.05l8.01-8.3L206.49,204.43z"/>
	<path class="st1" d="M219.37,110.45c-2.49,1.73-4.78,3.99-7.36,5.51c2.99,1.89,5.44,5.04,8.13,7.52l0.28,0.77
		c6.85-6.56,15.18-10.38,24.16-12.24c2.13-0.21,4.28-0.93,6.35-0.49c-0.15-3.82-0.49-7.81-0.09-11.6
		C239.17,100.63,228.72,104.18,219.37,110.45"/>
	<path class="st1" d="M209.79,152.48c-0.45,1.93-0.2,4.18-0.97,6c1.43-0.66,3.47-0.41,5.03-0.21c-0.91-0.48-0.15-1.65-0.69-2.29
		c-0.12-1-0.29-2.25,0.69-2.9c-0.11-1.65,1.65-2.5,1.82-3.98c0.44-1.69,2.37-0.56,3.3-1.45c0.6-0.33,0.08-0.89,0.08-1.32
		c0.8-1.1,2.06-1.05,3.01-1.65c0.69-1.05,1.58-2.18,2.7-2.81c2.42,0.08,2.46-3.31,4.76-3.39c-3.14-2.37-6.13-5.55-8.9-8.29
		C215.07,136.82,211.28,144.14,209.79,152.48"/>
	<path class="st1" d="M211.32,168.81c0.11-0.73-0.96-0.92-0.85-1.64c0.77-1.49,0.04-3.91,2.01-4.55c-1.4,0.24-2.65,0.52-3.86-0.36
		l0.59,0.97c0.09,2.66,1.15,5.19,0.58,7.89C210.24,170.34,210.37,169.3,211.32,168.81"/>
	<polygon class="st1" points="222.42,197.86 222.26,197.58 222.42,198.09 	"/>
	<path class="st1" d="M209.03,119.34l-4.36,5.53c-7.11,9.77-10.51,21.08-11.51,33.4l11.04-0.2l1.05,0.41
		c-0.45-0.3-0.34-0.78-0.49-1.17c0.89-11.47,4.92-21.69,12.84-30.23c-3.05-2.65-5.92-5.46-8.5-8.49L209.03,119.34z"/>
	<path class="st1" d="M243.02,194.62c0.89-0.95,1.93-1.57,3.03-1.97c-3.58,0.72-6.73-1.85-9.78-3.27c-1.74-1.29-3.99-2.34-5.03-4.27
		c-2.38,2.9-5.19,5.91-8.01,8.21c1.24,0.08,1.93,1.45,2.98,2.06c6.04,5.03,13.56,7.45,20.55,9.18l-1.9-0.9
		c-1.46-1.64-3.52-3.58-3.59-5.86C242.71,197.3,242.56,195.71,243.02,194.62"/>
	<path class="st1" d="M215.5,162.61l-0.32,2.13c-0.48,1.27-2.05,0.33-2.77,1.18c-0.52,0.8,0.03,1.65,0.47,2.29
		c-1.12,2.59,2.55,3.4,2.5,5.72c1.13,1.45-0.16,3.54,1.46,4.83c0.35,2.62-0.37,6.16,1.93,8.22l0.41,2.5
		c0.46,1.73-2.07,1.27-1.74,2.82c0.49-0.25,0.59,0.4,0.64,0.55v-0.08c3.1-3.58,6.68-7.37,10.34-10.54l-1.53-1.54
		c-2.86-4.27-5.11-8.82-6.2-13.81l-1.16-0.59c-0.04,1.28-0.66,2.29-0.56,3.57l-0.41,0.49c-0.84-0.03-1.37-0.73-2.09-1.17
		c-0.16-0.44-0.61-1.16,0.09-1.53c0.4-0.03,0.67,0.09,0.97,0.27c0.35-0.43,0.19-1.07,0.41-1.64c0.1-0.97-0.74-1.86-0.14-2.7
		c0.77-0.08,1.34,0.84,1.65,1.36c0.77,0.24,1.37-0.39,2.01-0.68c0-0.68,0.96-1.61-0.08-2.01c0.57-1.57,0.16-3.22-0.09-4.74
		c-0.43-1.33-1.93-1.09-3.01-0.98c-3.26,1.04,0.53,3.51-0.28,5.52C217.55,163.22,216.35,162.14,215.5,162.61"/>
	<path class="st1" d="M318.65,162.41l-0.67-0.48l0.4,1.09c-0.63,13.4-5.1,25.23-12.77,35.76c-1.48,1.76-2.87,3.93-4.73,5.18
		c3.07,2.41,6.45,6.03,8.97,8.82l0.31-0.6c12.32-14.05,19.32-30.33,20.08-49.15l0.49-0.96l-0.6,0.3L318.65,162.41z"/>
	<path class="st1" d="M209.59,113.14l0.2-0.56c11.75-10.7,25.44-16.58,41.12-17.31l-0.35-0.96l-0.13-9.67l0.34-1.12
		c-16.18,0.64-30.55,6.16-43.3,15.33c-2.46,1.69-4.63,4.27-7.14,5.72h0.36C203.88,106.9,206.9,110.25,209.59,113.14"/>
	<path class="st1" d="M250.36,115.88c-10.22,0.74-19.09,5-26.85,11.41c3.07,2.11,5.79,5.54,8.57,7.99c0.2-0.27,0.41-0.55,0.6-0.88
		c3.83-2.73,7.78-5.22,12.28-6.35c2-0.21,3.99-1.16,6.07-0.69c-0.43-3.79-0.43-7.96,0-11.87L250.36,115.88z"/>
	<path class="st1" d="M250.92,131.82c-6.47,0.86-12.43,3.07-17.17,8.1h0.86c0.98,0.97,2.54,0.76,3.27,2.06
		c0.36,0.72-0.68,0.64-0.64,1.24c0.21,0.17,0.49,0.2,0.64,0.49c0.76,0.27,0.6-0.45,0.9-0.77c1-1,1.16,0.96,2.13,0.96
		c0.69-0.45,1.65-0.48,2.12,0.28c0.66-0.56,2.03-0.04,2.23-1.08c1.26-1.33,0.57-3.38,2.42-4.23c0.64,0.36-0.04,0.97,0.2,1.53
		c1.24,0.52,2.65-1.05,3.66,0.21C250.61,137.98,250.83,134.72,250.92,131.82"/>
	<path class="st1" d="M251.33,149.86c-1.2,2.01-3.22,2.45-5.11,3.02c-0.52,0.64-0.39,2.06-1.65,1.93c-0.39,0.9-1.77,1.42-1.24,2.71
		c-0.66,1.37-0.35,3.13-0.69,4.63c-2.38,1.48-1.71-1.98-2.89-2.7l-0.43,0.69c-0.46,0.12-0.79-0.16-1.12-0.48
		c-0.36-0.14-0.97-0.26-1.29,0.07c-0.52,0.89-1.32,1.61-1.13,2.82c-0.23,0.72-1.44,0.48-1.28,1.25c1.33-0.04,2.77-0.27,4.06-0.56
		c0.94,0.23,1.69-0.44,2.62-0.48c0.31,0.16,0.71,0.48,0.56,0.96h0.33c0.64-0.49,0.91-1.22,0.64-1.93c0.09-0.85,1.02-0.85,1.57-1.09
		c0.53,0.24,0.2,0.76,0.29,1.17c1.81,0.68-0.44,2.01-0.69,2.96c-0.48,0.77,0,2.5-1.53,2.26c-0.27-0.07-0.45-0.36-0.39-0.69h-0.21
		c-0.03,0.66,0.45,1.53,1.09,1.81c1.11-0.92,1.16-2.49,2.79-2.7c0.82-0.88-0.38-2.24,0.88-2.97c2.09-0.05,4.32-0.93,5.99,0.75
		c-0.13,0.73-0.4,1.06,0.21,1.66c-0.42,0.93-0.68,1.93-1.45,2.7c0.2,0.52,0.04,1.16-0.42,1.53c-0.54,2.45-3.37,1.28-5.01,2.13
		c2.53,1.93,5.59,2.65,8.88,2.41c1.73-0.08,0.97-2.22,1.86-3.17c0.55-2.81,3.14-0.89,4.71-1.65c0.59-1.2,1.2-2.38,1.35-3.74
		c-1-0.64-1.4-1.86-1.08-3.01c-0.68-0.93-0.61-2.63-2.1-2.79c-0.23-0.32-0.04-0.74,0.17-0.95c-0.03-0.89,0.85-1.17,1.09-1.86
		c-0.92-0.6-0.68-1.93-0.6-2.7c-1.58,0.45-1.73-1.6-2.9-2.04c-0.29-0.93-1.29-1.09-2.1-1.25c-1.93,0.92-2.25-1.45-3.7-2.01
		c-0.16-0.45-0.49-1.1,0-1.45c0.73-0.61,1.69-0.09,2.53-0.14l-0.68-0.36c-0.64-0.72-2.05-0.27-2.9,0
		C251.17,147.4,250.83,148.85,251.33,149.86"/>
	<path class="st1" d="M189.3,158.4l-0.27-1.58c0.77-12.85,4.86-24.26,12.08-34.49c1.79-2.05,3.13-4.62,5.39-6.16
		c-2.62-2.45-5.34-5.31-8.1-8l-0.27-1.1c-11.48,12.76-18.55,27.33-20.62,43.96c-0.45,2.42-0.14,4.91-0.63,7.37
		C180.9,158.07,185.27,158.07,189.3,158.4"/>
	<path class="st1" d="M298.19,206.49c-1.14,2.21-3.64,3.61-5.53,5.31c-2.61,2.62-6.88,3.18-8.21,6.97c-1.4,1.28-1.88,3.29-3.85,4.02
		c-0.74,1.93-2.79,1.82-3.95,3.21c-3.39,3.02-5.57-1.92-8.62-2.52l-6.16,1.08c-2.14,0-4.27,0.77-6.29,0.08
		c0.29,4.09,0.29,8.52,0,12.63l0.77-0.48c19.4-0.84,36.14-8.21,50.51-21.25l-8.48-8.1L298.19,206.49z"/>
	<path class="st1" d="M255.39,94.22c0-0.35,0.16-0.67,0.38-0.94c0.55-0.34,1.02,0.16,1.26,0.55c0.05,0.57,0.3,1.54-0.18,1.86
		c0.48,0.08,0.73-0.28,1.16-0.28c9.22,0.69,17.75,3.38,25.41,7.73v-0.2c1.56-0.77,3.57-1.77,5.19-0.41
		c1.93-0.72,2.29,1.66,3.86,1.93c1.9,1.13,4.04,3.23,4.27,5.44c0.34,0.72,1.5,1.24,1.65,2.01c1.29-2.73,3.87-4.68,6.09-7.04
		l1.36-0.57c-12.15-11.59-26.6-17.99-42.71-20.21c-2.56-0.44-5.4-0.2-7.84-0.96C255.77,86.3,255.63,90.65,255.39,94.22"/>
	<path class="st1" d="M255.39,111.54c1.53-0.53,3.09,0.12,4.64,0.16c7.89,1.29,15.34,3.82,21.64,8.69c-0.75-0.81-1.68-1.73-1.85-2.9
		c0.13-0.16,0.3-0.2,0.49-0.16c0.09-1.25-1.25-1.9-1.43-3.02c0.18-0.24,0.48-0.48,0.88-0.37c1.35,1.29,2.51,2.7,3.53,4.14
		c0.9-0.35,1.62,0.21,2.27,0.68c1.16,0.68,0.44,2.18,1.33,2.99c0.16,2.37,3.06,3.7,2.9,6.08c0.02,0.56,0.71,0.12,0.95,0.4l2.41,2.97
		c-0.44,0.57-0.07,1.26,0.42,1.65c1.08,0.49,1.68-0.88,2.76-0.68c1.56,0.88-0.25,1.93-0.09,2.9c0.61,0.03,1.38-0.48,1.87,0.12
		c0.19,0.89-0.74,1.45-1.11,2.02c0,0.88,0.73,0.68,1.38,0.88c0.72-0.03,1.17,0.85,0.97,1.45c2.01,2.1-0.61,4.35,0.36,6.56
		c0.63,1.44-0.17,2.85-1.06,3.93c0.05,1.78-1.58,2.86-2.19,4.35l-2.06,0.4c-1.1,1.09,0.94,2.42-0.16,3.11l4.51,0.08l-0.49-0.48
		c-0.63-1.76-0.48-4.15,0.62-5.72c0.68-1.45,0.85-3.19,2.14-4.43c0.27-0.08,0.79-0.61,1.04,0c0.08,1.37-0.04,2.93-0.68,4.15
		c1.29,1.85,1.12,4.26,1.24,6.56c3.98-0.25,7.9-0.32,11.81-0.28l-0.36-0.77c-0.62-7.44-2.14-14.49-5.25-20.85
		c-0.85,0.05-1.45,0.72-2.41,0.48c-0.32-0.11-0.53-0.43-0.49-0.8c-1.6-1.53-2.62-3.54-4.42-4.93c-2.08,0.2-2.99-2.17-4.84-2.41
		c-1.64-0.68-0.52-3.35-2.9-2.61c-1.17-0.49-2.3-1.37-2.53-2.7c0-2.09-0.41-4.35-2.28-5.72c-1.46-0.52-2.06,1.4-3.52,1.09
		c-0.8-0.41-0.44-1.45-0.7-2.13c-0.27-0.62-0.95-1.06-0.83-1.86c1.89-2.49-2.3-2.45-1.37-4.91c-0.25-1.77-2.05-2.46-2.98-3.86
		c-6.24-2.82-12.48-4.74-19.51-5.6c-1.73-0.25-3.34,0.12-4.83-0.68l0.39,0.75C255.5,104.05,255.77,108.03,255.39,111.54"/>
	<path class="st1" d="M299.41,115.68c0.85,0.2,1.1,1.21,1.68,1.81c2.92,1.56,3.69,4.71,6.27,6.48c1.45,3.03,4.79,5.36,4.91,8.82
		c3.49,7.73,5.87,15.9,6.11,24.99l-0.31,0.48c0.35,0,0.67-0.16,0.95-0.36l11.61-0.21c-0.76-1.12-0.45-2.77-0.64-4.14
		c-1.54-17.91-9.18-33.25-21.17-46.77c-2.22,2.97-5.23,5.75-8.01,8.6L299.41,115.68z"/>
	<path class="st5" d="M257.02,92.31c0.36-0.64,1.27-0.41,1.75-0.21l5.8-2.49c2.33,0.2,4.9,0.48,6.28,2.42v0.28
		c-1.45,1.2-3.3,2.16-5.23,1.36c-2.66,0.53-6.37,2.06-8.51-0.68C257.02,92.78,256.79,92.5,257.02,92.31"/>
	<path class="st5" d="M291.61,99.62c0.8,0.25,1.54,0.61,1.82,1.46c-0.21,0.91,0.85,1.68,0.19,2.4c-2.17,0.57-2.37-1.88-4.06-2.49
		c-0.23-0.33-0.32-0.73-0.28-1.17C290.05,98.9,290.77,100.43,291.61,99.62"/>
	<polygon class="st5" points="73.96,734.46 59.29,734.46 56.54,749.18 73.06,749.18 72.23,753.44 50.73,753.44 58.4,713.09 
		78.99,713.09 78.15,717.34 62.59,717.34 60.13,730.27 74.8,730.27 	"/>
	<path class="st5" d="M78.58,753.44l3.89-20.53c0.6-3.23,1.02-6.05,1.32-8.44h4.37l-0.78,5.45h0.18c2.69-4.07,6.34-6.11,10.18-6.11
		c4.43,0,6.52,2.81,6.76,6.46c2.58-4.19,6.29-6.41,10.6-6.46c3.35,0,7.07,2.15,7.07,7.6c0,1.32-0.18,3.29-0.48,4.91l-3.23,17.12
		h-4.85l3.11-16.7c0.24-1.08,0.42-2.57,0.42-3.77c0-3.05-1.14-5.03-4.37-5.03c-3.59,0-7.9,4.19-9.1,10.66l-2.76,14.85h-4.79l3.23-17
		c0.24-1.32,0.36-2.39,0.36-3.53c0-2.46-0.66-4.97-4.31-4.97c-3.65,0-8.14,4.79-9.28,10.96l-2.69,14.54H78.58z"/>
	<path class="st5" d="M124.38,765.29l5.81-30.53c0.66-3.47,1.26-7.43,1.62-10.36h4.55l-0.78,5.51h0.12
		c2.57-3.83,6.41-6.11,10.42-6.11c6.23,0,8.86,5.15,8.86,10.47c0,10.24-7.31,19.82-16.95,19.82c-3.05,0-5.09-0.66-6.23-1.32h-0.12
		l-2.34,12.52H124.38z M132.53,748.59c1.32,1.02,3.17,1.62,5.56,1.62c6.41,0,11.73-7.97,11.73-15.57c0-3.05-1.31-6.71-5.57-6.71
		c-3.89,0-8.74,4.43-10.24,12.57L132.53,748.59z"/>
	<path class="st5" d="M170.36,754.09c-7.25,0-11.32-5.39-11.32-11.91c0-9.58,6.64-18.38,16.05-18.38c7.84,0,11.37,5.92,11.37,12.03
		c0,8.98-6.34,18.26-16.05,18.26H170.36z M170.96,750.15c5.87,0,10.3-7.55,10.3-14.31c0-3.35-1.56-8.08-6.76-8.08
		c-6.23,0-10.36,7.6-10.36,14.25c0,4.73,2.64,8.15,6.76,8.15H170.96z"/>
	<path class="st5" d="M196.42,724.47l1.02,16.28c0.24,3.6,0.18,5.45,0.12,7.78h0.18c0.66-1.86,1.74-4.37,3.17-7.24l8.56-16.82h4.37
		l1.8,16.52c0.3,3.18,0.48,5.63,0.48,7.54h0.12c0.78-2.33,1.56-4.55,2.76-7.36l7.84-16.7h5.03l-14.31,28.97h-4.61l-1.92-15.75
		c-0.3-2.69-0.42-5.14-0.42-7.72h-0.12c-1.19,2.81-2.04,4.97-3.35,7.54l-8.32,15.92h-4.61l-2.7-28.97H196.42z"/>
	<path class="st5" d="M252.47,751.82c-2.16,1.19-5.69,2.27-9.58,2.27c-7.66,0-11.01-5.27-11.01-11.67c0-8.74,6.46-18.62,15.81-18.62
		c5.51,0,8.49,3.29,8.49,7.48c0,7.61-8.56,9.58-19.27,9.4c-0.24,1.26-0.06,3.95,0.6,5.51c1.14,2.63,3.47,3.89,6.46,3.89
		c3.41,0,5.99-1.02,7.78-1.98L252.47,751.82z M251.39,731.35c0-2.34-1.79-3.65-4.43-3.65c-4.73,0-8.26,4.61-9.45,9.16
		c7.78,0.12,13.89-0.96,13.89-5.45V731.35z"/>
	<path class="st5" d="M258.7,753.44l3.53-18.68c0.72-3.77,1.14-7.6,1.44-10.29h4.37c-0.17,2.03-0.42,4.01-0.78,6.28h0.18
		c1.92-3.95,4.97-6.94,8.86-6.94c0.48,0,1.02,0.06,1.44,0.12l-0.96,4.9c-0.36-0.06-0.84-0.11-1.38-0.11
		c-4.25,0-8.09,5.21-9.34,11.91l-2.39,12.81H258.7z"/>
	<path class="st5" d="M298.33,751.82c-2.16,1.19-5.69,2.27-9.58,2.27c-7.66,0-11.01-5.27-11.01-11.67c0-8.74,6.47-18.62,15.81-18.62
		c5.51,0,8.5,3.29,8.5,7.48c0,7.61-8.56,9.58-19.28,9.4c-0.24,1.26-0.06,3.95,0.6,5.51c1.13,2.63,3.47,3.89,6.47,3.89
		c3.41,0,5.98-1.02,7.78-1.98L298.33,751.82z M297.26,731.35c0-2.34-1.79-3.65-4.43-3.65c-4.73,0-8.26,4.61-9.46,9.16
		c7.78,0.12,13.89-0.96,13.89-5.45V731.35z"/>
	<path class="st5" d="M335.4,710.93l-6.41,33.35c-0.54,2.98-1.02,6.34-1.2,9.16h-4.55l0.77-5.75h-0.12
		c-2.64,4.13-6.29,6.4-10.48,6.4c-5.57,0-8.62-4.61-8.62-10.54c0-10.3,7.66-19.75,17.9-19.75c1.85,0,3.89,0.42,5.15,1.01l2.57-13.89
		H335.4z M327.02,729.01c-0.96-0.72-2.63-1.26-4.73-1.26c-6.95,0-12.33,7.42-12.33,15.15c0,3.47,1.2,7.13,5.45,7.13
		c3.83,0,8.44-4.37,9.7-10.9L327.02,729.01z"/>
	<polygon class="st5" points="346.96,753.44 355.04,710.93 360.01,710.93 351.93,753.44 	"/>
	<path class="st5" d="M360.61,753.44l5.51-28.97h4.97l-5.51,28.97H360.61z M369.89,719.13c-1.74,0-2.93-1.37-2.93-3.24
		c0.06-1.97,1.55-3.53,3.41-3.53c1.86,0,3.11,1.38,3.11,3.24c-0.06,2.09-1.56,3.53-3.53,3.53H369.89z"/>
	<path class="st5" d="M380.78,724.47l2.51,16.52c0.42,3.29,0.84,5.57,0.9,7.12h0.18c0.66-1.55,1.44-3.47,3.12-6.76l8.8-16.88h5.45
		l-16.11,28.97h-4.85l-5.03-28.97H380.78z"/>
	<path class="st5" d="M421.68,751.82c-2.15,1.19-5.68,2.27-9.57,2.27c-7.66,0-11.02-5.27-11.02-11.67c0-8.74,6.47-18.62,15.81-18.62
		c5.51,0,8.5,3.29,8.5,7.48c0,7.61-8.56,9.58-19.27,9.4c-0.24,1.26-0.06,3.95,0.6,5.51c1.14,2.63,3.47,3.89,6.47,3.89
		c3.41,0,5.98-1.02,7.78-1.98L421.68,751.82z M420.61,731.35c0-2.34-1.8-3.65-4.43-3.65c-4.73,0-8.26,4.61-9.46,9.16
		c7.78,0.12,13.89-0.96,13.89-5.45V731.35z"/>
	<path class="st5" d="M428.21,748.47c1.32,0.84,3.83,1.8,6.23,1.8c3.34,0,5.51-2.16,5.51-4.73c0-2.28-1.02-3.71-4.08-5.39
		c-3.35-1.86-5.21-4.37-5.21-7.36c0-5.09,4.37-8.98,10.54-8.98c2.57,0,4.91,0.72,5.99,1.44l-1.37,3.77
		c-1.02-0.6-2.82-1.32-4.97-1.32c-3.06,0-5.21,1.92-5.21,4.37c0,2.1,1.38,3.41,4.01,4.85c3.23,1.86,5.39,4.37,5.39,7.66
		c0,6.11-4.91,9.52-11.08,9.52c-3.11-0.06-5.87-0.95-7.18-1.98L428.21,748.47z"/>
	<path class="st5" d="M452.53,754.09c-1.97,0-3.29-1.55-3.29-3.53c0-2.22,1.56-4.01,3.77-4.01c2.04,0,3.35,1.56,3.35,3.6
		c0,2.21-1.55,3.95-3.77,3.95H452.53z"/>
	<path class="st5" d="M62.33,785.54c2.45-0.54,5.8-0.84,8.8-0.84c4.01,0,7.48,0.96,9.64,2.93c1.85,1.55,2.99,3.9,2.99,6.64
		c0,5.87-4.49,10.24-9.58,11.68l-0.06,0.11c2.87,0.96,4.19,3.96,4.49,8.08c0.42,5.63,0.72,9.52,1.26,11.14h-5.15
		c-0.24-0.83-0.66-5.09-0.96-9.76c-0.3-5.57-2.33-7.85-6.34-7.85h-4.43l-3.29,17.6h-4.97L62.33,785.54z M63.77,803.85h4.43
		c6.29,0,10.36-4.13,10.36-8.92c0-4.37-3.23-6.28-7.78-6.28c-1.98,0-3.23,0.18-4.19,0.42L63.77,803.85z"/>
	<path class="st5" d="M106.58,823.67c-2.16,1.2-5.69,2.28-9.58,2.28c-7.66,0-11.02-5.27-11.02-11.67c0-8.74,6.46-18.62,15.81-18.62
		c5.51,0,8.5,3.29,8.5,7.48c0,7.6-8.56,9.57-19.28,9.4c-0.24,1.25-0.06,3.95,0.6,5.51c1.14,2.64,3.48,3.89,6.47,3.89
		c3.41,0,5.98-1.02,7.78-1.98L106.58,823.67z M105.5,803.2c0-2.33-1.79-3.65-4.43-3.65c-4.72,0-8.26,4.61-9.46,9.16
		c7.79,0.12,13.89-0.96,13.89-5.45V803.2z"/>
	<path class="st5" d="M113.11,820.32c1.32,0.84,3.83,1.8,6.23,1.8c3.35,0,5.51-2.16,5.51-4.73c0-2.28-1.02-3.71-4.07-5.39
		c-3.35-1.86-5.21-4.37-5.21-7.36c0-5.09,4.37-8.98,10.54-8.98c2.57,0,4.91,0.72,5.99,1.44l-1.38,3.77
		c-1.02-0.6-2.81-1.32-4.97-1.32c-3.05,0-5.21,1.91-5.21,4.37c0,2.1,1.38,3.41,4.01,4.85c3.23,1.86,5.39,4.37,5.39,7.66
		c0,6.11-4.91,9.52-11.08,9.52c-3.11-0.06-5.87-0.96-7.18-1.97L113.11,820.32z"/>
	<path class="st5" d="M135.14,825.29l5.51-28.98h4.97l-5.51,28.98H135.14z M144.42,790.99c-1.73,0-2.93-1.38-2.93-3.24
		c0.06-1.97,1.56-3.53,3.41-3.53c1.86,0,3.12,1.38,3.12,3.23c-0.06,2.1-1.56,3.53-3.53,3.53H144.42z"/>
	<polygon class="st5" points="148.91,825.29 156.99,782.78 161.96,782.78 153.88,825.29 	"/>
	<path class="st5" d="M162.56,825.29l5.51-28.98h4.97l-5.51,28.98H162.56z M171.84,790.99c-1.73,0-2.93-1.38-2.93-3.24
		c0.06-1.97,1.56-3.53,3.41-3.53c1.86,0,3.11,1.38,3.11,3.23c-0.06,2.1-1.56,3.53-3.53,3.53H171.84z"/>
	<path class="st5" d="M197.17,823.67c-2.15,1.2-5.69,2.28-9.58,2.28c-7.66,0-11.02-5.27-11.02-11.67c0-8.74,6.47-18.62,15.81-18.62
		c5.51,0,8.5,3.29,8.5,7.48c0,7.6-8.56,9.57-19.28,9.4c-0.24,1.25-0.06,3.95,0.6,5.51c1.14,2.64,3.47,3.89,6.47,3.89
		c3.41,0,5.99-1.02,7.78-1.98L197.17,823.67z M196.09,803.2c0-2.33-1.79-3.65-4.43-3.65c-4.73,0-8.26,4.61-9.46,9.16
		c7.78,0.12,13.89-0.96,13.89-5.45V803.2z"/>
	<path class="st5" d="M203.46,825.29l3.83-20.53c0.66-3.23,1.08-6.05,1.38-8.44h4.49l-0.78,5.69h0.12
		c2.64-4.07,6.52-6.35,10.77-6.35c3.42,0,7.31,1.98,7.31,8.02c0,1.31-0.24,3.17-0.54,4.67l-3.23,16.94h-4.91l3.17-16.76
		c0.18-1.08,0.36-2.46,0.36-3.71c0-2.87-1.13-5.03-4.55-5.03c-3.53,0-8.56,4.25-9.88,11.43l-2.63,14.07H203.46z"/>
	<path class="st5" d="M248.18,789.37l-1.32,6.95h6.95l-0.78,3.89h-6.95l-2.64,14.13c-0.36,1.62-0.59,3.11-0.59,4.61
		c0,1.74,0.84,2.81,2.75,2.81c0.9,0,1.68-0.06,2.34-0.24l-0.24,3.89c-0.9,0.36-2.39,0.54-3.83,0.54c-4.37,0-6.1-2.64-6.1-5.63
		c0-1.68,0.24-3.35,0.65-5.44l2.81-14.67h-4.13l0.71-3.89h4.13l1.02-5.33L248.18,789.37z"/>
	<path class="st5" d="M265.07,825.29l3.83-20.53c0.66-3.23,1.08-6.05,1.38-8.44h4.49l-0.78,5.69h0.12
		c2.63-4.07,6.52-6.35,10.78-6.35c3.41,0,7.3,1.98,7.3,8.02c0,1.31-0.24,3.17-0.54,4.67l-3.23,16.94h-4.91l3.17-16.76
		c0.18-1.08,0.36-2.46,0.36-3.71c0-2.87-1.13-5.03-4.55-5.03c-3.53,0-8.56,4.25-9.88,11.43l-2.64,14.07H265.07z"/>
	<path class="st5" d="M316.26,825.29c0-1.74,0.3-4.49,0.66-7.48h-0.12c-3.17,6.04-7.18,8.14-11.25,8.14c-5.15,0-8.32-4.07-8.32-9.58
		c0-10.12,7.43-20.71,20-20.71c2.76,0,5.8,0.48,7.78,1.08l-2.94,15.15c-0.96,5.03-1.31,10.18-1.19,13.41H316.26z M319.43,800.02
		c-0.71-0.24-1.73-0.42-3.42-0.42c-7.48,0-13.65,7.78-13.65,15.87c0,3.23,1.14,6.41,4.91,6.41c4.19,0,9.1-5.39,10.47-13.11
		L319.43,800.02z"/>
	<path class="st5" d="M341.05,789.37l-1.32,6.95h6.94l-0.78,3.89h-6.95l-2.63,14.13c-0.36,1.62-0.6,3.11-0.6,4.61
		c0,1.74,0.84,2.81,2.76,2.81c0.9,0,1.68-0.06,2.33-0.24l-0.24,3.89c-0.9,0.36-2.39,0.54-3.83,0.54c-4.37,0-6.11-2.64-6.11-5.63
		c0-1.68,0.24-3.35,0.66-5.44l2.82-14.67h-4.13l0.72-3.89h4.13l1.02-5.33L341.05,789.37z"/>
	<path class="st5" d="M346.98,825.29l5.51-28.98h4.97l-5.51,28.98H346.98z M356.25,790.99c-1.74,0-2.93-1.38-2.93-3.24
		c0.06-1.97,1.55-3.53,3.41-3.53c1.86,0,3.11,1.38,3.11,3.23c-0.06,2.1-1.56,3.53-3.54,3.53H356.25z"/>
	<path class="st5" d="M372.36,825.95c-7.24,0-11.32-5.39-11.32-11.91c0-9.58,6.65-18.38,16.04-18.38c7.85,0,11.38,5.93,11.38,12.03
		c0,8.98-6.35,18.26-16.04,18.26H372.36z M372.96,822c5.87,0,10.3-7.55,10.3-14.31c0-3.35-1.55-8.08-6.77-8.08
		c-6.22,0-10.36,7.61-10.36,14.25c0,4.73,2.64,8.14,6.77,8.14H372.96z"/>
	<path class="st5" d="M392,825.29l3.83-20.53c0.66-3.23,1.07-6.05,1.38-8.44h4.49l-0.78,5.69h0.12c2.63-4.07,6.52-6.35,10.77-6.35
		c3.41,0,7.31,1.98,7.31,8.02c0,1.31-0.24,3.17-0.54,4.67l-3.23,16.94h-4.91l3.18-16.76c0.18-1.08,0.35-2.46,0.35-3.71
		c0-2.87-1.14-5.03-4.55-5.03c-3.53,0-8.56,4.25-9.88,11.43l-2.64,14.07H392z"/>
	<path class="st5" d="M424.21,820.32c1.32,0.84,3.83,1.8,6.23,1.8c3.35,0,5.51-2.16,5.51-4.73c0-2.28-1.02-3.71-4.07-5.39
		c-3.35-1.86-5.21-4.37-5.21-7.36c0-5.09,4.37-8.98,10.53-8.98c2.57,0,4.91,0.72,5.99,1.44l-1.38,3.77
		c-1.02-0.6-2.82-1.32-4.97-1.32c-3.05,0-5.2,1.91-5.2,4.37c0,2.1,1.37,3.41,4.01,4.85c3.23,1.86,5.39,4.37,5.39,7.66
		c0,6.11-4.91,9.52-11.07,9.52c-3.12-0.06-5.87-0.96-7.18-1.97L424.21,820.32z"/>
	<path class="st5" d="M448.53,825.95c-1.97,0-3.29-1.56-3.29-3.53c0-2.21,1.56-4.01,3.77-4.01c2.03,0,3.35,1.55,3.35,3.59
		c0,2.22-1.55,3.95-3.77,3.95H448.53z"/>
</g>
</svg>
