<?xml version="1.0" encoding="utf-8"?>
<!-- Generator: Adobe Illustrator 25.0.1, SVG Export Plug-In . SVG Version: 6.00 Build 0)  -->
<svg version="1.1" id="Layer_1" xmlns="http://www.w3.org/2000/svg" xmlns:xlink="http://www.w3.org/1999/xlink" x="0px" y="0px"
	 viewBox="0 0 368.5 170.08" style="enable-background:new 0 0 368.5 170.08;" xml:space="preserve">
<style type="text/css">
	.st0{fill:#FFFFFF;}
	.st1{fill-rule:evenodd;clip-rule:evenodd;fill:#FFFFFF;}
</style>
<g>
	<g>
		<g>
			<path class="st0" d="M179.7,118.05c0.25-0.17,0.47-0.37,0.66-0.59c0.58-0.67,0.88-1.55,0.88-2.61c0-1.48-0.49-2.63-1.47-3.41
				c-0.95-0.77-2.29-1.16-3.99-1.16c-2.18,0-3.73,0.81-4.61,2.4c-0.5,0.88-0.76,1.96-0.76,3.2v0.37h2.69l0.01-0.35
				c0.03-0.84,0.18-1.48,0.43-1.92c0.44-0.77,1.24-1.15,2.44-1.15c0.67,0,1.24,0.19,1.74,0.57c0.47,0.36,0.7,0.86,0.7,1.54
				c0,0.92-0.35,1.54-1.06,1.89c-0.43,0.21-0.99,0.32-1.68,0.32c-0.16,0-0.3,0-0.44-0.01c-0.13-0.01-0.3-0.02-0.5-0.04l-0.4-0.04
				v2.55l0.38-0.02c0.14-0.01,0.27-0.01,0.41-0.01c1.27-0.04,2.3,0.15,2.98,0.59c0.56,0.37,0.84,1.02,0.84,1.99
				c0,0.78-0.27,1.4-0.83,1.9c-0.57,0.51-1.32,0.75-2.29,0.75c-1.23,0-2.04-0.35-2.49-1.08c-0.26-0.41-0.44-1.11-0.52-2.07
				l-0.03-0.33h-2.78v0.37c0,1.56,0.45,2.9,1.35,3.99c0.91,1.11,2.38,1.68,4.37,1.68c1.92,0,3.43-0.52,4.5-1.53
				c1.07-1.02,1.61-2.35,1.61-3.97c0-1.02-0.26-1.9-0.77-2.61C180.72,118.72,180.26,118.32,179.7,118.05z"/>
			<path class="st0" d="M198.89,122.95l-4.27-12.54h-3.68v16.48h2.77c0,0-0.01-10.58-0.03-11.34l3.88,11.34h2.64l3.85-11.37
				c0,0.04-0.02,11.37-0.02,11.37h2.77v-16.48h-3.66L198.89,122.95z"/>
			<path class="st0" d="M217.34,110.41h-2.92l-6.21,16.48h2.97l1.71-4.72h5.66l1.64,4.72h3.12l-5.89-16.24L217.34,110.41z
				 M217.7,119.71h-3.91l1.99-5.5L217.7,119.71z"/>
			<path class="st0" d="M237.95,125.11c-0.07-0.27-0.12-0.69-0.14-1.26l-0.08-2.11c-0.04-1-0.23-1.72-0.59-2.19
				c-0.23-0.31-0.54-0.57-0.92-0.8c0.48-0.34,0.88-0.74,1.18-1.21c0.43-0.66,0.64-1.5,0.64-2.51c0-1.95-0.8-3.32-2.39-4.05
				c-0.81-0.37-1.84-0.56-3.07-0.56h-7.52v16.48h2.86v-6.75h4.35c0.79,0,1.36,0.08,1.7,0.25c0.57,0.29,0.87,0.87,0.91,1.76
				l0.13,2.62c0.03,0.64,0.07,1.06,0.11,1.3c0.05,0.25,0.12,0.46,0.21,0.62l0.1,0.19h3.2v-0.96l-0.22-0.1
				C238.21,125.74,238.05,125.5,237.95,125.11z M235.15,115.23c0,0.91-0.23,1.54-0.7,1.87c-0.5,0.35-1.2,0.53-2.1,0.53h-4.43v-4.65
				h4.7c0.65,0,1.16,0.09,1.53,0.28C234.82,113.6,235.15,114.24,235.15,115.23z"/>
			<path class="st0" d="M252.13,120.68c-0.2,0.98-0.5,1.78-0.9,2.38c-0.74,1.11-1.8,1.65-3.22,1.65c-1.57,0-2.71-0.51-3.49-1.57
				c-0.79-1.08-1.2-2.52-1.2-4.27c0-2.15,0.44-3.76,1.32-4.78c0.87-1.01,1.99-1.51,3.41-1.51c1.15,0,2.05,0.27,2.67,0.8
				c0.63,0.54,1.05,1.28,1.27,2.22l0.07,0.28h2.77l-0.04-0.4c-0.13-1.42-0.77-2.7-1.92-3.81c-1.15-1.11-2.78-1.68-4.84-1.68
				c-2.41,0-4.34,0.86-5.72,2.56c-1.26,1.55-1.91,3.55-1.91,5.95c0,3.15,0.86,5.53,2.55,7.06c1.29,1.17,2.91,1.76,4.8,1.76
				c2.2,0,3.97-0.72,5.27-2.15c1.08-1.17,1.72-2.65,1.92-4.38l0.05-0.41h-2.79L252.13,120.68z"/>
			<polygon class="st0" points="267.7,116.92 260.33,116.92 260.33,110.41 257.45,110.41 257.45,126.89 260.33,126.89 
				260.33,119.53 267.7,119.53 267.7,126.89 270.58,126.89 270.58,110.41 267.7,110.41 			"/>
			<polygon class="st0" points="187.35,83.06 184.63,95.04 182.16,83.06 177.7,83.06 175.39,94.94 172.72,83.06 168.09,83.06 
				173.38,101.7 177.34,101.7 179.92,88.99 182.5,101.7 186.57,101.7 191.81,83.06 			"/>
			<rect x="194.1" y="83.06" class="st0" width="4.33" height="18.64"/>
			<polygon class="st0" points="202.38,83.06 202.38,101.7 215.75,101.7 215.75,97.87 206.74,97.87 206.74,83.06 			"/>
			<path class="st0" d="M229.67,83.47c-0.77-0.25-1.74-0.39-2.89-0.41h-8.08v18.64h8.08c2.83,0,4.95-1.18,6.31-3.51
				c0.99-1.7,1.49-3.8,1.49-6.24c0-0.96-0.12-1.99-0.35-3.05c-0.24-1.08-0.68-2.09-1.33-3.02C232.07,84.71,230.99,83.9,229.67,83.47
				z M229.6,95.53c-0.66,1.65-1.79,2.45-3.46,2.45h-3.19v-11.2h3.19c1.6,0,2.67,0.45,3.19,1.33c0.55,0.93,0.82,2.31,0.82,4.08
				C230.16,93.48,229.97,94.6,229.6,95.53z"/>
			<polygon class="st0" points="237.82,83.06 237.82,101.7 251.19,101.7 251.19,97.87 242.18,97.87 242.18,83.06 			"/>
			<rect x="253.83" y="83.06" class="st0" width="4.33" height="18.64"/>
			<polygon class="st0" points="262.11,101.7 266.45,101.7 266.45,94.13 274.44,94.13 274.44,90.41 266.45,90.41 266.45,86.84 
				275.57,86.84 275.57,83.08 262.11,83.08 			"/>
			<polygon class="st0" points="282.82,93.81 291.59,93.81 291.59,90.09 282.82,90.09 282.82,86.84 292.37,86.84 292.37,83.06 
				278.55,83.06 278.55,101.7 292.81,101.7 292.81,97.87 282.82,97.87 			"/>
			<path class="st0" d="M318.32,85.87c-0.82-1.16-1.9-1.96-3.22-2.4c-0.77-0.25-1.74-0.39-2.89-0.41h-8.08v18.64h8.08
				c2.83,0,4.95-1.18,6.31-3.51c0.99-1.7,1.49-3.8,1.49-6.24c0-0.96-0.12-1.99-0.35-3.05C319.42,87.81,318.97,86.79,318.32,85.87z
				 M315.03,95.53c-0.66,1.65-1.79,2.45-3.46,2.45h-3.19v-11.2h3.19c1.6,0,2.67,0.45,3.19,1.33c0.55,0.93,0.82,2.31,0.82,4.08
				C315.59,93.48,315.4,94.6,315.03,95.53z"/>
			<path class="st0" d="M333.18,83.06h-4.68l-6.65,18.64h4.57l1.22-3.71h6.22l1.19,3.71h4.72l-6.53-18.44L333.18,83.06z
				 M332.68,94.29h-3.82l1.93-5.86L332.68,94.29z"/>
			<polygon class="st0" points="350.47,83.06 347.06,90.52 343.51,83.06 338.38,83.06 344.83,94.71 344.83,101.7 349.19,101.7 
				349.19,94.71 355.42,83.06 			"/>
			<polygon class="st0" points="177.34,75.35 179.92,62.64 182.5,75.35 186.57,75.35 191.81,56.71 187.35,56.71 184.63,68.7 
				182.16,56.71 177.7,56.71 175.39,68.59 172.72,56.71 168.09,56.71 173.38,75.35 			"/>
			<path class="st0" d="M203.69,75.85c2.65,0,4.71-0.74,6.12-2.19c1.87-1.77,2.82-4.35,2.82-7.66c0-3.38-0.95-5.95-2.81-7.65
				c-1.42-1.46-3.47-2.2-6.13-2.2c-2.65,0-4.71,0.74-6.11,2.18c-1.88,1.71-2.84,4.29-2.84,7.66c0,3.31,0.95,5.89,2.83,7.65
				C198.98,75.11,201.04,75.85,203.69,75.85z M200.34,61.49c0.84-1.04,1.93-1.54,3.35-1.54c1.41,0,2.5,0.51,3.33,1.55
				c0.83,1.05,1.25,2.57,1.25,4.52c0,1.96-0.42,3.48-1.25,4.52c-0.83,1.04-1.92,1.54-3.33,1.54c-1.41,0-2.51-0.5-3.35-1.54
				c-0.84-1.04-1.27-2.56-1.27-4.52S199.5,62.53,200.34,61.49z"/>
			<path class="st0" d="M221.29,68.27h3.39c0.96,0,1.62,0.16,1.94,0.49c0.22,0.22,0.49,0.77,0.51,2.1l0.02,1.68
				c0.01,0.55,0.06,1.09,0.16,1.61c0.05,0.25,0.13,0.58,0.25,0.99l0.06,0.21h4.68v-0.91l-0.14-0.08c-0.3-0.18-0.48-0.45-0.56-0.84
				c-0.06-0.27-0.09-0.81-0.09-1.61v-1.21c0-1.33-0.18-2.3-0.56-2.97c-0.29-0.51-0.73-0.93-1.31-1.27c0.75-0.38,1.32-0.93,1.69-1.64
				c0.45-0.87,0.68-1.76,0.68-2.66c0-0.74-0.12-1.42-0.36-2.01c-0.23-0.58-0.55-1.12-0.95-1.6c-0.49-0.59-1.09-1.04-1.8-1.34
				c-0.7-0.3-1.69-0.47-2.96-0.49h-8.93v18.64h4.27V68.27z M221.29,60.43h3.87c0.72,0,1.26,0.09,1.6,0.28
				c0.59,0.32,0.88,0.96,0.88,1.95c0,0.9-0.3,1.48-0.9,1.77c-0.36,0.18-0.93,0.26-1.69,0.26h-3.77V60.43z"/>
			<polygon class="st0" points="250.42,71.52 241.4,71.52 241.4,56.71 237.05,56.71 237.05,75.35 250.42,75.35 			"/>
			<path class="st0" d="M268.25,71.83c0.99-1.7,1.49-3.8,1.49-6.24c0-0.96-0.12-1.99-0.35-3.05c-0.24-1.08-0.68-2.09-1.33-3.02
				c-0.82-1.16-1.9-1.96-3.22-2.4c-0.77-0.25-1.74-0.39-2.89-0.41h-8.08v18.64h8.08C264.77,75.35,266.9,74.17,268.25,71.83z
				 M264.76,69.18c-0.66,1.65-1.79,2.45-3.46,2.45h-3.19v-11.2h3.19c1.6,0,2.67,0.45,3.19,1.33c0.55,0.93,0.82,2.31,0.82,4.08
				C265.32,67.13,265.13,68.25,264.76,69.18z"/>
		</g>
	</g>
	<g>
		<path class="st1" d="M147.36,101.44c-0.57,0.17-0.86,0.28-0.87,0.28l-0.79,0.3l0.69-0.49c0.01-0.01,0.83-0.59,1.47-1.19
			c0.35-0.32,0.56-0.59,0.68-0.7c-0.11,0.08-0.26,0.21-0.41,0.34c-0.34,0.29-0.68,0.6-0.93,0.67c-0.34,0.09-0.63,0.33-0.64,0.33
			l-0.15-0.16c0.01-0.01,0.99-0.95,1.37-1.54c0.12-0.18,0.23-0.33,0.32-0.45c0.09-0.12,0.19-0.26,0.18-0.27
			c-0.18,0-0.73,0.69-0.94,0.95l-0.14,0.17c-0.25,0.3-0.47,0.47-0.48,0.48l-0.66,0.5l0.51-0.65c0.28-0.36,1.02-1.36,1.08-1.66
			c0.03-0.14,0.02-0.22,0.04-0.25c-0.02,0.02-0.07,0.06-0.14,0.17c-0.15,0.22-0.22,0.32-0.3,0.43c-0.06,0.08-0.13,0.17-0.25,0.34
			c-0.26,0.37-0.54,0.62-0.55,0.63l-0.47,0.41l0.3-0.55c0.23-0.42,0.83-1.57,0.87-1.88c0.02-0.17-0.02-0.24-0.01-0.25
			c-0.02,0-0.07,0.06-0.14,0.22c-0.17,0.48-0.4,0.97-0.4,0.97l-0.2-0.08c0.19-0.56,0.34-1.24,0.34-1.34
			c-0.06,0.04-0.18,0.31-0.26,0.59l-0.21-0.06c0.07-0.27,0.11-0.55,0.15-0.6c-0.18,0.16-0.32,0.71-0.36,0.91l-0.22-0.04
			c0.02-0.14,0.02-0.3-0.02-0.32c-0.12,0.03-0.28,0.37-0.34,0.58l-0.14,0.12l-0.13-0.13l-0.1,0.13c-0.03,0.07-0.07,0.16-0.23,0.16
			l-0.14,0.08c-0.05,0.06-0.12,0.13-0.21,0.13l-0.15-0.12l-0.03-0.03c-0.02-0.01-0.12-0.02-0.16-0.03
			c-0.16-0.02-0.22-0.07-0.29-0.08l-0.16,0.04h-0.03c-0.09,0-0.17-0.02-0.24-0.04l-0.27,0.01l-0.12-0.04l-0.03-0.03l-0.15-0.04
			c-0.03,0-0.06,0-0.08,0c-0.07,0-0.15-0.01-0.24-0.06c-0.01-0.05-0.04-0.1-0.06-0.1c0,0-0.01,0-0.01,0
			c-0.04,0.06-0.06,0.11-0.08,0.15l-0.11,0.17h-0.07c-0.07,0-0.13-0.04-0.32-0.2c-0.07-0.06-0.1-0.09-0.17-0.09
			c-0.02,0-0.03,0-0.05,0l-0.21,0.06c-0.04,0-0.09-0.01-0.28-0.04c-0.09,0-0.12,0.04-0.15,0.15c-0.03,0.11-0.12,0.17-0.35,0.17
			c-0.01,0-0.03,0-0.04,0l-0.13,0.1c-0.04,0.09-0.11,0.14-0.2,0.14l-0.26-0.05c-0.04,0-0.1,0.1-0.12,0.21l-0.04,0.15l-0.13-0.08
			c0,0-0.08-0.05-0.18-0.05l-0.15-0.05c-0.02-0.02-0.03-0.04-0.04-0.07c-0.04,0.07-0.09,0.14-0.23,0.14c-0.03,0-0.06,0-0.1-0.01
			c-0.14-0.1-0.16-0.44,0.12-2.04c0.07-0.4,0.1-0.67,0.14-0.81c-0.06,0.08-0.1,0.13-0.17,0.13l-0.14-0.09c0,0,0-0.18,0-0.23
			c-0.01,0.02-0.12,0.24-0.12,0.24c-0.15,0.32-0.36,0.75-0.33,0.89l-0.1,0.16l-0.03,0.04l-0.17,0.05l-0.01,0
			c-0.03,0.14-0.08,0.34-0.14,0.56c-0.08,0.28-0.17,0.61-0.23,0.93c-0.11,0.59-0.18,0.85-0.29,0.91c-0.01,0.01-0.14,0.12-0.32,1.01
			c-0.17,0.84-0.38,2.01-0.53,2.87l-0.19,1.01c-0.06,0.31-0.07,0.54-0.07,0.78c0,0.21-0.01,0.41-0.05,0.65
			c-0.03,0.19-0.05,0.33-0.06,0.43c-0.02,0.2-0.04,0.32-0.08,0.37c0.12,0,0.25-0.04,0.36-0.11c0.08-0.05,0.16-0.08,0.23-0.1
			c0.16-0.05,0.28-0.09,0.35-0.39l0.11-0.51l0.08-0.1l0.11,0.02c0.07,0,0.14-0.02,0.22-0.03c0.11-0.02,0.23-0.04,0.36-0.04
			c0.3,0,0.56,0.12,0.82,0.38c0.36,0.36,0.6,0.85,0.84,1.32c0.17,0.35,0.33,0.68,0.53,0.92c0.08,0.1,0.17,0.22,0.25,0.22
			c0,0,0.01,0,0.02,0c0.1,0,0.25,0.06,0.47,0.17c0.2,0.11,0.33,0.21,0.45,0.29c0.29,0.21,0.42,0.31,1.39,0.33l0.33,0.01
			c0.59,0,1.02-0.05,1.25-0.06c-0.88-0.12-0.87-0.23-0.87-0.28l0.01-0.1h0.1c0.02,0,0.1,0.01,0.28,0.05
			c0.08,0.02,0.16,0.02,0.23,0.02c0.26,0,0.38-0.11,0.27-0.19c-0.56-0.06-1.49-0.19-1.48-0.35l0.01-0.1h0.1
			c0.28,0,0.87-0.07,0.79-0.38c-0.1,0-0.25,0.05-0.38,0.08c-0.12,0.04-0.22,0.07-0.29,0.07l-0.11-0.01l-0.03-0.07
			c-0.03-0.1,0.05-0.17,0.26-0.33c0.11-0.08,0.32-0.25,0.36-0.26c-0.16,0-0.61,0.2-0.85,0.33l-0.82,0.43l0.69-0.61
			c0.33-0.29,0.69-0.66,0.76-0.69c-0.25,0-0.43,0.15-0.43,0.15l-0.47,0.41l0.3-0.55c0.21-0.39,0.43-0.87,0.5-0.92
			c-0.08,0.01-0.23,0.21-0.32,0.39l-0.2-0.08c0.07-0.22,0.14-0.48,0.21-0.64l-0.15-0.15c0.07-0.2,0.06-0.3,0.03-0.33l-0.38-0.06
			l-0.04-0.14l-0.14-0.06l-0.03-0.14l0.02-0.05c-0.13-0.02-0.22-0.06-0.27-0.13l-0.08-0.16l0.1-0.06c0.01-0.01,0.87-0.54,2.14-1.19
			c1.04-0.53,1.63-0.75,2.38-1.04l0.59-0.23c0.91-0.36,1.18-0.53,1.26-0.56c-0.04,0-0.07-0.01-0.12-0.01
			C148.21,101.2,147.83,101.31,147.36,101.44z"/>
		<path class="st1" d="M151.66,83.46c-0.91,0.02-3.08-0.18-3.17-0.19l-0.1-0.01v-0.1c0-0.33,0.1-0.6,0.31-0.8
			c0.53-0.53,1.64-0.52,2.61-0.51c0.64,0.01,1.26,0.01,1.51-0.15c0.47-0.3,0.69-0.73,0.58-1.15c-0.11-0.42-0.51-0.71-1.01-0.73
			c-4.05-0.19-6.4,0.86-6.93,3.12c-0.03,0.14-0.05,0.21-0.09,0.26l-0.03,0.03l-0.04,0c-1.23,0.11-5.99-0.02-6.19-0.02l-0.07,0
			L139,83.13c-0.15-0.33,0-0.62,0.11-0.81c0.03-0.06,0.06-0.11,0.07-0.15c0.12-0.46,1.01-0.87,2.04-1.35
			c1.39-0.64,2.97-1.37,2.76-2.29c-0.11-0.53-0.78-0.6-1.14-0.58c-3.65,0.32-6.42,3.5-6.71,4.13c-0.09,0.21-0.15,0.43-0.2,0.64
			c-0.08,0.32-0.16,0.66-0.38,0.97l-0.03,0.05h-0.06c-0.04,0-3.89-0.06-5.48-0.03c-0.11-5.11-1.05-10.23-2.86-15.12
			c0,0,0.01,0,0.01,0c0.12,0,0.21,0.03,0.29,0.1c0.17,0.13,0.26,0.36,0.36,0.57c0.06,0.13,0.12,0.26,0.18,0.35
			c0.09,0.12,0.26,0.24,0.34,0.25c-0.01-0.02,0.02-0.13-0.03-0.44c-0.07-0.43-0.13-0.71-0.17-0.93c-0.08-0.36-0.12-0.56-0.1-0.92
			c0.02-0.52,0.37-0.56,0.48-0.56c0,0,0,0,0,0c0.09-0.33,0.34-0.75,0.89-0.88l0.12-0.03l0.09,0.09c1.08,1.07,2.65,2.66,3.85,4.2
			c0.27,0.34,0.54,0.62,0.83,0.92c0.33,0.33,0.66,0.67,0.97,1.09c0.25,0.33,0.62,0.54,1.01,0.76c0.39,0.22,0.8,0.44,1.1,0.81
			c0.03,0.04,0.08,0.11,0.14,0.2c0.13,0.19,0.51,0.75,0.7,0.75c0.03,0,0.09-0.06,0.16-0.24c0.14-0.41-0.14-0.72-0.55-1.11
			c-0.14-0.13-0.27-0.26-0.35-0.38c-0.23-0.33-0.26-0.55-0.3-0.81c-0.02-0.11-0.04-0.24-0.08-0.39c-0.13-0.49-0.35-0.74-0.64-1.1
			c-0.29-0.35-0.14-0.56-0.05-0.67c0.06-0.08,0.09-0.12,0.06-0.24l-0.04-0.15l0.13-0.09c0.09-0.06,0.16-0.13,0.17-0.15l0.17,0.11
			l0.03-0.03l0.16-0.15c0.25,0.25,0.42,0.3,0.77,0.38c0.08,0.02,0.17,0.04,0.28,0.07l0.15,0.04l0.01,0.11
			c0.15-0.04,0.3-0.06,0.44-0.06c0.55,0,1.02,0.27,1.32,0.75c0,0,0,0,0.01,0c0.11-0.06,0.19-0.11,0.26-0.22l0.2-0.31l0.17,0.33
			c0.01,0.01,0.01,0.02,0.02,0.03c0-0.01,0.01-0.01,0.02-0.02c0.04-0.05,0.09-0.11,0.12-0.16c0.03-0.06,0.11-0.12,0.28-0.12h0.12
			l0.08,0.08l0.16-0.26l0.17,0.22c0.11-0.09,0.2-0.16,0.29-0.3l0.23-0.1l0.17,0.2c0.03,0.37,0.21,0.57,0.51,0.57
			c0.28,0,0.69-0.2,0.97-0.65l0.17-0.2c0.01-0.04,0.08-0.19,0.04-0.27c-0.11-0.2-0.72-0.25-1.18-0.29c-0.34-0.03-0.66-0.06-0.9-0.13
			c-1.41-0.43-2.28-0.8-3.12-1.61c-1.39-1.37-2.57-2.25-3-2.25c-0.03,0-0.05,0-0.06,0.01l-0.15,0.1l-0.13-0.13
			c-0.6-0.61-0.64-0.67-0.92-1.17c-0.07-0.12-0.15-0.26-0.26-0.45l-0.8-1.37l0.52,0.5c-0.12-0.29-0.26-0.62-0.39-0.96
			c-0.23-0.56-0.46-1.13-0.63-1.51c-0.09-0.21-0.18-0.43-0.27-0.64c-0.55-1.33-1.11-2.71-3.47-5.13c-1.67-1.72-1.79-1.81-2.91-2.67
			c-0.23-0.17-0.49-0.38-0.81-0.63l-0.27-0.33c-0.29-0.35-0.66-0.81-0.89-1.06c-0.02,0.04-0.04,0.09-0.07,0.14
			c-0.04,0.09-0.08,0.19-0.14,0.29l-0.11,0.17l-0.18-0.09c-0.08-0.04-0.17-0.09-0.25-0.14l-0.03-0.02l-0.03-0.03
			c-0.16-0.18-0.29-0.4-0.43-0.6c-0.16-0.24-0.31-0.47-0.46-0.62c-0.07,0.06-0.15,0.12-0.22,0.19c-0.05,0.05-0.11,0.09-0.16,0.14
			l-0.11,0.09l-0.13-0.07c-0.21-0.11-0.42-0.21-0.63-0.3l-0.06-0.03l-0.04-0.05c-0.06-0.09-0.11-0.17-0.16-0.26
			c-0.12-0.2-0.24-0.39-0.4-0.55c-0.16,0.14-0.33,0.27-0.5,0.39l-0.12,0.08l-0.12-0.08c-0.3-0.19-0.44-0.56-0.57-0.88
			c-0.02-0.06-0.04-0.11-0.07-0.16c-0.06,0.05-0.11,0.1-0.17,0.15c-0.12,0.11-0.25,0.22-0.38,0.31l-0.12,0.08l-0.12-0.08
			c-0.67-0.43-0.56-0.97-0.45-1.44c0-0.02,0.01-0.04,0.01-0.06c-0.01,0-0.02,0.01-0.03,0.01c-0.15,0.04-0.31,0.09-0.49,0.09
			c-0.14,0-0.26-0.03-0.38-0.09l-0.13-0.07l0.01-0.14c0-0.06,0.01-0.13,0.02-0.2c0.02-0.19,0.08-0.57-0.02-0.66
			c-0.03-0.03-0.07-0.04-0.18-0.04l-0.09,0l-0.11,0c-0.05,0-0.11,0-0.16-0.01l-0.13-0.02l-0.05-0.12c-0.04-0.09-0.09-0.2-0.16-0.28
			l-0.18-0.19l0.22-0.14c0.17-0.11,0.36-0.16,0.57-0.16c0.21,0,0.42,0.06,0.61,0.11c0.16,0.04,0.32,0.09,0.46,0.09l0.12,0
			c0.48,0,0.8-0.11,1.28-0.44c0.74-0.52,0.89-1.19,1.05-1.9l0.01-0.04l0.02-0.03c0.06-0.09,0.11-0.18,0.15-0.28
			c-0.11,0.08-0.21,0.16-0.32,0.23l-0.17,0.12l-0.11-0.14c-0.2,0.22-0.44,0.41-0.5,0.46c-0.08,0.04-0.11,0.06-0.15,0.07l-0.2,0.07
			l-0.09-0.19l-0.03-0.06c-0.02-0.05-0.05-0.11-0.07-0.18c-0.09,0.05-0.19,0.13-0.29,0.2c-0.14,0.11-0.29,0.22-0.46,0.3l-0.04,0.02
			h-0.05h-0.06l-0.06-0.03c-0.2-0.12-0.2-0.3-0.16-0.44c-0.07,0.05-0.14,0.09-0.23,0.13c-0.11,0.05-0.22,0.08-0.31,0.08h-0.01
			l-0.05,0c-0.06-0.01-0.09-0.03-0.13-0.04l-0.05-0.02l-0.07-0.05c-0.03-0.03-0.08-0.1-0.08-0.2c-0.08,0.02-0.16,0.05-0.24,0.08
			l-0.06,0.02l-0.07-0.02c-0.14-0.04-0.26-0.06-0.39-0.07c-0.05,0-0.1,0-0.15,0c-1.2,0-1.47,0.85-1.79,2.23l-0.02,0.1
			c-0.35,1.47,0.06,2.82,1.14,3.8c1.7,1.55,2.85,2.14,3.77,2.61c1.1,0.56,1.9,0.97,2.89,2.55c0.13,0.21,0.16,0.4,0.1,0.57
			c-0.12,0.34-0.54,0.49-0.98,0.65c-0.33,0.12-0.66,0.24-0.86,0.42c-0.26,0.23,0.13,1.34,0.39,2.05c-0.66-0.85-1.33-1.68-2.02-2.48
			c-2.15-2.58-4.82-5.32-7.81-7.67c-1.28-1.02-2.62-1.94-3.97-2.79c0-0.01,0-0.02,0.01-0.03l0,0.01c0.12-0.14,0.29-0.27,0.45-0.39
			c0.12-0.08,0.23-0.17,0.33-0.26c0.38-0.34,0.78-0.66,1.17-0.96c0.34-0.27,0.7-0.55,1.03-0.84c0.31-0.27,0.62-0.52,0.93-0.78
			c0.43-0.36,0.88-0.73,1.31-1.12c0.29-0.27,0.59-0.57,0.87-0.87c0.25-0.26,0.49-0.5,0.72-0.73c0.11-0.11,0.17-0.21,0.23-0.34
			c0.02-0.04,0.05-0.08,0.07-0.13c0.18-0.3,0.4-0.57,0.62-0.83c0.09-0.11,0.19-0.22,0.28-0.33c0.41-0.51,0.63-0.98,0.88-1.62
			c0.09-0.22,0.18-0.42,0.27-0.62c0.14-0.3,0.29-0.62,0.39-0.96c0.06-0.2,0.12-0.4,0.18-0.61c0.14-0.49,0.29-1,0.49-1.47
			c-0.27,0.2-0.56,0.37-0.84,0.54c-0.28,0.17-0.57,0.34-0.83,0.53c-0.57,0.42-1.09,0.96-1.58,1.49c-0.23,0.24-0.46,0.49-0.69,0.72
			c-1.24,1.23-2.41,2.54-3.38,3.65l-0.21,0.24c-0.55,0.63-1.12,1.27-1.48,1.98c-0.23,0.46-0.42,0.95-0.6,1.44
			c0.18-0.61,0.51-1.67,0.7-2.13c0.29-0.69,1.62-2.5,2.09-3.3c0.78-1.3,1.64-2.95,1.99-4.57c0.47-0.08,0.96-0.35,1.13-0.94
			l0.04-0.14l0.15-0.02h0c0.21,0,0.43,0.19,0.56,0.35c0.09,0.11,0.15,0.22,0.19,0.33c0.03-0.03,0.06-0.06,0.09-0.1
			c0.07-0.08,0.14-0.31,0.14-0.45c-0.01-0.26-0.16-0.57-0.45-0.9l-0.2-0.23l0.23-0.09c0.12-0.18,0.32-0.47,0.7-0.61
			c0.06-0.02,0.14-0.07,0.21-0.11c0.19-0.1,0.4-0.22,0.64-0.23c0.19,0,0.34,0.09,0.46,0.18c-0.06-0.53-0.32-1.06-0.59-1.41
			c-0.33-0.43-0.74-0.52-1.01-0.58c-0.1-0.02-0.18-0.04-0.24-0.07c-0.09-0.04-0.17-0.06-0.25-0.06c-0.16,0-0.32,0.08-0.51,0.17
			l-0.1,0.05l-0.44,0.21l0.14-0.47c0.04-0.13,0.09-0.27,0.13-0.41c0.11-0.31,0.21-0.61,0.21-0.9c0-0.16-0.04-0.33-0.08-0.51
			l-0.03-0.14c-0.02-0.07-0.03-0.14-0.04-0.22c-0.03-0.18-0.06-0.34-0.12-0.5c-0.01-0.02-0.05-0.13-0.09-0.13
			c-0.09,0-0.28,0.15-0.41,0.35c-0.21,0.33-0.46,1.16-0.46,1.29c0,0.34-0.01,1.03-0.01,1.03l-0.01,0.43l-0.34-0.26
			c-0.27-0.21-1.03-0.55-1.35-0.55c-0.48,0.01-0.88,0.47-1.15,0.78c-0.07,0.08-0.14,0.15-0.19,0.21c-0.11,0.11-0.16,0.25-0.21,0.42
			c0.06-0.01,0.12-0.02,0.19-0.02c0.08,0,0.15,0.01,0.24,0.03c0.35,0.07,0.59,0.26,0.82,0.45l0.06,0.05
			c0.17,0.14,0.45,0.54,0.5,0.62l0.14,0.22l-0.24,0.11c-0.2,0.09-0.77,0.35-0.91,0.43c-0.17,0.09-0.41,0.27-0.51,0.4
			c-0.07,0.1-0.12,0.32-0.12,0.65c0,0.09,0.04,0.22,0.1,0.3c0.26-0.29,0.77-0.67,0.98-0.75l0.29-0.11l0,0.31
			c0,0.08-0.01,0.16-0.03,0.24c-0.02,0.08-0.03,0.14-0.02,0.19c0.03,0.18,0.1,0.34,0.18,0.44c0.07,0.09,0.17,0.18,0.27,0.26
			l0.07,0.06c0.05,0.04,0.1,0.09,0.15,0.12c0.05-0.11,0.1-0.21,0.19-0.31c0.05-0.06,0.11-0.11,0.17-0.16
			c0.08-0.07,0.15-0.13,0.19-0.2l0.18-0.27l0.05,0.08c-0.02,0.13-0.04,0.26-0.05,0.4c-0.08,0.82-0.29,1.61-0.59,2.38
			c-0.5,1.26-1.21,2.41-1.96,3.53c-0.64,0.95-1.33,1.88-1.76,2.94c-0.19,0.45-0.33,0.91-0.45,1.37L107,41.59
			c0.14-1.14,0.53-2.27,0.9-3.36c0.22-0.64,0.44-1.3,0.62-1.94l0.06-0.23c0.28-1.03,0.63-2.32,0.28-3.33
			c-0.12-0.35-0.51-0.55-0.88-0.74c-0.05-0.03-0.1-0.05-0.15-0.08c0.13,0.63-0.28,1.45-0.63,2.12c-0.18,0.35-0.34,0.67-0.4,0.91
			c-0.59,2.32-1.22,5.39-0.88,8.59l0.03,0.27c-1.51-0.9-3.01-1.69-4.46-2.33c0.18,0.83-3.42-0.22-6.79-0.55
			c-0.13-0.01-0.25-0.03-0.37-0.04c-0.05-0.13-0.1-0.24-0.13-0.41l-0.11-0.57l0.46,0.36c0.2,0.16,0.29,0.17,0.74,0.25l0.28,0.05
			c0.09,0.01,0.16,0.02,0.23,0.02c0.24,0,0.27-0.07,0.36-0.39l0.03-0.08c0.05-0.18,0.02-0.28-0.04-0.49
			c-0.05-0.17-0.11-0.37-0.14-0.67c-0.05-0.47,0.17-0.8,0.48-1.26c0.23-0.34,0.51-0.76,0.81-1.39c0.61-1.28,0.55-2.37-0.18-3.42
			c-0.16-0.23-0.42-0.57-0.74-0.99c-0.97-1.26-2.59-3.37-3.73-5.53c-1.14-2.18-0.55-2.86-0.19-3.28c0.11-0.13,0.16-0.19,0.15-0.25
			c-0.11-0.57,0.17-0.85,0.43-1.13c0.06-0.06,0.12-0.12,0.17-0.19c0.1-0.11,0.21-0.23,0.36-0.23c0.1,0,0.17,0.05,0.21,0.08
			c0.02,0.01,0.04,0.01,0.06,0.01c0.03,0,0.05-0.01,0.09-0.02c0.07-0.03,0.13-0.05,0.18-0.07c0.13-0.05,0.24-0.1,0.38-0.1
			c0.19,0,0.38,0.09,0.7,0.26c0.18,0.1,0.24,0.11,0.25,0.11c-0.01,0,0.02-0.04,0.05-0.07c0.1-0.12,0.27-0.32,0.65-0.52
			c0.21-0.12,0.33-0.25,0.36-0.39c0.04-0.2-0.1-0.39-0.1-0.4l-0.25-0.34l0.42-0.02c0.01,0,0.77-0.03,2.25-0.24
			c0.38-0.05,0.7-0.08,0.97-0.08c0.39,0,0.64,0.05,0.9,0.11c0.2,0.04,0.4,0.09,0.69,0.11c0.15,0.01,0.27,0.03,0.36,0.04
			c-0.03-0.08-0.06-0.17-0.09-0.29c-0.19-0.72-0.99-2.03-1-2.04L101,17.2c0,0.01,0.43,0.61,1.05,0.89c0.13,0.06,0.26,0.08,0.39,0.08
			c0.24,0,0.49-0.1,0.75-0.29l0.09-0.07l0.11,0.04c0.03,0.01,2.5,0.91,4.67,0.93c0.83,0,2.65-0.48,3.77-0.99
			c0.39-0.18,0.46-0.38,0.44-0.43l-2.03,0.49l-1.16-0.02l1.02-0.39c0.48-0.24,0.92-0.54,1.37-0.94c0.8-0.71,1.12-1.24,1.11-1.36
			c-0.01-0.04-0.02-0.07-0.02-0.09c-0.04,0.02-0.1,0.06-0.22,0.16l-0.29-0.33c0.66-0.59,1.15-1.15,1.4-1.58
			c0.83-1.46,0-4.37-1.25-5.55c-0.82-0.77-1.21-1.58-1.09-2.21c0.06-0.3,0.24-0.53,0.49-0.63c0.08-0.03,0.16-0.06,0.23-0.09
			c0.11-0.04,0.25-0.09,0.27-0.12h0c0,0,0-0.04-0.04-0.15c-0.06-0.15-0.23-0.27-0.42-0.41c-0.2-0.14-0.42-0.3-0.53-0.53
			c-0.26,0.26-0.76,1.11-1,2.15c-0.32,1.44,0.2,2.21,0.93,3.26c0.69,1.02,0.66,1.59,0.63,2.25l-0.01,0.24
			c-0.03,0.89-0.64,1.03-1.28,1.17l-0.13,0.03c-0.34,0.08-0.35,0.11-0.36,0.23c-0.01,0.09-0.03,0.21-0.09,0.35
			c-0.11,0.25-0.28,0.38-0.49,0.38c-0.21,0-0.43-0.13-0.73-0.35c-0.08-0.06-0.15-0.11-0.2-0.15c-0.14,0.16-0.32,0.25-0.51,0.25
			c-0.18,0-0.35-0.08-0.51-0.23c0,0-0.01-0.01-0.01-0.01c-0.02,0-0.04,0.03-0.05,0.04c-0.06,0.06-0.14,0.15-0.26,0.15
			c-0.05,0-0.15-0.02-0.23-0.13l-0.05-0.08c-0.07,0.02-0.26,0.06-0.42,0.1c-0.21,0.05-0.31,0.07-0.39,0.07
			c-0.26,0-0.3-0.22-0.31-0.29c-0.01-0.06-0.02-0.12-0.08-0.22c-0.01-0.03-0.03-0.05-0.03-0.06c-0.01,0.01-0.02,0.02-0.03,0.02
			c-0.07,0.05-0.16,0.11-0.29,0.16c-0.11,0.04-0.18,0.06-0.25,0.06h-0.09l-0.11-0.08c-0.09-0.09-0.09-0.21-0.09-0.34
			c0-0.07,0-0.15-0.01-0.26c-0.01,0.01-0.03,0.01-0.04,0.02c-0.08,0.04-0.16,0.07-0.25,0.07c-0.1,0-0.18-0.05-0.23-0.12
			c-0.05,0.01-0.1,0.03-0.16,0.03c-0.24,0-0.34-0.23-0.39-0.34c-0.01,0-0.03,0-0.04,0c-0.23,0-0.33-0.09-0.37-0.18
			c-0.01,0-0.02,0-0.02,0.01l-0.06,0.01c-0.04,0.01-0.08,0.01-0.11,0.01c-0.24,0-0.39-0.13-1.22-0.86
			c-0.39-0.34-0.93-0.82-1.71-1.48c-1.05-0.9-2.29-1.33-3.8-1.33c-1.31,0-2.62,0.31-4.08,0.69c-1.48,0.38-2.35,0.53-3.09,0.53
			c-0.65,0-1.2-0.12-1.85-0.27C87,9.07,86.77,9.05,86.54,9.05c-1.22,0-2.61,0.75-4.52,2.43c-2.18,1.91-3.29,2.17-5.96,2.8
			l-0.65,0.15c-1.17,0.27-2.16,0.4-3.12,0.4c-0.34,0-0.63-0.02-0.9-0.03c-0.21-0.01-0.4-0.02-0.59-0.02c-0.26,0-0.47,0.02-0.67,0.07
			c-0.01,0-1.52,0.44-3.31,2.22c-0.41,0.41-0.87,0.83-1.31,1.23c-1.55,1.43-3.15,2.9-3.39,4.49c-0.1,0.7-0.36,1.26-0.58,1.76
			c-0.2,0.45-0.39,0.87-0.44,1.33c-0.15,1.2-0.05,2.39,0.08,3.78c0.07,0.83,0.15,1.69,0.18,2.62c0.03,1.21,0.24,2.01,0.54,3.12
			c0.11,0.42,0.23,0.88,0.36,1.42c0.34,1.43,0.45,2.44,0.53,3.17c0.03,0.28,0.06,0.53,0.09,0.75c0.08,0.49,0.05,0.78,0.03,1.01
			c-0.01,0.14-0.02,0.25,0,0.37c0.02-0.03,0.05-0.07,0.08-0.12l0.8-1.26l-0.4,1.44c-0.18,1.04-0.26,2.55-0.22,3.32
			c0.03,0.58,0.14,1.02,0.25,1.45c0.04,0.14,0.07,0.27,0.1,0.41c0.08,0.31-0.02,0.79-0.13,1.35c-0.12,0.57-0.25,1.22-0.13,1.54
			c0,0.01,0.06-0.03,0.06,0.01c0,0.1,0.03,0.15,0.07,0.18c-0.79,0.46-1.58,0.94-2.3,1.43c-1.78,1.18-3.18,2.36-3.6,2.91
			c-0.75,0.95,0.44,0.12,1.47-0.48c0.51-0.31,1.01-0.59,1.34-0.72c1.89-1.36,3.91-2.56,6.01-3.61c2.45,6.19,5.17,12.22,7.98,18.2
			c1.4,3,2.85,5.97,4.32,8.93c-0.34,0.18-0.66,0.38-1,0.56c-3.21,1.67-6.54,3.18-9.94,4.41c-3.38,1.28-6.85,2.26-10.36,3.03
			c-0.72-2.04-1.35-4.12-1.89-6.23c-1.88-7.8-2.6-16.14-0.3-24.15c-1.83,3.73-2.69,7.95-2.98,12.14c-0.26,4.21,0.06,8.46,0.84,12.6
			c0.39,2.08,0.89,4.14,1.49,6.16c-3.56,0.59-7.18,0.87-10.8,0.72c-0.03-0.6-0.05-1.21-0.05-1.82c0-4.14,0.72-8.12,2.03-11.85
			c0.16-0.98,0.35-1.97,0.59-2.94c-0.81,1.57-1.45,3.08-1.98,4.43c0.84-3.81,2.42-7.37,2.86-8.81c1.61-3.84,2.01-4.72,1.36-4.47
			c-0.62,0.26-2.02,1.8-3.19,3.11c-1.42,2.05-0.62-1.29-2.59,2.12c1.13-2.6,1.79-3.87,3.27-6.29c-0.09-0.25-1.21,1.65-2.06,3.44
			c-0.88,1.78-1.52,3.44-1.45,2.4c1.2-2.48,2.45-5.32,4.1-7.69c-0.51,0.25-1.94,2.32-3.03,4.38c-1.12,2.04-1.94,4.04-2.1,3.73
			c0.23-0.76,1.2-2.58,2.21-4.21c0.99-1.64,2-3.1,1.88-3.53c-0.06-0.17-1.64,2.3-2.3,3.61c2-4.05,4.06-6.92,4.7-8.14
			c0.69-1.19-0.2-0.9-2.99,2.34c1.69-2.44,4.63-5.41,6.87-7.54l-0.02,0.01c-0.86,0.75-2.16,1.96-3.15,2.98
			c0.9-0.98,1.82-1.93,2.79-2.83c-0.27,0.13-0.56,0.27-0.86,0.44c-1.01,0.87-1.98,1.79-2.9,2.84c0.78-0.89,1.59-1.75,2.44-2.58
			c-0.78,0.47-1.64,1.07-2.54,1.79c-3.17,2.9-5.94,6.14-7.07,8.22c-1.57,2.75-2.83,5.66-3.82,8.67c-2.61-0.51-5.48-1.04-7.68-2.46
			c-1.15-0.74-1.79-1.96-3.14-2.24c-0.96-1.92-0.31-4.47-0.46-6.7c0.42-0.48,0.46-0.43,0.72-0.82c-0.09-0.96,0.06-1.63-0.45-2.16
			c0.1-0.17,0.06-0.3-0.07-0.39c0.28-1.17,0.95-1.64,1.24-2.81c-0.17-0.09-0.24-0.88-0.43-0.52c0.15-0.17,0.08-1.63,0.46-1.82
			c-0.1-0.37-0.93-0.47-0.44-1.07c0.42,0.07,0.27,0.36,0.19,0.62c1.01,0.07-0.32-0.91,0.66-0.66c0.12-0.4-0.6-0.26-0.61-0.05
			c-0.38-0.43,0.85-1.05,0.41-1.66c-0.72,0.71-2.15-0.17-2.18,1.38c-0.39-0.57-1.36,0.85-2.01-0.19c-0.06,0.69,0.18,0.74-0.29,1.35
			c-1.67,1.23-2.14,4.62-4.06,5.4c-0.41,1.22-1.02,2.05-1.67,2.84c0.42,1.93-1.99,4.24-2.71,6.8c-0.06,0.25,0.17,0.66,0.08,0.94
			c-0.57,1.6-1.58,3.15-1.95,4.73c-0.16,0.68,0.2,1.66,0.1,2.57c-0.03,0.28-0.27,0.52-0.29,0.8c-0.04,0.66,0.2,1.53,0.03,2.19
			c-0.06,0.22-0.45,0.49-0.48,0.74c-0.18,1.38,0.24,2.71-0.19,3.92c-0.08,0.21-0.43,0.49-0.48,0.73c-0.2,1.07,0.36,2.28-0.13,3.22
			c1.02,0.59,1.04-1.58,1.58-0.33c0.14-1.27,0.63-1.22,1.56-1.42c-0.08-0.61,0.55-1.49,0.34-2.05c0.97-0.45,1.21-2.24,2.34-2.41
			c0.81,0.01-0.19,0.72,0.31,0.85c0.65-0.17,0.01-1-0.38-1.23c0.46-1.34,1.32-2.01,2.15-3.02c0.86-1.05,1.37-1.76,2.21-2.63
			c0.99-1.01,1.12-1.24,2.35-1.86c1.42-0.71,1.99-0.43,4.13-0.48c0.78-0.02,1.58-0.34,2.19-0.28c2.01,0.2,4.09,1.36,6.37,2.41
			c-1.53,5.46-2.13,11.2-1.69,16.89c0.07,0.89,0.18,1.77,0.3,2.65c-0.05,0.03-0.12,0.07-0.16,0.11c-0.11,0.11-1.8,1.17-1.98,1.26
			c-0.1,0.05-0.28,0.16-0.46,0.28c-0.38,0.24-0.51,0.31-0.58,0.32c-0.08,0.01-0.3,0.09-0.56,0.2c-0.2,0.09-1.17,0.99-1.35,1.18
			c-0.13,0.14-1.09,1.07-1.38,1.18c-0.23,0.09-0.45,0.35-0.46,0.35l-0.09,0.04l-0.07-0.02l-0.09-0.14l0-0.03l-0.15,0.01l0-0.12
			h-0.02L27.2,94.6l-0.13-0.25l0-0.12l-0.02,0.01h-0.08l-0.01-0.02c-0.02,0.01-0.04,0.02-0.06,0.02l-0.1-0.18c0-0.01,0-0.02,0-0.04
			l-0.09-0.07h-0.04l-0.08-0.15l-0.22,0.13l0.06-0.25l-0.01,0l-0.09,0.03h-0.07c-0.03-0.04-0.05-0.09-0.05-0.15
			c-0.03,0.01-0.06,0.03-0.09,0.04l-0.19-0.03h-0.04l-0.03-0.14c0,0,0.04-0.08,0.04-0.1l-0.06,0l0-0.03
			c-0.05,0.04-0.1,0.08-0.15,0.11l-0.08-0.05c-0.04,0.02-0.09,0.03-0.14,0.04l-0.11-0.01c0,0-0.02-0.1-0.03-0.11
			c-0.04,0.02-0.1,0.04-0.18,0.04c-0.05,0-0.11-0.01-0.17-0.04l0.01-0.04c0,0-0.01,0-0.01,0c-0.04,0-0.07-0.01-0.11-0.02l0-0.01
			c-0.09,0.03-0.2,0.04-0.22,0.04l-0.5,0.01l0.06-0.03l-0.07,0.01l0.12-0.1l-0.17,0.02l0.03-0.02l-0.11,0.01l0.04-0.03l-0.61,0.09
			l0.6-0.24l0.01-0.02l-0.04,0l0.01-0.02l-0.11,0L23.75,93l0.06-0.08l-0.21,0.06l0.2-0.18l-0.08-0.01l-0.25,0.04l0.07-0.06
			l-0.25,0.03l0.25-0.16l-0.29,0l0.04-0.02l-0.04,0l0.05-0.03l-0.3-0.02l0.1-0.04l-0.04,0l0.08-0.04h-0.08l0.01-0.01l-0.14,0
			l0.02-0.01l-0.21,0.01l0.22-0.13l0.01-0.01l-0.13-0.02l-0.26,0.03l0.18-0.13c-0.16-0.07-2.85-1.32-4.65-1.33
			c-0.2-0.02-0.44-0.06-0.49-0.07l-0.21-0.06l0.01-0.09c0-0.07-0.05-0.73-0.11-1.36c0.11-0.4,0.04-0.53-0.11-0.76l-0.14,0.07
			l-0.02-0.15c-0.02-0.12-0.05-0.21-0.14-0.21c-0.01,0-0.02,0-0.04,0c-0.05,0.02-0.12,0.1-0.16,0.15l-0.23,0.21l-0.06-0.2
			c-0.04,0.02-0.19,0.17-0.3,0.3c-0.02,0.03-0.06,0.09-0.11,0.18c-0.13,0.22-0.31,0.52-0.47,0.64c-0.05,0.04-0.14,0.21-0.21,0.35
			c-0.15,0.3-0.29,0.58-0.6,0.58c-0.02,0-0.05,0-0.07,0c-0.18-0.13-0.72-0.17-1.04-0.2c-0.05,0-0.09-0.01-0.13-0.01
			c0.23,0.11,0.55,0.31,0.66,0.46c0.09,0.13,0.37,0.3,0.47,0.35l0.08,0.11l-0.03,0.09l0.06,0.14l-0.15,0.01
			c-0.59,0.04-1.25,0.11-1.33,0.15c-0.06,0.04-0.14,0.16-0.12,0.16c0,0,0.01,0,0.01-0.01l0.19,0.04c0.67,0.13,1.15,0.24,1.28,0.31
			c0.21,0.11,0.44,0.21,0.62,0.26l0.17,0.06c0.19,0.07,0.44,0.16,0.87,0.16c0,0,0,0,0,0c0.23,0,0.59,0.01,1.02,0.04
			c0.03,0,0.12,0.02,0.23,0.06l0.12-0.04l0.06,0.01c0.03,0.02,0.07,0.04,0.11,0.07l0.01-0.06l0.26,0.05l0.13,0.09
			c0.02-0.02,0.05-0.04,0.08-0.06l0.15,0.05c0.02,0.02,0.04,0.04,0.06,0.06c0.03-0.02,0.06-0.04,0.1-0.04l0.15,0.02
			c0.92,0.22,1.64,0.56,2.07,0.8c0.55,0.33,0.65,0.53,0.67,0.63l0.1,0.03c0,0,0.07,0.2,0.09,0.26c0,0,0.11,0.02,0.11,0.02l0.03,0.07
			c0,0,0.07,0.21,0.06,0.38l0.07,0c0.07,0.11,0.09,0.29-0.01,0.41c-0.01,0.02-0.02,0.05-0.03,0.09c0,0,0,0,0,0
			c0.04,0,0.08,0.01,0.12,0.03c0.12,0.14,0.03,0.62-0.06,0.74c-0.03,0.04-0.04,0.19-0.04,0.34c0.01,0,0.07,0,0.1,0
			c0.06,0.08,0.02,0.3-0.03,0.47c-0.03,0.12-0.05,0.24-0.04,0.28c0.02,0.08,0.08,0.48,0.09,0.57l0.01,0.15
			c0.02,0.28,0.06,0.94,0.15,1.24c0.06,0.63,0.15,1.61,0.2,1.81c0.03,0.13,0.08,0.29,0.05,0.48h0.06c0.02,0.04,0.05,0.12,0.13,0.5
			c0,0.02,0.04,0.21,0.09,0.46c0.11,0.55,0.28,1.4,0.29,1.47c0.02,0.03,0.03,0.08,0.09,0.29c-0.02,0.08-0.03,0.26,0,0.38
			c0.07,0.21,0.1,0.41,0.09,0.47c0,0-0.01,0.01-0.01,0.04c0.03-0.01,0.07-0.02,0.12-0.02c0.01,0,0.02,0,0.03,0
			c0.05,0.06,0.04,0.14,0.03,0.27c0.1,0.01,0.15,0.1,0.2,0.18l0.09,0.12c0.08,0.19,0.16,0.36,0.24,0.49
			c0.44,0.68,1.39,1.87,1.81,2.11c0.26,0.13,0.58,0.28,0.64,0.29c0.07,0.01,0.15,0.04,0.22,0.07c0.08,0.03,0.15,0.06,0.25,0.06
			c0,0,0,0,0,0c0.07,0,0.14,0.01,0.21,0.02c0.06,0.01,0.12,0.02,0.17,0.02l0.05-0.01c0.1-0.02,0.21-0.03,0.31-0.04l0.19-0.01
			c0.06,0,0.11,0.01,0.19,0.03l-0.03-0.06l0.03-0.06c0.04-0.08,0.13-0.08,0.25-0.1c0.04-0.01,0.1-0.03,0.17-0.05l0.06-0.2
			c0.04,0.01,0.17,0.04,0.25,0.04l0.06-0.01l-0.06,0l0.1-0.16c0.05-0.09,0.35-0.12,0.37-0.13c0.03-0.04,0.09-0.1,0.23-0.1
			c0.01,0,0.02,0,0.03,0c0.03,0.01,0.05,0.02,0.07,0.02c-0.02-0.06-0.02-0.11,0.01-0.15l0.13-0.07c0,0,0.32,0.01,0.32,0.01
			l0.01-0.07l0.08-0.1l0.1,0l0.4-0.02c0.04,0,0.08,0.01,0.13,0.03l-0.26-0.17l0.66,0.01c0.02,0,0.14,0.01,0.26,0.04l-0.24-0.28
			l0.47,0.23c0.08,0.04,0.17,0.07,0.24,0.07c0.02,0,0.04,0,0.06-0.01c0.06-0.03,0.12-0.07,0.24-0.07c0.01,0,0.02,0,0.03,0
			c0.07,0.02,0.14,0.05,0.22,0.15l-0.05-0.07h0.22l0.13,0.06l0.03,0.02c0.06,0.04,0.13,0.09,0.16,0.11l0.2,0.13
			c0.1,0.01,0.21,0.07,0.38,0.18l0.14,0.1c0.07,0.05,0.19,0.13,0.21,0.14c0.05,0,0.14,0.03,0.36,0.12l0.14,0.05
			c0.05,0.02,0.1,0.06,0.16,0.11c0.08,0.07,0.18,0.15,0.29,0.15c0,0,0,0,0.01,0c0.22-0.06,3.16-0.53,3.97-0.58
			c0.41-0.02,0.61-0.02,0.73-0.02l0.21-0.01c0.09-0.01,0.13-0.05,0.22-0.12c0.05-0.05,0.19-0.1,0.76-0.23
			c0-0.02,0.02-0.06,0.03-0.08c1.22,2.13,2.61,4.18,4.14,6.09c0.21-0.13-0.23-1.07,0.85,0.09c1.84,2,3.41,3.91,5.16,5.68
			c-0.03,0.04-0.07,0.08-0.1,0.16c-0.14,0.26,0.25,0.84,0.5,1.23c0.09,0.14,0.18,0.27,0.25,0.39c0.4,0.68-0.53,2.5-0.54,2.52
			l-0.05,0.1c-0.17,0.32-0.34,0.65-0.47,1.1c-0.18,0.62-0.57,0.92-1.36,1.37c-0.72,0.41-0.97,1.29-0.98,1.29l-0.08,0.28l-0.25-0.15
			l-2.03-1.24l-0.11-0.07l0.01-0.13c0-0.02,0.01-0.21,0.12-0.91c0.11-0.7-0.12-2.49-0.36-2.9c-0.12-0.21-0.22-0.29-0.38-0.42
			c-0.18-0.14-0.42-0.34-0.78-0.78c-0.37-0.44-0.48-0.68-0.57-0.88c-0.08-0.17-0.14-0.3-0.38-0.54c-0.47-0.46-0.75-0.82-0.84-0.93
			c-0.14-0.08-0.77-0.42-1.49-0.4c-0.41,0.01-0.78,0.15-1.1,0.4c-0.1,0.07-0.17,0.14-0.24,0.22c-0.17,0.17-0.37,0.35-0.86,0.66
			c-0.34,0.22-0.47,0.26-0.57,0.27l-0.06,0L38,120.16c0,0-0.01,0-0.01,0.01c-0.13,0.09-0.19,0.19-0.29,0.36
			c-0.08,0.13-0.18,0.3-0.35,0.5c-0.33,0.41-1.35,0.9-2.46,1.41l-0.27,0.12c-0.64,0.29-1.66,1.92-2.11,2.96
			c-0.07,0.17-0.14,0.32-0.19,0.45c0,0,0,0,0.01-0.01c0.34-0.4,1.65-1.33,1.8-1.44c0.09-0.04,1.2-0.46,1.66-0.54
			c0.06-0.01,0.12-0.01,0.19-0.01c0.35-0.01,0.79,0.06,1.1,0.12c0.09,0.02,0.17,0.03,0.24,0.04c0.52,0.07,0.54,0.37,0.54,0.43
			l0,0.13l-0.11,0.06c-0.01,0.01-1.2,0.68-1.71,1.19c-0.08,0.08-0.15,0.15-0.19,0.21c0.31-0.04,0.75-0.09,1.08-0.1
			c0.12,0,0.22,0,0.3,0.01c0.5,0.05,1.24,0.63,1.33,0.69c0.4,0.43,0.38,0.58,0.37,0.64c-0.01,0.06,0,0.32,0,0.57
			c0,0.41,0.01,0.58,0,0.64c-0.01,0.06-0.04,0.15-0.08,0.25c-0.05,0.14-0.13,0.33-0.14,0.46c-0.04,0.26-0.06,0.39-0.17,0.62
			c-0.06,0.12-0.08,0.25-0.11,0.49l-0.04,0.26c-0.06,0.39,0.03,1.17,0.03,1.18l0.03,0.2l-0.2,0.04c-0.01,0-1.18,0.24-1.64,0.54
			c-0.4,0.26-0.48,0.56-0.56,1.15c-0.01,0.14-0.02,0.25-0.01,0.35c0.14-0.2,0.31-0.43,0.45-0.62c0.38-0.55,1.07-0.72,1.35-0.76
			c0.34-0.06,0.5-0.07,0.56-0.07l0.1,0l0.09,0.07l0.49,0.51l0.29,0.3l-0.41,0.07c-0.29,0.05-1.11,0.25-1.42,0.6
			c-0.36,0.39-0.44,0.75-0.31,1.36c0.01,0.04,0.01,0.07,0.02,0.1c0.01-0.01,0.02-0.02,0.03-0.03c0.15-0.15,0.21-0.15,0.54-0.19
			c0.14-0.02,0.35-0.04,0.66-0.08c0.66-0.09,0.79-0.2,0.98-0.35c0.08-0.07,0.17-0.14,0.3-0.21c0.07-0.04,0.12-0.06,0.18-0.06l0.12,0
			l0.1,0.11c0.1,0.15,0.03,0.32-0.13,0.71c-0.16,0.39-0.38,0.93-0.36,1.34c0.05,0.87,0.22,1.12,0.61,1.39
			c0.52,0.35,1.44,1.49,1.68,1.9c0.2,0.34,0.5,0.76,1.42,1.78c0.69,0.77,1.2,0.92,1.74,1.09c0.13,0.04,0.26,0.08,0.39,0.13
			c0.28,0.1,0.71,0.14,1.21,0.19c0.69,0.07,1.47,0.15,2.23,0.41c1.31,0.44,2.99,1.32,3.06,1.36c0.03,0.02,2.17,1.26,3.76,2.15
			l0.29,0.16c1.06,0.59,1.1,0.61,1.39,0.6l0.1-0.01l0.15-0.01c0.77-0.03,3.12,0.37,3.22,0.38c0.07,0.02,1.43,0.36,2.09,0.68
			c0.65,0.31,1.37,0.52,1.88,0.53c0.04,0,0.09,0,0.13,0c0.28-0.01,0.58-0.06,0.86-0.1c0.22-0.03,0.41-0.07,0.54-0.07h0.01l0.06,0
			c0.32-0.01,2.61-0.57,3.57-0.88c0.71-0.23,1.51-0.88,1.85-1.16c0.11-0.09,0.19-0.15,0.22-0.17c0.09-0.07,0.42-0.56,0.71-1.15
			c0.29-0.59,1.17-2.4,1.17-2.4c0.01-0.01,0.37-0.73,0.61-1.71c0.14-0.56,0.17-1.2,0.19-1.71c0.02-0.51,0.04-0.78,0.12-0.94
			c0.16-0.34,0.34-0.64,1.12-1.17c0.48-0.32,0.53-0.63,0.6-1.07c0.03-0.18,0.06-0.37,0.13-0.58c0.12-0.37,0.03-0.56-0.07-0.75
			c-0.06-0.11-0.11-0.21-0.13-0.34c0-0.03-0.01-0.07-0.01-0.1c-0.04,0.02-0.09,0.03-0.12,0.03l-0.1,0l-0.05-0.04
			c-0.05,0.11-0.09,0.17-0.13,0.22l-0.06,0.09l-0.06,0.01c-0.03,0.11-0.07,0.22-0.12,0.35c-0.03,0.08-0.07,0.18-0.11,0.28
			c-0.13,0.36-0.23,0.51-0.5,0.88l-0.12,0.17c-0.34,0.48-0.45,0.86-0.57,1.46c-0.1,0.54-0.08,0.98-0.05,1.71l0.01,0.2
			c0.04,0.91-0.74,2.21-0.77,2.27l-0.12-0.07l-0.16-0.09l0-0.01l-0.09-0.05c0,0,0,0,0,0c-0.01,0,0.04-0.25-0.23-1.02
			c-0.34-0.96-0.92-3.17-0.94-3.27l-0.01-0.04l0-0.04c0-0.02,0.05-0.47,0.31-0.97c0.21-0.41,0.71-0.56,1.23-0.73
			c0.19-0.06,0.39-0.12,0.58-0.2c0.47-0.19,0.47-0.19,0.44-0.9l-0.01-0.32c-0.02-1.11,0.14-1.8,0.53-2.31
			c0.22-0.28,0.59-0.46,0.96-0.64c0.29-0.14,0.62-0.31,0.7-0.46c0.04-0.07,0.03-0.11,0.02-0.14c-0.01-0.02-0.05-0.05-0.07-0.08
			c4.01,0.47,8.07,0.46,12.04-0.08c-0.21-0.12-0.32-0.25,0.41-0.38c0.68-0.11,1.42-0.23,2.21-0.37c0.26,0.84,0.43,1.48,0.52,1.87
			c0.19,0.71,0.33,1.26,0.43,1.67c0.06,0.31,0.11,0.62,0.15,0.92l0.01,0.1l-0.3,0.06c-0.14,0.03-0.3,0.08-0.56,0.16
			c-0.21,0.06-0.34,0.1-0.39,0.12c-0.51,0.1-0.74,0.56-0.69,1.41l0.02,0.36l-0.22-0.29c-0.22-0.29-0.43-0.44-0.71-0.44
			c-0.01,0-0.01,0-0.02,0c-0.14,0.03-0.22,0.1-0.26,0.22c-0.04,0.13-0.16,0.55-0.16,0.55l-0.1-0.02c-0.1-0.02-0.17-0.03-0.26-0.03
			c-0.02,0-0.03,0-0.05,0c-0.03,0.01-0.23,0.12-0.68,0.38l-0.1-0.13l0-0.26l-0.47,0.09c-0.14,0.03-0.26,0.11-0.36,0.26l-0.14,0.19
			l-0.13-0.53l0.14-0.04l0.01-0.03l-0.81,0.22c-0.18,0.05-0.29,0.08-0.45,0.1l-0.23-0.02l0.06-0.15c0.15-0.38,0.15-0.57,0.16-0.59
			c-0.67,0.21-1.03,0.33-1.08,0.36l-0.06-0.2l0.03,0.22l-0.28,0.01c-0.15-0.14-0.22-0.18-0.22-0.18l-0.58,0.12
			c-0.63,0.14-0.76,0.4-0.78,0.71l0.53-0.11l0.09,0.41c0.02,0.12-0.04,0.28-0.19,0.52l-0.09,0.13l-0.09-0.13
			c-0.09-0.12-0.19-0.31-0.32-0.57c-0.1,0.05-0.17,0.08-0.2,0.08c-0.01,0-0.02,0-0.02-0.01c-0.16,0.19-0.33,0.48-0.56,0.94
			l-0.05,0.11l-0.1-0.06l-0.05-0.09c-0.63,0.34-0.88,0.76-0.76,1.31c0.09,0.47,0.2,0.57,0.18,0.59l0.61-0.13l-0.09,0.2
			c-0.1,0.22-0.13,0.45-0.09,0.65c0.1,0.48,0.41,0.75,0.98,0.85l0.15,0.03l-0.07,0.13c-0.32,0.64-0.33,0.8-0.32,0.84
			c0.04,0.19,0.13,0.23,0.26,0.23c0.02,0,0.03,0,0.05,0l0.14-0.05l0.26-0.06l0.17,0.05l0.01,0.1c0,0.03,0.01,0.09,0,0.22l-0.01,0.22
			c0.01,0.03,0.02,0.12,0.18,0.12l0.24-0.06l0.19-0.17v0.24l0.03,0.11l-0.02,0.07c-0.02,0.09-0.01,0.19,0.01,0.27
			c0.01,0.05,0.08,0.18,0.36,0.56c0.03,0.01,0.06,0.02,0.09,0.03c0.04-0.14,0.1-0.27,0.2-0.27c0.02,0,0.03,0,0.05,0.01l0-0.16
			l0.11-0.16l0.04-0.01l0.08-0.2l0.32,0.56c0.24-0.16,0.42-0.25,0.62-0.28l0.11,0.01l0.03,0.07c0.14,0.35,0.35,0.55,0.64,0.6
			l0.28,0.16l0.11-0.15l0.1-0.02c0.09,0,0.21,0.05,0.4,0.17c0.16,0.11,0.27,0.16,0.32,0.17l0.28,0.03l-0.23,0.17
			c-0.36,0.27-0.51,0.58-0.44,0.96c0.03,0.14,0.1,0.23,0.2,0.26l0.53,0.16l-0.04,0.11c-0.12,0.31-0.13,0.42-0.13,0.44
			c0.01,0.02,0.04,0.1,0.19,0.23c0.08,0.07,0.16,0.1,0.28,0.1c0,0,0.01,0,0.01,0c0.31-0.07,0.54-0.24,0.72-0.54
			c0.23-0.08,0.3-0.15,0.32-0.2c0.06-0.1,0.13-0.29,0.2-0.51l0.03-0.09l0.1,0.02c0.2,0.04,0.38,0.06,0.53,0.06
			c0.08,0,0.15-0.01,0.22-0.02c0.16-0.03,0.33-0.11,0.49-0.23l0.02-0.2l0.03-0.1l0.1,0.02c0.11,0.03,0.22,0.12,0.4,0.28
			c0.15,0.13,0.24,0.17,0.22,0.18c0.01,0,0.08-0.03,0.17-0.11c0.16-0.1,0.23-0.12,0.33-0.12c0.13,0,0.3,0.07,0.5,0.2l0.04,0.13
			l-0.06,0.09l0.02,0.1l-0.1,0.03c-0.26,0.08-0.52,0.15-0.62,0.22c-0.09,0.07-0.18,0.12-0.28,0.14c-0.06,0-0.15-0.02-0.31-0.06
			c-0.12-0.03-0.2-0.05-0.28-0.05c0,0-0.01,0-0.01,0c-0.1,0.02-0.17,0.06-0.24,0.14c0.15,0.02,0.27,0.05,0.35,0.09l0.21,0.09
			l-0.2,0.1c-0.59,0.3-0.84,0.62-0.77,0.98c0.01,0.04,0.03,0.09-0.02,0.09c0.18,0.01,0.32,0.08,0.47,0.33
			c-0.46,0.8-0.48,1.1-0.49,1.17c0.24,0.12,0.4,0.2,0.49,0.25c0.08,0.05,0.2,0.12,0.23,0.26c0.01,0.1-0.01,0.2-0.05,0.34
			c-0.04,0.12-0.05,0.22-0.04,0.3c0.05,0.25,0.28,0.45,0.65,0.57c0.21,0.02,0.36,0.04,0.45,0.04l0.16,0.01l-0.06,0.14
			c-0.03,0.07-0.03,0.15-0.02,0.25l0.12-0.02c0.33-0.07,0.48-0.12,0.54-0.12c0.02,0,0.03,0,0.03,0.01l0-0.13l0.12-0.09l0.06-0.01
			c0.11,0,0.18,0.09,0.26,0.19l0.11,0.14l0.12,0.04l-0.05,0.11c-0.05,0.12-0.15,0.21-0.28,0.27c0.08,0.16,0.17,0.26,0.28,0.32
			l0.12,0.07l-0.1,0.1c-0.74,0.75-1.13,1.25-1.16,1.6c0.03,0.33,0.06,0.59,0.1,0.8c-0.07,0.61-0.13,1.04-0.2,1.36
			c0.46,0.07,0.82,0.11,1.09,0.11h0.41l-0.36,0.21c-0.2,0.12-0.28,0.31-0.22,0.6c0.03,0.15,0.1,0.2,0.22,0.2c0.02,0,0.04,0,0.06,0
			c0.03-0.04,0.09-0.07,0.17-0.08l0.23,0.02l0.01,0.1l0.28-0.02l0.19-0.06l-0.05,0.19c-0.07,0.29-0.07,0.59,0,0.9
			c0,0.03,0.03,0.14,0.21,0.37c0.15,0.19,0.21,0.22,0.21,0.22c0.04-0.01,0.19-0.07,0.45-0.2l0.25-0.11c0.1-0.05,0.17-0.07,0.25-0.07
			c0.04,0,0.08,0.01,0.12,0.02c0.42,0.63,0.83,0.97,1.2,0.97l0.12-0.01c0.13-0.03,0.17-0.07,0.18-0.11c0.12-0.21,0.2-0.33,0.26-0.39
			l0.08-0.09c0,0,0.34,0.36,0.46,0.48c0.08,0.07,0.15,0.11,0.27,0.11c0.05-0.05,0.14-0.12,0.3-0.24l0.08-0.06l0.07,0.07
			c0.07,0.07,0.14,0.12,0.2,0.12c0.07-0.03,0.29-0.36,0.64-0.71c0.16,0.07,0.3,0.11,0.49,0.11c0.01,0,0.01,0,0.02,0
			c0.07-0.08,0.22-0.2,0.52-0.44c0.49,0.12,0.57,0.15,0.53,0.15c-0.01,0-0.02,0-0.03,0l0.12,0.07c0.18-0.06,0.42-0.33,0.56-1.22
			c-0.27,0-0.46-0.03-0.6-0.08l-0.09-0.04l0.03-0.1c0.11-0.38,0.1-0.63,0.07-0.76c-0.02-0.09-0.06-0.14-0.2-0.14
			c-0.05,0-0.11,0.01-0.17,0.02c-0.03,0-0.12,0.03-0.24,0.07c-0.12,0.05-0.19,0.08-0.36,0.1c-0.13,0-0.27-0.05-0.43-0.16
			c-0.19-0.15-0.3-0.3-0.33-0.45c-0.03-0.17,0.09-0.45,0.37-0.86l0.07-0.1l0.09,0.08c0.06,0.05,0.1,0.08,0.14,0.1
			c-0.01-0.09,0-0.17,0.13-0.26c0.23,0.04,0.33,0.07,0.34,0.15l0.01-0.07c0.15,0,0.27,0.08,0.38,0.24c0.07,0.1,0.13,0.14,0.23,0.14
			l0.15-0.1l0.16-0.25l0.09,0.05l0.05,0.11c0.02-0.02,0.08-0.1,0.29-0.29c0.17,0.04,0.39,0.09,0.59,0.16
			c0.08-0.12,0.13-0.23,0.15-0.34l0.02-0.11l0.11,0.02c0.07,0.01,0.12,0.02,0.18,0.02l0.15-0.03l0.13-0.09
			c0.16-0.09,0.28-0.15,0.36-0.18c0.67-0.31,1.17-0.49,1.49-0.49c0.01,0,0.01,0,0.02,0c0.04-0.09,0.11-0.15,0.16-0.15
			c0,0,0.05,0,0.05,0c0.01-0.05,0.03-0.12,0.08-0.21c-0.23-0.04-0.41-0.06-0.61-0.08l-0.26-0.03l0.2-0.16l0.85-0.61l-0.07-0.09
			l-0.21-0.02c0,0,0.13-0.48,0.16-0.59l-0.04,0.01c-0.64,0.13-1.14,0.2-1.61,0.2c-0.01,0-0.01,0-0.02,0l-0.19-0.07
			c0,0,0.34-0.33,0.4-0.4c-0.3,0.06-0.55,0.11-0.72,0.13l-0.15,0.02c0,0,0.08-0.37,0.11-0.5c-0.22,0.06-0.38,0.1-0.49,0.12
			c-0.08,0.02-0.18,0.04-0.31,0.04c-0.01,0-0.02,0-0.03,0l-0.27-0.23l0.08-0.15c-0.21-0.25-0.42-0.51-0.67-0.75
			c-0.3-0.31-0.63-0.49-1.05-0.58c-0.14-0.27-0.3-0.5-0.45-0.69l0.09-0.24l0.1-0.08l0.05,0.01c0.1,0.02,0.21,0.07,0.38,0.14
			c0.08,0.04,0.16,0.07,0.23,0.07c0.03,0,0.06-0.01,0.08-0.02l0.06-0.08l0.09,0.05l0.12,0.12c0.19-0.04,0.45-0.15,0.79-0.29
			l0.13-0.14l1.06-0.65c0.57-0.36,0.66-0.61,0.66-0.72l0.1-0.11l0.08-0.02c0.28-0.06,0.53-0.16,0.69-0.18l0-0.28
			c0-0.11-0.01-0.19,0-0.3c0.03-0.09,0.09-0.23,0.14-0.34c-0.04-0.04-0.08-0.08-0.13-0.14l-0.07-0.08l0.08-0.07
			c0.7-0.58,0.73-0.74,0.73-0.75c0,0-0.04-0.06-0.33-0.16l-0.19-0.06l0.16-0.13c0.33-0.27,0.44-0.41,0.47-0.41c0,0,0,0,0,0
			c-0.01-0.03-0.04-0.09-0.2-0.09c-0.06,0-0.13,0.01-0.34,0.05l-0.16,0.02c-0.18,0-0.42-0.05-0.72-0.16
			c-0.26-0.09-0.5-0.13-0.69-0.13c-0.07,0-0.14,0.01-0.2,0.02c-0.04,0.01-0.09,0.03-0.16,0.06h-0.15l-0.02-0.15
			c0-0.01-0.03-0.09,0.02-0.2l-0.68,0.16l0.01,0.05l-0.16,0.03c-0.09,0-0.23-0.03-0.52-0.17l0.02,0.1l-0.82,0.17l-0.02-0.11
			c-0.02-0.07-0.06-0.21-0.2-0.35l-0.02-0.17l0.2-0.04c0.3-0.06,0.54-0.1,0.74-0.12c-0.09-0.01-0.19-0.01-0.29-0.01
			c-0.22,0-0.47,0.02-0.85,0.03l-0.25-0.29c-0.15-0.17-0.26-0.31-0.36-0.56l0.17-0.2l0.08,0.07c0.19,0.15,0.34,0.27,0.47,0.36
			c0.04-0.17,0.08-0.32,0.09-0.45l0.05-0.31l0.18,0.28l0.05,0.05c0.11-0.3,0.19-0.55,0.23-0.73l0.05-0.21l0.14,0.17
			c0.07,0.09,0.16,0.21,0.13,0.22l1.24,0.83c0.1,0.34,0.23,0.52,0.41,0.52c0,0,0,0,0,0c0.12-0.02,0.29-0.17,0.5-0.42
			c0.23-0.29,0.47-0.46,0.74-0.52c0.04-0.01,0.08-0.01,0.12-0.02l-0.14-0.66l0.12-0.01l0.49,0.06c0.01-0.24,0.06-0.47,0.24-0.8
			l0.18-0.01c0.44-0.1,0.84-0.43,1.19-0.99c-0.18-0.01-0.34-0.02-0.47-0.02c-0.09,0-0.17,0-0.24,0.01l-0.35,0.02l0.27-0.22
			c0.33-0.26,0.49-0.43,0.58-0.53c-0.07,0.02-0.13,0.02-0.22,0.02c-0.01,0-0.19,0-0.19,0l0.15-0.32l0.04-0.02
			c0.34-0.15,0.55-0.33,0.67-0.59l0.38-0.1l0.21-0.04c0.13-0.12,0.24-0.25,0.32-0.35c-0.23-0.06-0.5-0.14-0.86-0.25l-0.14-0.04
			l0.07-0.12c0.1-0.17,0.14-0.32,0.11-0.44c-0.01-0.07-0.17-0.09-0.22-0.09l-0.84,0.07c0,0,0.79-0.59,0.9-0.68
			c-0.14-0.01-0.26-0.04-0.36-0.09l-0.12-0.06l0.08-0.11l0.25-0.29c0.17-0.13,0.39-0.29,0.63-0.48c-0.03,0-0.2,0-0.26,0l-0.11-0.03
			l0.03-0.11c0.09-0.3,0.15-0.53,0.16-0.71l-0.14,0.03c-0.22,0.05-0.4,0.07-0.63,0.07c-0.02,0-0.16-0.01-0.16-0.01
			c-0.28,0.2-0.54,0.32-0.79,0.37l-0.13-0.05h-0.02l-0.04-0.13h-0.01l-0.02-0.17c-0.22,0.01-0.51,0.05-0.86,0.13l-0.18,0.04
			l0.05-0.18c0.05-0.17,0.06-0.34,0.02-0.51l-0.01-0.03c-0.2,0.09-0.42,0.22-0.75,0.39c-0.06-0.03-0.11-0.08-0.15-0.13l-1.37,0.71
			l-0.21-0.03l-0.03-0.16v-0.04c-0.01-0.08-0.06-0.17-0.04-0.22l-0.51,0.1l-0.73,0.49c-0.2-0.11-0.32-0.17-0.38-0.17c0,0,0,0,0,0
			c-0.54,0.11-0.93,0.65-1.2,1.66l-0.03,0.1l-0.1-0.02c-0.45-0.1-1.05-0.24-1.72-0.45c-0.17-0.01-0.35-0.02-0.55-0.04
			c-0.27-0.03-0.43-0.14-0.48-0.46c0.16-0.21,0.27-0.4,0.34-0.58c-0.63-0.06-1.12-0.08-1.44-0.08h-0.16l0.06-0.15
			c0.02-0.04,0.02-0.08,0.02-0.15c-0.03,0-0.06,0-0.09,0c-0.1,0-0.19-0.02-0.35-0.13l-0.89-5.02c2.23-0.47,4.69-1.1,7.13-2.03
			l1.79-0.81c0.43-0.28,0.49-0.47,0.53-0.58c1.79-0.79,3.34-1.58,4.76-2.37c-0.09,0.14-0.15,0.27-0.15,0.38
			c0,0.29,0.33,0.55,0.7,0.84c0.36,0.28,0.76,0.6,0.97,1.05l0.33,0.68l-0.39-0.25c-0.01,0.02-0.02,0.03-0.04,0.05
			c0.11,0.07,0.23,0.13,0.35,0.19c0.28,0.14,0.57,0.28,0.86,0.6l0.16,0.18l-0.15,0.12c0.02,0.01,0.04,0.02,0.05,0.04
			c0.28,0.19,0.48,0.33,0.43,0.53c0.03,0.02,0.06,0.04,0.09,0.05c0.17,0.1,0.33,0.2,0.35,0.34c0.06,0.01,0.12,0.03,0.19,0.06
			l0.3,0.13l-0.15,0.15c0.1,0.04,0.21,0.07,0.32,0.1c0.28,0.08,0.58,0.17,0.88,0.36l0.18,0.11l-0.11,0.19
			c-0.01,0.02-0.02,0.03-0.03,0.05c0.28,0.11,0.56,0.23,0.84,0.39l0.25,0.15l-0.15,0.14c0.2,0.1,0.35,0.16,0.63,0.16h0.4l-0.08,0.12
			c0.06,0,0.13,0.01,0.19,0.02l0.28,0.05l-0.08,0.16c0.03,0.02,0.06,0.04,0.08,0.07c0.01,0.01,0.01,0.02,0.02,0.03
			c0.1,0,0.19,0.03,0.27,0.09l0.21-0.21l0.02,0.32c0,0,0.01,0,0.01,0h0.05l0.09,0.04l0.05,0.02l0.03,0.04
			c0.03-0.01,0.06-0.02,0.09-0.02h0.09l0.07,0.05c0.02,0.01,0.04,0.02,0.06,0.04c0.01-0.01,0.02-0.03,0.02-0.04l0.08-0.14l0.16,0.04
			c0.97,0.23,2.36,0.78,3.05,1.61l-0.1,0.09c0,0.06,0,0.09,0,0.12l-0.01,0.12l-0.11,0.06c-0.19,0.1-0.53,0.46-0.65,0.9
			c-0.08,0.29-0.05,0.55,0.09,0.77l0.08,0.13l-0.1,0.12c-0.01,0.01-0.02,0.04-0.02,0.06c0.47,0.26,0.66,0.54,0.78,0.88l0.06,0.16
			l-0.13,0.1c-0.22,0.16-0.12,0.45,0.13,0.89l0.07,0.12c0.32,0.66,0.8,0.83,1.36,1.03c0.29,0.1,0.58,0.21,0.86,0.39
			c0.31,0.2,0.59,0.41,0.83,0.6c0.4,0.31,0.74,0.57,0.98,0.57c0.03,0,0.07,0,0.12-0.02l-0.15-0.15h0.5c0.11-0.05,0.22-0.1,0.34-0.14
			c0.24-0.1,0.47-0.19,0.67-0.33c0.37-0.27,0.81-0.74,1.23-1.32l0.01-0.02c0-0.01,0.32-0.61,0.58-0.86c0.12-0.22,0.23-0.47,0.33-0.7
			c0.1-0.21,0.19-0.42,0.28-0.59l-0.81-0.33l0.92-0.08c0.02-0.04,0.04-0.09,0.08-0.14c0.07-1.23,0.25-2.53,0.53-3.98
			c-0.41-0.92-0.37-2.41,0.12-3.64c0.1-0.24,0.25-0.47,0.41-0.71c0.14-0.2,0.28-0.41,0.38-0.63c0.16-0.34,0.27-0.67,0.39-0.99
			c0.19-0.55,0.38-1.07,0.72-1.52c0.28-0.36,0.62-0.62,0.94-0.86c0.3-0.23,0.62-0.47,0.89-0.8c-0.01-0.03-0.01-0.06-0.01-0.09
			c0.01-0.19,0.16-0.33,0.32-0.47h-0.45l0.54-0.4c0.35-0.25,0.42-0.47,0.5-0.72c0.04-0.12,0.08-0.25,0.15-0.38l-0.18-0.04l0.09-0.24
			c0.04-0.1,0.08-0.2,0.12-0.31c0.14-0.35,0.35-0.85,0.36-1.16l-0.09-0.05l-0.1-0.07l0.01-0.12c0.02-0.43-0.04-0.6-0.12-0.81
			c-0.02-0.06-0.04-0.11-0.07-0.18l-0.03-0.01l-0.07-0.04l-0.03-0.07c-0.01-0.02-0.01-0.03-0.02-0.05l-0.26,0.29l-0.05-0.49
			c-0.08-0.8-0.36-1.82-0.7-2.65l-0.01,0.01l-0.15,0.02c-0.05,0-0.09-0.01-0.13-0.03l-0.13-0.07l0.02-0.15
			c0.02-0.17-0.02-0.36-0.05-0.55c0-0.01,0-0.02,0-0.02c-0.02,0.01-0.05,0.01-0.08,0.01h-0.08l-0.11-0.08l-0.05-0.05l-0.01-0.07
			c-0.02-0.11-0.04-0.21-0.06-0.32c-0.04,0-0.08-0.02-0.13-0.04c-0.09-0.07-0.13-0.15-0.16-0.22c-0.03,0.01-0.05,0.01-0.08,0.01
			h-0.06l-0.09-0.05l-0.07-0.04l-0.02-0.08c-0.01-0.04-0.02-0.08-0.03-0.13c0,0-0.01,0.01-0.01,0.01l-0.24,0.32l-0.14-0.37
			c-0.04-0.1-0.05-0.21-0.07-0.34c-0.06,0.03-0.11,0.04-0.15,0.04h-0.07l-0.1-0.05l-0.06-0.04l-0.02-0.07
			c-0.02-0.07-0.03-0.14-0.03-0.22c0,0-0.01,0-0.01,0c-0.05,0-0.13-0.02-0.21-0.09l-0.01-0.01c-0.01,0.01-0.02,0.01-0.02,0.02
			l-0.3,0.27l-0.06-0.4c-0.01-0.06-0.02-0.11-0.02-0.17c-0.03,0.01-0.05,0.01-0.08,0.01h-0.05l-0.09-0.03l-0.05-0.02l-0.03-0.05
			c-0.22-0.3-0.26-0.7-0.28-1.03c0-0.02,0-0.04-0.01-0.06c-0.05-0.01-0.1-0.04-0.16-0.11l-0.03-0.03l-0.01-0.04
			c-0.03-0.11-0.03-0.24-0.03-0.38c0-0.04,0-0.08,0-0.13c-0.04,0-0.08-0.02-0.11-0.04l-0.06-0.03l-0.03-0.06
			c-0.05-0.1-0.06-0.22-0.07-0.34c-0.03-0.01-0.06-0.02-0.09-0.04l-0.05-0.03l-0.03-0.05c-0.07-0.12-0.11-0.3-0.15-0.48
			c-0.01-0.05-0.03-0.11-0.04-0.17l-0.06,0.06l-0.15-0.23c-0.06-0.11-0.1-0.25-0.15-0.4c-0.03-0.09-0.07-0.24-0.11-0.32l-0.21,0.18
			l-0.05-0.33l-0.07-0.21l-0.03-0.08c-0.01,0-0.02,0-0.03,0h-0.05l-0.08-0.03l-0.06-0.03l-0.04-0.06c-0.06-0.09-0.08-0.21-0.1-0.33
			c-0.01,0-0.02,0-0.03,0h-0.12l-0.11-0.12l-0.04-0.06l0-0.03c-0.01,0-0.03,0-0.05,0h-0.05l-0.09-0.04l-0.11-0.05l-0.01-0.06
			l-0.65,0.38l0.2-0.35c-0.04,0-0.08-0.02-0.13-0.04l-0.03-0.02l-0.03-0.03c-0.1-0.1-0.1-0.22-0.09-0.3
			c-0.08-0.03-0.17-0.04-0.25-0.04c-0.17,0-0.35,0.08-0.53,0.2c1.24-2.36,2.28-4.83,3.1-7.39c1.34-4.14,2.09-8.49,2.23-12.89
			c0.24-0.02,0.49-0.04,0.78-0.06c1.46-0.11,3.47-0.25,4.56-0.2l0.1,0.01l0,0.1c0.08,2.67,4.37,3.77,6.12,3.77c0.06,0,0.11,0,0.17,0
			c0.16,0,0.38,0.01,0.63,0.03c0.79,0.05,1.98,0.12,2.23-0.24c0.18-0.25,0.24-0.48,0.18-0.68c-0.14-0.43-0.84-0.68-1.3-0.84
			l-0.11-0.04c-0.15-0.05-0.47-0.09-0.84-0.13c-1.07-0.12-2.68-0.31-3.21-1.16c-0.21-0.33-0.23-0.72-0.08-1.18l0.03-0.08l0.08,0
			c0.05,0,5.05,0.11,5.66,0.1h0.07l0.03,0.06c0.02,0.03,1.83,3.26,4.2,3.26c0.1,0,0.21,0,0.33-0.01c0.8-0.01,2.46-0.04,2.94-0.61
			c0.11-0.13,0.15-0.29,0.12-0.48c-0.06-0.36-0.98-0.48-1.86-0.6c-1.12-0.15-2.38-0.32-2.86-0.99c-0.19-0.26-0.24-0.59-0.16-0.96
			l0.02-0.1l0.1,0.01c2.65,0.31,7.89,0.69,8.78-0.12c0.07-0.07,0.11-0.14,0.11-0.22C156.73,83.73,152.72,83.44,151.66,83.46z
			 M63.39,37.75l0,0.02l-0.11-0.01l0,0.01l0-0.01v0l-0.09-0.01l-0.13,0.02c-0.04-0.3-0.41-1.81-0.58-2.53l-0.03-0.13
			c-0.17-0.75-0.62-3.13-0.55-4.14c0.08-0.95,0.13-2.55,0.13-2.57l0.02-0.59l0.37,0.46c0.02,0.02,0.37,0.47,0.57,1.32
			c0.22,0.94,0.39,2.43,0.25,3.78c-0.14,1.36-0.13,2.13,0.17,3.77l0.02,0.14c0.02,0.14,0.05,0.29,0.06,0.44l-0.3,0.04L63.39,37.75z
			 M27.82,65.4c-0.49,0.57-0.98-0.55-1.35-0.86C27,64.26,27.19,65.26,27.82,65.4z M25.08,53.52c0.68,0.38,0.5,1.09,0.15,1.87
			C24.68,54.95,25.08,54.16,25.08,53.52z M24.79,58.31c0.28,0.55,0.45,1.46,0.14,1.86c0.03-0.04-0.31-0.27-0.31-0.3
			c-0.05,0.61,0.58,1.06,0.09,2.03c-0.5-0.73-1.1-1.41-0.53-2.55C24.74,59.99,24.04,58.7,24.79,58.31z M24.48,54.02
			c0.41,1.62,0.25,3.62-0.78,4.98c-0.01,0.28,0.53,0.35,0.13,0.78c-0.63-0.13-0.17-0.91-0.2-1.16c-0.05-0.47-0.35-0.5-0.32-0.84
			C23.42,56.59,24.17,55.26,24.48,54.02z M23.63,62.6c0.22,0.18,0.71,0.13,0.91,0.34c0.53,0.52,0.88,1.02,1.06,1.66
			c-1.85-0.31-3.82-1.75-3.34-3.4C23.05,61.09,23.11,62.18,23.63,62.6z M23,60.91c-0.31-0.11-0.61-0.22-0.92-0.34
			C22.21,60.01,23.39,60.29,23,60.91z M22.73,63.9c-0.77,0.36-1.61,0.64-2.8,0.25C20.57,63.28,22.06,62.41,22.73,63.9z M20.25,68.97
			c-0.24,0.6-0.87-0.19-0.66,0.67c-0.61-0.46-1.53-0.79-1.05-1.66c0.6,0.14,0.76,0.44,0.5,0.91C19.63,69.41,20.14,68.45,20.25,68.97
			z M16.71,72.93c-0.32-1.15,1.01-1.32,0.88-2.4c0.13,0.18,0.17,0.39,0.19,0.62c0.13-0.17,0.38-0.44,0.8,0.11
			C17.99,71.88,17.18,72.1,16.71,72.93z M17.21,73.84c0.29-0.56,0.32-2.47,2.04-2.15C18.64,72.52,18.06,73.43,17.21,73.84z
			 M18.32,70.26c0.76,0.34,0.42-0.63,0.54-0.89c0.63,0.49,0.8,1.16,0.76,1.91C19.02,71.44,17.98,70.88,18.32,70.26z M20.03,70.71
			c-0.22-0.14-0.18-0.39-0.43-0.52c0.54-0.52,0.93-1.33,1.87-1.13C21.05,69.73,20.55,70.24,20.03,70.71z M21.09,68.38
			c-0.2,0.06-0.59-0.15-0.79-0.11c-0.7,0.15-0.26,0.39-1.16-0.24c-0.3-0.21-0.53-0.18-0.68-0.43c0.68-0.8,1.48-1.39,2.35-1.86
			c1.2,0.12,1.18,0.73,2.27,1.19C22.68,67.27,21.93,68.11,21.09,68.38z M23.45,66.52c-0.99-0.17-0.92-0.75-1.72-1
			c-1.47-0.27-2.25,0.72-3.09,1.59c-0.29-0.91,0.82-1.68,0.69-2.47c0.61,0.14,0.33,0.61,0.74,0.82c0.44,0.04-0.15-0.66-0.31-0.84
			c0.96-0.45,1.86,0.58,2.56-0.15c0.24,0.17-0.07,0.13-0.12,0.32c0.32-0.03,0.67-0.02,0.79-0.44c1.57,0.74,2.43,1.17,3.61,1.51
			C25.73,66.4,24.09,65.57,23.45,66.52z M24.8,67.38c0.13-0.85,1.95-0.89,3.41-0.2C27.25,67.57,25.97,67.38,24.8,67.38z
			 M99.15,153.06c-0.09,0.11-0.2,0.2-0.41,0.2c-0.02,0-0.04,0-0.06,0c-0.09-0.14-0.18-0.21-0.28-0.21l-0.06,0.01
			c-0.04,0.01-0.12,0.02-0.25,0.08l-0.37,0.07c-0.1,0-0.22-0.05-0.34-0.12c-0.17-0.1-0.26-0.18-0.27-0.25
			c-0.03-0.08-0.02-0.18,0.03-0.33c0.02-0.09,0.03-0.17,0.02-0.23l-0.03-0.19l2.09,0.87L99.15,153.06z M101.33,151.31
			c0.63,0.31,0.98,0.63,1.05,0.95l0.03,0.14l-0.15-0.01c-0.6-0.05-0.94-0.26-1.02-0.63l-0.11-0.55L101.33,151.31z M101.01,151.87
			l0.1,0.26l-0.21-0.11l-0.49,0.11c-0.11,0.02-0.18,0.06-0.21,0.11l0.05,0.19l0.2,0.15l-0.25,0.05l-0.82,0.11
			c-0.1-0.12-0.28-0.26-0.53-0.43l-0.09-0.13c-0.06,0.02-0.11,0.03-0.16,0.04c-0.19,0-0.42-0.11-0.7-0.34l-0.13-0.1l0.15-0.08
			c0,0,0.08-0.04,0.17-0.16c0.05-0.07,0.1-0.11,0.14-0.15l-0.19-0.09l0.29-0.08c0.24-0.07,0.44-0.15,0.52-0.22
			c0.13-0.21,0.22-0.41,0.27-0.62c0.18-0.21,0.37-0.34,0.64-0.41c0.08-0.02,0.13-0.05,0.17-0.09l0.11-0.11l0.07,0.14
			C100.59,150.91,100.92,151.61,101.01,151.87z M99.4,144l0.44-0.08l1.32,1.43l-1.11,0.22l-0.05-0.24
			c-0.28,0.02-0.51,0.04-0.78,0.04c-0.37-0.42-0.69-0.73-1-0.96l-0.26-0.1l0.24-0.05c0.02-0.03,0.16-0.45,0.16-0.45
			s0.3,0.16,0.37,0.2l0.13-0.99l0.1,1.18c0.03,0.14,0.1,0.24,0.09,0.3c0.06-0.04,0.17-0.12,0.3-0.24c0.1-0.1,0.18-0.16,0.24-0.17
			L99.4,144z M98.98,140.13c0,0.07-0.03,0.16-0.09,0.29c-0.02,0.05-0.05,0.12-0.09,0.12l0.47,0.18l0.09,0.47l-2.08-0.9l0.1-0.11
			c0.08-0.1,0.11-0.16,0.12-0.18l-0.04-0.15l0.44,0.06c0.13,0.02,0.25,0.03,0.42,0.14c0.03-0.04,0.08-0.07,0.12-0.08l0.12,0.1h0.01
			c0.02,0,0.1,0,0.29-0.04l0.13-0.03L98.98,140.13z M97.17,137.58c0.32,0.05,0.56,0.11,0.76,0.17l0.04,0.02
			c0.34,0.05,0.6,0.07,0.78,0.08l0.19,0.01l-0.78,1.2l-0.1-0.5c-0.05-0.23-0.11-0.42-0.19-0.58l-0.02,0
			c-0.29,0.06-0.48,0.19-0.57,0.39l-0.26,0.54l0.05-0.59c0.02-0.24,0.01-0.44-0.02-0.59l-0.03-0.16L97.17,137.58z M96.84,141.91
			c0.06-0.08,0.15-0.13,0.26-0.15l0.06-0.01c0.05,0,0.08,0.01,0.11,0.01c0.01,0,0.02,0,0.03-0.01l0.14-0.12
			c-0.04-0.17-0.2-0.34-0.47-0.49l-0.31-0.17l0.35-0.03c0.07-0.01,0.14-0.01,0.2-0.01c0.52,0,0.68,0.23,0.72,0.42
			c0.05,0.2,0.02,0.38-0.08,0.54h0c0.07,0,0.12,0.04,0.18,0.14c-0.02-0.13-0.03-0.25-0.05-0.35c-0.01-0.17-0.03-0.29-0.04-0.35
			l-0.01-0.05l0.01-0.16l0.14,0.05c0.27,0.1,0.49,0.17,0.64,0.2l0.09,0.12l0.01,0.07c0.06,0.32,0.11,0.57,0.1,0.77l-0.07,0.09
			l-0.08,0.02c-0.06,0-0.11-0.02-0.18-0.05c-0.01,0.05-0.03,0.11-0.05,0.18c-0.02,0.14-0.06,0.25-0.24,0.37l-0.1-0.04
			c0,0.2-0.05,0.37-0.17,0.54c-0.17,0.05-0.3,0.11-0.39,0.17l-0.14-0.28c-0.03-0.17-0.12-0.28-0.23-0.39l-0.09-0.41l-0.03,0.03
			l-0.08-0.09c-0.04-0.05-0.14-0.14-0.35-0.28l-0.28-0.26H96.84z M96.47,144.87c0.25-0.05,0.42-0.14,0.49-0.25
			c0.04-0.06,0.05-0.14,0.03-0.23l-0.05-0.16l-0.51-0.64l0.66,0.49c0.57,0.42,0.98,0.79,1.29,1.07l0.15,0.14l-0.2,0.05l-0.57,0.07
			c-0.05-0.06-0.12-0.09-0.28-0.09c-0.02,0-0.04,0-0.07,0c-0.09,0.02-0.2,0.06-0.31,0.12c-0.12,0.07-0.23,0.1-0.33,0.12
			c-0.06,0-0.14-0.01-0.22-0.03c-0.06-0.02-0.1-0.03-0.14-0.03l-0.15,0.03l-0.11-0.58L96.47,144.87z M91.23,144.24l-0.03,0.14
			l-0.16,0.03c-0.1,0-0.25-0.01-0.46-0.04l-0.17-0.02l0.1-0.15c0.13-0.2,0.26-0.37,0.3-0.49l-0.42-0.25h0.01
			c-0.09-0.03-0.58-0.22-0.58-0.22l0.03-0.02c-0.07-0.04-0.12-0.07-0.14-0.08l-0.16-0.06l0.12-0.12c0.15-0.16,0.24-0.34,0.26-0.55
			l0.01-0.1l0.85,0.01c-0.04-0.06-0.08-0.12-0.14-0.18l-0.12-0.13l0.17-0.05c0.89-0.29,0.94-0.58,0.85-0.85l-0.16-0.15l0.21-0.04
			c0.29-0.06,0.6-0.08,0.93-0.08l0.41,0.01L92.92,141c-0.1,0.49-0.42,1.19-0.99,2.1l-0.44,0.09c-0.11,0.02-0.22,0.04-0.31,0.04
			c-0.05,0-0.09,0-0.14-0.01l0.08,0.05c0,0-0.25,0.14-0.29,0.16l0.19-0.01c0.09,0,0.18,0,0.23-0.02c0.13-0.02,0.27-0.09,0.46-0.19
			l0.38-0.2l-0.24,0.36C91.72,143.59,91.28,144.24,91.23,144.24z M94.53,145.44c0.01,0.62,0.06,0.92,0.09,1.04l0.04,0.16l-0.17-0.03
			c-0.1-0.02-0.18-0.03-0.26-0.03l-0.19,0.01l-0.03-0.06c-0.1-0.18-0.18-0.35-0.23-0.57c0.21-0.42,0.31-0.67,0.32-0.67c0,0,0,0,0,0
			c-0.01-0.07-0.07-0.18-0.13-0.34c-0.3-0.15-0.57-0.23-0.77-0.24h0c-0.05,0-0.1,0-0.42-0.32c-0.22-0.21-0.32-0.25-0.38-0.25
			l-0.19,0.05l-0.15-0.01l-0.13-0.04l0.23-0.46c0.14-0.28,0.31-0.64,0.54-1.06c0.33-0.62,0.56-1.08,0.71-1.39l0.13-0.27l0.92,3.7
			C94.47,144.7,94.53,145.44,94.53,145.44z M122.06,56.63c0,0.01,0.01,0.02,0.01,0.02h0.01C122.07,56.65,122.07,56.64,122.06,56.63
			l0.09-0.04c0,0,0,0.01,0,0.01c0.13-0.12,0.16-0.24,0.16-0.25l0.08-0.37l0.28,0.26c0.06,0.06,1.53,1.43,1.64,2.47
			c0.09,0.9,0.11,0.93,0.98,2.13c0.9,1.23,1.75,2.46,1.75,2.48l0.09,0.13l-0.09,0.13c0,0.01-0.4,0.57-0.58,1.44
			c-0.11,0.53,0.07,1.03,0.19,1.36c0.1,0.27,0.17,0.47,0,0.61c-0.04,0.03-0.1,0.05-0.16,0.08c-0.07-0.17-0.13-0.34-0.21-0.51
			c-1.2-2.56-2.65-4.95-4.22-7.21c0.11-0.05,0.2-0.09,0.2-0.09l0.19-0.1l0.1,0.18c0,0.01,0.04,0.05,0.11,0.09
			c-0.08-0.41-0.44-1.44-0.93-2.64L122.06,56.63z M121.76,58.74l0,0.15c-0.02-0.03-0.04-0.06-0.06-0.09L121.76,58.74z M121.58,72.84
			c-2.09,4.31-4.83,8.26-7.9,11.86c-0.46-1.92-1.01-3.81-1.63-5.66c-2.21-6.38-5.33-12.41-9.3-17.77c2.1-2.56,4-5.27,5.66-8.12
			C114.61,58.04,119.21,64.91,121.58,72.84z M123.39,85.35c0,10.81-4.4,20.39-11.5,27.33c1.63-3.25,2.59-6.83,3.02-10.43
			c0.57-4.84,0.28-9.69-0.58-14.42c0.01-0.02,0.03-0.03,0.04-0.05c2.76-3.4,5.14-7.14,7-11.13c0.27-0.59,0.52-1.18,0.76-1.78
			C122.95,78.21,123.39,81.73,123.39,85.35z M91.7,122.51c-3.8-0.8-7.34-2.54-10.58-4.68c-2.64-1.8-5.12-3.86-7.4-6.14
			c6.81-1.17,13.43-3.56,19.59-6.79c2.36,4.21,5.62,10.04,8.52,14.93c-2.56,1.28-5.29,2.3-8.13,3.02
			C93.03,122.76,92.36,122.66,91.7,122.51z M85.96,84.44c-1.05-2.01-2.11-4-3.17-6c5.26-3.16,10.17-6.94,14.56-11.27
			c1.22-1.2,2.39-2.45,3.54-3.73c1.37,2.11,2.65,4.27,3.77,6.51c1.71,3.3,3.19,6.7,4.36,10.22c0.85,2.41,1.53,4.88,2.08,7.37
			c-5.04,5.22-10.83,9.66-17.06,13.2C91.43,95.27,88.72,89.84,85.96,84.44z M95.45,103.72c5.99-3.46,11.54-7.77,16.28-12.9
			c0.01,0.04,0.02,0.09,0.03,0.13c0.63,3.66,0.85,7.38,0.67,11.09c-0.22,3.69-0.88,7.39-2.34,10.8c-0.37,0.9-0.82,1.77-1.31,2.61
			c-1.89,1.49-3.93,2.81-6.08,3.95C100.38,114.17,97.52,108.1,95.45,103.72z M106.84,44.1L106.84,44.1
			c0.08-0.36,0.17-0.71,0.28-1.06C107.02,43.39,106.91,43.75,106.84,44.1z M107.8,52.69c-1.96,2.48-4.05,4.83-6.24,7.06
			c-0.23-0.29-0.45-0.59-0.69-0.88c-4.72-5.74-10.57-10.71-17.34-13.44c0.68-0.03,1.36-0.08,2.05-0.08
			C94.1,45.34,101.69,48.07,107.8,52.69z M93.37,33.43c0.11,0.08,1.04,0.84,1.2,1.49c0.11,0.45,0.06,0.61-0.03,0.83
			c-0.03,0.07-0.06,0.15-0.09,0.27c-0.07,0.28-0.24,0.53-0.37,0.71c-0.05,0.07-0.11,0.16-0.12,0.19l-0.43,0.02l-0.51-3.3l-0.09-0.55
			L93.37,33.43z M75.83,34.06c0.13-0.46,1.12-0.75,3.01-1.27c0.82-0.22,1.66-0.45,2.36-0.7c1.89-0.67,4.45-3.36,4.48-3.39l0.14-0.15
			l0.16,0.13c0.02,0.02,0.6,0.49,0.98,1.7c0.19,0.61,0.46,0.72,0.91,0.9c0.28,0.11,0.64,0.25,1.02,0.57
			c0.66,0.55,0.68,0.94,0.7,1.49c0.01,0.3,0.03,0.66,0.15,1.17c0.21,0.88,0.43,1.84,0.65,2.77l0.42,1.77
			c0.23,0.96,0.23,1.05,0.13,1.23c-0.02,0.03-0.04,0.08-0.06,0.25c-0.01,0.09-0.04,0.17-0.06,0.26c-1.31,0.09-1.95,0.38-1.17,0.88
			c-2-0.33-4.52-0.53-6.59-0.47c-2.07,0.05-3.64,0.31-3.78,0.52c-0.01,0.02-0.04,0.05-0.05,0.07c-0.42-0.32-0.85-0.67-1.24-1.08
			C76.12,38.73,75.65,34.71,75.83,34.06z M67.07,39.27c0.55-1.91,2.11-2.84,2.18-2.87l0.09-0.05l0.1,0.04
			c0.1,0.04,2.52,0.93,3.84,2.24c1.28,1.25,2.69,3.9,3.07,5.19c-0.13,0.06-0.25,0.13-0.39,0.19c-1.65,0.82-4.08,1.79-7.34,3.52
			c-0.03-0.09-0.07-0.17-0.09-0.26c-0.04-0.17-0.31-0.35-0.62-0.56c-0.3-0.2-0.68-0.46-1.04-0.82C66,44.94,66.62,40.82,67.07,39.27z
			 M64.85,49.58C64.85,49.58,64.85,49.58,64.85,49.58C64.85,49.58,64.84,49.58,64.85,49.58C64.84,49.58,64.84,49.58,64.85,49.58z
			 M76.5,66.9c-3.23-5.74-6.57-11.44-10.17-16.97c3.46-1.72,7.17-2.98,11.02-3.75c0.12-0.01,0.24-0.03,0.4-0.08
			c1.85-0.35,3.72-0.57,5.62-0.67c6.2,3.91,11.29,9.2,15.53,15.06c0.27,0.38,0.53,0.77,0.79,1.16c-1.29,1.25-2.62,2.46-3.97,3.63
			c-4.52,3.88-9.35,7.34-14.45,10.29C79.71,72.67,78.12,69.78,76.5,66.9z M68.62,85.05c3.56-1.25,7.04-2.7,10.41-4.48
			c0.35-0.18,0.69-0.38,1.04-0.57c1.01,2.01,2.02,4.03,3.04,6.04c2.8,5.37,5.65,10.71,8.6,15.99c-6.39,3.4-13.21,5.89-20.25,7.27
			c-2.38-2.64-4.56-5.49-6.48-8.53c-2.67-4.14-4.94-8.56-6.75-13.18C61.75,87.06,65.22,86.15,68.62,85.05z M29.28,95.37
			c0.07-0.04,0.36-0.41,0.55-0.65c0.26-0.33,0.42-0.53,0.5-0.59c0.07-0.06,0.35-0.42,0.6-0.74c0.27-0.35,0.55-0.71,0.7-0.87
			c0.32-0.34,1.31-1.11,1.51-1.24c0.07-0.05,0.33-0.19,0.62-0.36c0.29-0.16,0.67-0.38,0.91-0.52c0.28,1.94,0.7,3.86,1.21,5.76
			c-0.01,0-0.04,0.01-0.05,0.01c-0.09,0-2.37,0.21-2.42,0.21c-0.08,0-0.21-0.03-0.42-0.09c-0.1-0.03-0.19-0.05-0.26-0.07
			c-0.19-0.04-0.39-0.05-0.92-0.06l-0.32-0.01c-0.47,0-0.99,0.02-1.08,0.03c-0.08,0.01-0.46,0.04-0.79,0.04
			c-0.25,0-0.43-0.02-0.53-0.06c-0.14-0.05-0.17-0.16-0.18-0.22C28.88,95.72,29.13,95.45,29.28,95.37z M30.87,103.28
			c0,0-0.01,0-0.01,0c-0.12,0-0.29-0.05-0.3-0.05c-0.18-0.04-0.4-0.05-0.62-0.05c-0.4,0-0.78,0.04-0.93,0.08
			c-0.19,0.04-0.57,0.26-0.7,0.34l-0.13,0.08l-0.03-0.15c-0.15-0.77-0.1-0.81-0.05-0.85c0.02-0.02,0.05-0.09,0.11-0.2l-0.58,0.1
			l0.73-0.35l0.01-0.06c0.02-0.1,0.29-0.36,0.42-0.47c0.12-0.1,0.14-0.43,0.13-0.63l0.04-0.38c-0.03,0.01-0.07,0.01-0.11,0.01
			c-0.01,0-0.01,0-0.02,0c-0.03-0.03-0.07-0.09,0.04-0.51l-0.02,0.02l-0.09-0.1c-0.04-0.05-0.04-0.1,0.03-0.44
			c0-0.01,0-0.02,0.01-0.03c-0.01,0-0.21,0.05-0.21,0.05s0.13-0.4,0.15-0.49c-0.02,0-0.1,0-0.12,0l-0.15-0.02
			c0,0,0.15-0.28,0.18-0.35l-0.17,0.04l0.03-0.16c0.03-0.2,0.09-0.46,0.15-0.53c0.03-0.04,0.07-0.09,0.1-0.14
			c0.1-0.13,0.21-0.29,0.35-0.37c0.21-0.12,2.01-0.32,2.03-0.32l1.47-0.13c0.14-0.02,0.75-0.26,0.96-0.36
			c0.24-0.11,1.58-0.27,1.59-0.27l0.56-0.05c0.08-0.01,0.17-0.02,0.26-0.02c0.53,1.88,1.16,3.72,1.9,5.52
			c-0.72,0.63-1.61,1.29-1.86,1.48c-0.6,0.44-1.28,0.48-1.57,0.49c-0.34,0-0.85-0.11-1.33-0.21c-0.15-0.03-0.46-0.08-0.78-0.13
			c-0.9-0.14-1.08-0.18-1.14-0.23C31.11,103.36,30.98,103.28,30.87,103.28z M39.97,107.48c-0.48,0.16-1.72,0.22-2.27,0.25
			c-0.1,0.01-0.23,0.01-0.38,0.01c-0.56,0-1.39-0.04-1.76-0.1c-0.46-0.08-0.85-0.24-1.01-0.35c-0.17-0.12-1.37-0.85-1.5-0.91
			c-0.15-0.07-0.46-0.19-0.46-0.19l-0.06-0.07l-0.1-0.06l-0.16-0.07v-0.1c-0.34-0.18-0.34-0.29-0.33-0.3
			c-0.01-0.02-0.09-0.08-0.16-0.11l-0.26-0.12l0.27-0.09c0,0,0.55-0.18,0.78-0.23l0.15-0.01c0.26,0,0.75,0.08,1.16,0.15l0.35,0.06
			c0.09,0.01,0.18,0.02,0.27,0.02c0.27,0,0.5-0.06,0.69-0.11c0.09-0.03,0.46-0.37,0.65-0.55c0.2-0.18,0.3-0.27,0.34-0.3
			c0.13-0.08,1.33-1.36,1.47-1.51c0.04-0.04,0.21-0.19,0.39-0.35c0.69,1.63,1.45,3.21,2.31,4.75
			C40.31,107.29,40.21,107.39,39.97,107.48z M43.76,87.66c0.89,0.15,1.79,0.27,2.7,0.36c2.91,0.26,5.86,0.22,8.78-0.06
			c1.76,5.16,4.16,10.09,7.06,14.67c1.65,2.54,3.48,4.98,5.47,7.27c-4.99,0.65-10.09,0.71-15.06-0.19
			C47.66,103.62,44.42,96.01,43.76,87.66z M54.3,125.97c-0.16,0.08-0.25,0.12-0.3,0.15l-0.03,0.1l-0.19,0.02l-0.15-0.01l-0.05-0.15
			l-0.04-0.14l0.09-0.08c0.3-0.89,1.05-2.83,1.05-2.99c0-0.01,0-0.01,0-0.01c0.32,0.22,0.63,0.45,0.98,0.66l0.52-0.13
			c0.05,0.04,0.1,0.07,0.16,0.11c-0.02,0.04-0.04,0.07-0.07,0.11c-0.03,0.04-0.06,0.07-0.08,0.11c-0.14,0.25-0.23,0.44-0.28,0.54
			c-0.07,0.13-0.21,0.18-0.43,0.25C55.31,124.55,54.55,125.85,54.3,125.97z M67.57,131.7c-0.06,0.32-0.14,0.67-0.05,1.18
			c0.09,0.51,0.04,0.87-0.13,1.07c-0.09,0.12-0.23,0.18-0.37,0.19c-0.01,0-0.01,0-0.02,0c-0.19,0.11-0.81,0.46-1.32,0.77
			c-0.5,0.3-0.5,0.96-0.5,0.97v0.33l-0.31-0.13l-0.27-0.12c-0.21-0.09-0.56-0.53-1.31-1.53c-0.29-0.38-0.58-0.76-0.8-1.03
			c-0.53-0.63-1.67-1.19-2.49-1.6l-0.29-0.14c-0.14-0.07-0.27-0.14-0.39-0.2c-0.61-0.32-1.02-0.53-1.89-0.5
			c-1.15,0.04-1.53,0.07-1.53,0.07l-0.4,0.03l0.19-0.35c0.01-0.02,0.28-0.53,0.47-0.82c0.18-0.28,0.4-0.41,0.74-0.6l0.17-0.09
			c0.17-0.1,0.17-0.1,0.12-0.3c-0.02-0.1-0.05-0.2-0.06-0.34c-0.03-0.27-0.03-0.32,0.04-0.4l0.06-0.07l0.05,0
			c0.05-0.1,0.1-0.21,0.15-0.33c0.07-0.16,0.14-0.33,0.22-0.48c0.09-0.16,0.21-0.25,0.31-0.33c0.12-0.09,0.17-0.13,0.17-0.21
			c0.02-0.3,0.05-0.37,0.16-0.6l0.07-0.17c0.14-0.31,0.33-0.42,0.47-0.51c0.06-0.03,0.1-0.06,0.13-0.09
			c0.01-0.01,0.03-0.02,0.05-0.04c2.36,1.51,4.91,2.88,7.64,4c0.19,0.07,0.38,0.12,0.57,0.18c0.02,0.09,0.03,0.18,0.05,0.27
			c0.05,0.33,0.1,0.65,0.23,0.85C67.71,131,67.64,131.34,67.57,131.7z M72.06,131.22c0.42,0.25,0.64,0.54,0.64,0.88
			c0.01,0.57-0.96,1.93-1.02,1.98l-0.14,0.09l-0.13-0.12c-0.03-0.02-0.26-1.56-0.7-2.24c-0.28-0.43-0.24-0.92-0.17-1.33
			c0.34,0.09,0.68,0.18,1.03,0.26C71.66,130.91,71.8,131.07,72.06,131.22z M83.38,124.13c-11.61,0-22.05-4.96-29.32-12.87
			c1.03,0.26,2.08,0.48,3.13,0.66c4.19,0.68,8.47,0.74,12.71,0.29c2.96,3.03,6.25,5.7,9.9,7.84c2.89,1.68,6.03,2.99,9.3,3.68
			C87.24,124,85.33,124.13,83.38,124.13z M108.97,124.04c0.01-0.01,0.02-0.01,0.03-0.02l-0.01,0.02L108.97,124.04z M117.16,125.13
			l-0.32-0.32c-0.01-0.01-0.02-0.02-0.06-0.03c0.01,0.08,0.02,0.16,0.04,0.25c0.06,0.28,0.13,0.66-0.22,0.87l-0.23,0.14l-0.03-0.08
			l-0.1,0.1l-0.15-0.11c-0.04-0.03-0.07-0.06-0.09-0.08c-0.01,0.01-0.01,0.01-0.02,0.02c-0.07,0.09-0.16,0.2-0.36,0.25l-0.12,0.03
			l-0.09-0.08c-0.03-0.03-0.06-0.07-0.07-0.11h-0.05l-0.11-0.11l-0.04-0.05c-0.04,0.02-0.08,0.03-0.12,0.03h-0.16l-0.05-0.11
			c-0.05-0.05-0.09-0.1-0.11-0.15c-0.07,0.07-0.15,0.12-0.26,0.12h-0.08l-0.11-0.07l-0.08-0.06l0-0.1l0-0.09
			c0-0.05,0-0.09-0.01-0.13c-0.04,0.02-0.09,0.04-0.15,0.04h-0.06l-0.09-0.04l-0.12-0.07l-0.02,0.16l-0.32-0.3
			c-0.02-0.02-0.04-0.04-0.06-0.06c-0.01,0.01-0.01,0.02-0.02,0.03l-0.07,0.08l-0.12,0.01c-0.05,0-0.1-0.01-0.16-0.04
			c-0.05-0.03-0.09-0.06-0.12-0.08l-0.03,0.04l-0.12,0.01c-0.07,0-0.12-0.02-0.16-0.05l-0.02-0.01l-0.02-0.02
			c-0.04-0.03-0.08-0.07-0.11-0.1c-0.08,0.02-0.16,0.04-0.25,0.04c-0.39,0-0.74-0.25-1.07-0.49c-0.28-0.2-0.57-0.41-0.82-0.41
			c-0.07,0-0.13,0.01-0.2,0.05l-0.81,0.39l0.54-0.72c-0.01-0.05-0.02-0.11-0.01-0.17c0.12-0.08,0.23-0.17,0.35-0.26l0,0
			c0.01,0.01,0.04,0.01,0.06,0.01c0.04,0.01,0.1,0.01,0.17,0.04c0.09-0.09,0.13-0.18,0.13-0.24c0-0.02-0.02-0.04-0.03-0.06
			c1.25-0.92,2.46-1.89,3.61-2.92c-0.01,0.01-0.02,0.03-0.03,0.05c0.33,0.45,0.96,0.86,1.39,1.06c0.5,0.23,1.01,0.48,1.18,1.12
			l0.15,0.57l-0.48-0.33c-0.03-0.02-0.06-0.04-0.09-0.06c-0.02,0.02-0.04,0.05-0.06,0.07l-0.05,0.05c0.03,0.02,0.05,0.05,0.08,0.09
			l0.12,0.16l-0.12,0.11c0.11,0.07,0.22,0.16,0.34,0.27l0.14,0.13l-0.1,0.14c0.24,0.13,0.44,0.29,0.48,0.52l0.06,0.33
			c0.09,0.1,0.15,0.22,0.13,0.37L117.16,125.13z M123.58,108.73l0.26-0.12l0.05,0.28c0.01,0.08,0.05,0.17,0.09,0.26
			c0.05,0.12,0.1,0.24,0.12,0.38l0.02,0.16l-0.05,0.02c0.09,0.13,0.17,0.26,0.21,0.41l0.13,0.42c0.09,0.13,0.16,0.25,0.24,0.38
			c0.1,0.16,0.2,0.32,0.31,0.48l0.93,1.29l-0.43-0.34c-0.05,0.55,0.14,1.13,0.33,1.75c0.33,1.03,0.67,2.11-0.14,3.08l-0.17,0.2
			l-0.06-0.07c-0.05,0.18-0.13,0.28-0.24,0.33l-0.15,0.06l-0.03-0.03c-0.03,0.23-0.08,0.43-0.24,0.52l-0.21,0.12
			c-0.02,0.07-0.06,0.14-0.1,0.21l-0.14,0.21l-0.19-0.17c-0.15-0.13-0.24-0.32-0.33-0.48c-0.01-0.02-0.03-0.05-0.04-0.08l-0.02,0.02
			l-0.15,0.02c-0.06,0-0.12-0.02-0.18-0.06c-0.01-0.01-0.02-0.01-0.03-0.02c0,0.01,0,0.01,0,0.02v0.45l-0.35-0.28
			c-0.22-0.17-0.39-0.39-0.55-0.6c-0.09-0.11-0.18-0.22-0.27-0.32l-0.05,0.18l-0.24-0.13c-0.2-0.11-0.31-0.27-0.4-0.41
			c-0.02,0.03-0.05,0.07-0.08,0.1l-0.18,0.17l-0.15-0.19c-0.11-0.13-0.21-0.2-0.33-0.27c-0.02-0.01-0.04-0.03-0.06-0.04
			c-0.01,0.03-0.03,0.06-0.05,0.09l-0.1,0.14l-0.16-0.07c-0.17-0.07-0.33-0.15-0.48-0.23c-0.01,0.12-0.09,0.21-0.17,0.26l-0.11,0.08
			l-0.12-0.07c-0.38-0.21-0.86-0.72-1.13-1.05c-0.03,0.01-0.06,0.01-0.09,0.01c1.88-2.15,3.57-4.47,5.04-6.93
			C123.42,108.83,123.5,108.77,123.58,108.73z"/>
		<path class="st1" d="M100.41,151.91l0.44,0.09c-0.23-0.11-0.41-0.18-0.64-0.18c-0.02,0-0.25,0.02-0.25,0.02
			C100.09,151.86,100.24,151.88,100.41,151.91z"/>
		<path class="st1" d="M116.11,125.62C116.11,125.61,116.11,125.61,116.11,125.62C116.11,125.61,116.11,125.61,116.11,125.62
			C116.11,125.61,116.11,125.61,116.11,125.62z"/>
		<path class="st1" d="M119.57,133.77c0.01,0.01,0.02,0.02,0.02,0.03c0.02,0.01,0.05,0.03,0.11,0.1
			C119.67,133.85,119.62,133.81,119.57,133.77z"/>
		<polygon class="st1" points="119.62,116.26 119.61,116.26 119.62,116.26 		"/>
		<path class="st1" d="M34.51,46.71c0.02,0.34,0.07,0.39,0.1,0.4c0,0,0.07,0,0.17-0.27l0.14-0.13l0.11,0.21l0.21,0.48
			c0.02,0.06,0.04,0.11,0.07,0.16c0.07,0.12,0.07,0.17,0.1,0.31c0.01,0.06-0.02,0.13-0.06,0.27c-0.17,0.53-0.57,1.74,0.44,2.95
			c0.01-0.04,0.02-0.08,0.03-0.11c0.04-0.17,0.09-0.34,0.18-0.51l0.24-0.44c0.05-0.08,0.12-0.19,0.14-0.26l0.03-0.16l0.14,0.09
			c0.4,0.26,2.16,1.03,2.71,1.16c0.39,0.09,0.71,0.24,0.99,0.46c0.07,0.05,0.13,0.11,0.19,0.16c0.06,0.05,0.12,0.11,0.18,0.15
			c0,0,0.21,0.17,0.26,0.2c0.01-0.06,0.02-0.11,0.01-0.17c-0.02-0.1-0.39-0.98-0.64-1.2c-1.7-1.52-2.59-2.1-3.16-2.46
			c-0.21-0.14-0.36-0.29-0.58-0.51c-0.19-0.2-0.27-0.37-0.37-0.62c-0.11-0.26-0.14-0.48-0.09-0.71c0.01-0.06,0.06-0.25,0.22-0.25
			c0.07,0,0.13,0.04,0.2,0.08c0.03,0.02,0.06,0.04,0.07,0.07c0.07-0.23,0-0.42-0.08-0.65c-0.03-0.09-0.06-0.18-0.09-0.28
			c-0.09-0.38-0.22-0.9-0.12-1.38c0.07-0.38,0.23-0.74,0.38-1.09c0.06-0.15,0.13-0.29,0.18-0.44c0.13-0.34,0.37-0.62,0.63-0.91
			c0,0,0.33-0.35,0.55-0.35c0,0,0,0,0,0c0.09,0.02,0.17,0.12,0.22,0.22c0.19-0.19,0.29-0.39,0.38-0.69
			c0.04-0.11,0.05-0.22,0.06-0.34L38.65,40c0.03-0.24,0.17-0.42,0.3-0.58l0.13-0.16c0.19-0.25,0.38-0.49,0.71-0.64
			c0.25-0.11,0.51-0.2,0.77-0.28c0.28-0.09,0.56-0.17,0.82-0.3l0.47-0.22c0.5-0.23,0.97-0.45,1.4-0.81
			c0.17-0.14,0.35-0.27,0.53-0.27c0.17,0,0.3,0.11,0.41,0.31c0.19,0.36,0.27,0.79,0.24,1.31c-0.01,0.31-0.04,0.63-0.07,0.94
			l-0.01,0.17c-0.01,0.17-0.05,0.35-0.09,0.52c-0.01,0.05-0.02,0.1-0.03,0.15c0.59-0.45,1.2-1.02,1.54-1.86
			c0.28-0.69,0.71-1.75,0.88-2.6c0.07-0.37,0.75-0.55,1.3-0.69c0.14-0.04,0.27-0.07,0.35-0.1l0.48-0.18
			c0.48-0.18,0.85-0.32,1.11-0.32c0.14,0,0.24,0.04,0.31,0.12c0.6,0.72,0.57,1.42,0.43,2.11c0.15,0.03,0.32,0.05,0.48,0.05
			c0.47,0,0.93-0.13,1.47-0.32c0.37-0.13,1.05-0.36,1.02-0.82c-0.01-0.14-0.08-0.28-0.15-0.42c-0.05-0.11-0.11-0.22-0.14-0.33
			c-0.05-0.16-0.06-0.32-0.07-0.47c-0.01-0.15-0.02-0.29-0.06-0.43c-0.03-0.11-0.1-0.2-0.16-0.31c-0.06-0.1-0.13-0.2-0.17-0.33
			c-0.08-0.24-0.05-0.5,0-0.85c0.08-0.61-0.05-0.94-0.51-1.33c0.01-0.41-0.22-0.58-0.53-0.81l-0.21-0.16
			c-0.2-0.17-0.26-0.37-0.31-0.55c-0.03-0.12-0.07-0.24-0.14-0.35c-0.07-0.1-0.16-0.19-0.24-0.27c-0.13-0.14-0.27-0.28-0.36-0.48
			c-0.18-0.39-0.36-0.63-0.71-0.65c-0.17,0-0.33,0.07-0.5,0.15c-0.11,0.05-0.21,0.1-0.32,0.13l-0.19,0.06
			c-0.24,0.07-0.48,0.14-0.71,0.26c-0.05,0.03-0.12,0.06-0.19,0.09c-0.19,0.08-0.47,0.2-0.52,0.34c-0.06,0.13,0.13,0.28,0.33,0.43
			l0.13,0.1c0.46,0.38,0.82,0.91,0.95,1.43c0,0.02,0.03,0.45-0.65,0.63c-0.21,0.06-0.57,0.12-0.97,0.19
			c-0.75,0.13-1.68,0.29-2.26,0.48c-0.11-0.09-0.23-0.17-0.35-0.25c-0.15-0.09-0.34-0.17-0.53-0.23c-0.18-0.05-0.35-0.11-0.52-0.18
			c-0.22-0.08-0.44-0.16-0.67-0.21c-0.37-0.08-0.7-0.11-1.06-0.15l-0.16-0.01c-0.1,0-0.2,0.03-0.3,0.06
			c-0.08,0.02-0.15,0.05-0.23,0.06c-0.28,0.05-0.44,0.13-0.54,0.14c0.12,0.02,0.22,0.05,0.33,0.09c0.11,0.04,0.22,0.07,0.34,0.09
			c0.38,0.05,0.54,0.14,0.79,0.45l0.11,0.14c0.18,0.21,0.42,0.49,0.37,0.76c-0.05,0.26-0.35,0.4-0.69,0.56
			c-3.27,1.74-5.57,3.57-6.91,7.37c-0.47,1.34-0.41,2.82-0.38,3.71c0.01,0.36,0.02,0.59,0,0.72C34.45,45.6,34.44,46.1,34.51,46.71z"
			/>
		<polygon class="st1" points="136.97,69.59 136.97,69.59 136.97,69.59 		"/>
		<polygon class="st1" points="109.15,31.31 109.15,31.31 109.15,31.31 		"/>
		<path class="st1" d="M30.34,114.93c-0.58,0.12-1.24,0.26-1.98,0.26c-0.12,0-0.25,0-0.38-0.01c-0.76-0.05-1.64-0.4-2.42-0.71
			l-0.27-0.11c-0.62-0.24-1.07-0.32-1.6-0.4l-0.47-0.08c-1.33-0.24-2.66-1.38-3.7-2.58c0.04,0.07,0.08,0.15,0.12,0.23
			c-0.42,1.15,0.35,2.68,1.77,3.52c-0.22,1.04-0.63,2.07-1.03,3.06c-0.71,1.76-1.45,3.59-1.08,5.49c0.15-0.16,0.19-0.34,0.23-0.53
			c0.04-0.21,0.09-0.43,0.28-0.64l0.11-0.12l0.07,0.14c0.05,0.11,0.06,0.2,0.07,0.29c0,0.06,0.01,0.12,0.03,0.17
			c0.15-0.28,0.23-0.57,0.31-0.87l0.12-0.45l0.13,0.13c0.11,0.11,0.13,0.21,0.15,0.29c0.01,0.05,0.02,0.09-0.02,0.12
			c0.16-0.09,0.16-0.17,0.16-0.31c0-0.14,0-0.33,0.22-0.47l0.1,0.04l0.03,0.16c0.03-0.03,0.1-0.17,0.14-0.25
			c0.06-0.12,0.12-0.24,0.18-0.31l0.18-0.05l0.07,0.14c0.11,0,0.33-0.21,0.46-0.49l0.12-0.25l0.09,0.26
			c0.29,0.87,0.45,1.75,0.61,2.59c0.29,1.57,0.6,3.2,1.71,4.88c0.13-0.29,0.03-0.62-0.08-0.97c-0.09-0.3-0.19-0.61-0.14-0.91
			l0.04-0.24l0.42,0.51c0.1-0.3-0.01-0.62-0.12-0.97c-0.09-0.27-0.18-0.54-0.17-0.82l0.01-0.31l0.41,0.53
			c0.11-0.13,0.06-0.28-0.03-0.5c-0.09-0.21-0.18-0.46-0.02-0.68l0.06-0.09l0.09,0.06l0.07,0.19c0.02-0.15-0.02-0.31-0.07-0.49
			c-0.04-0.15-0.08-0.31-0.04-0.55c0.04-0.03,0.09-0.05,0.14-0.05l0.13,0.17l0.03,0.01c0-0.08-0.03-0.18-0.06-0.27
			c-0.05-0.17-0.09-0.31-0.02-0.41l0.1-0.07h0.05c-0.09-0.23-0.12-0.44-0.08-0.64l0.03-0.17l0.14,0.1l0.07,0.19
			c0.01-0.09-0.05-0.24-0.1-0.36c-0.07-0.17-0.12-0.3-0.06-0.39l0.09-0.07c0,0,0.09,0,0.11,0c-0.06-0.14-0.18-0.31-0.3-0.55
			c0.37-0.46,0.29-1.21,0.2-1.99c-0.07-0.65-0.15-1.32,0.12-1.97c0.48-0.09,0.96-0.16,1.45-0.23c1.65-0.24,3.35-0.49,4.74-1.39
			c-0.1-0.01-0.2-0.02-0.31-0.02C31.3,114.73,30.83,114.83,30.34,114.93z"/>
	</g>
</g>
</svg>
