<?xml version="1.0" encoding="utf-8"?>
<!-- Generator: Adobe Illustrator 25.0.1, SVG Export Plug-In . SVG Version: 6.00 Build 0)  -->
<svg version="1.1" id="Layer_1" xmlns="http://www.w3.org/2000/svg" xmlns:xlink="http://www.w3.org/1999/xlink" x="0px" y="0px"
	 viewBox="0 0 155.91 170.08" style="enable-background:new 0 0 155.91 170.08;" xml:space="preserve">
<style type="text/css">
	.st0{fill:#FFFFFF;}
	.st1{fill-rule:evenodd;clip-rule:evenodd;fill:#FFFFFF;}
	.st2{fill-rule:evenodd;clip-rule:evenodd;fill:#222223;}
</style>
<path class="st0" d="M130.71,168.59H17.33c-6.85,0-12.4-5.55-12.4-12.4V15.48c0-6.85,5.55-12.4,12.4-12.4h113.38
	c6.85,0,12.4,5.55,12.4,12.4V156.2C143.1,163.04,137.55,168.59,130.71,168.59z"/>
<g>
	<polygon class="st1" points="12.59,24.36 136.68,24.36 136.68,148.45 12.59,148.45 12.59,24.36 	"/>
	<path class="st2" d="M62.46,124.66c-0.77,0-1.41,0.38-1.66,1.02l-3.19,8.3l-0.26,0.89l-0.26-0.89l-2.55-8.05c0,0,0,0,0-0.13l0,0
		l0,0c-0.26-0.64-0.89-1.15-1.66-1.15l0,0H48.8l0,0c-0.89,0.13-1.53,0.77-1.53,1.79c0,0.26,0.13,0.51,0.13,0.77L47.9,129l-1.92,4.98
		l-0.38,0.89l-0.26-0.89l-2.43-8.05c0,0,0,0,0-0.13h-0.13c-0.13-0.64-0.77-1.15-1.53-1.15l0,0h-4.09l0,0
		c-0.89,0.13-1.66,0.77-1.66,1.79c0,0.26,0.13,0.51,0.26,0.77l6,18.14c0.26,0.77,0.89,1.28,1.66,1.28s1.4-0.51,1.66-1.15l4.21-10.73
		l0.38-1.02l0.26,1.02l3.58,10.6c0.13,0.77,0.89,1.28,1.66,1.28c0.77,0,1.4-0.51,1.66-1.15L64,127.08c0.13-0.26,0.13-0.51,0.13-0.77
		C64.12,125.42,63.36,124.66,62.46,124.66L62.46,124.66z"/>
	<path class="st2" d="M92.73,124.66c-0.77,0-1.4,0.38-1.66,1.02l-3.19,8.3l-0.26,0.89l-0.26-0.89l-2.55-8.05c0,0,0,0,0-0.13l0,0
		c-0.26-0.64-0.89-1.15-1.66-1.15l0,0h-4.09l0,0c-0.89,0.13-1.53,0.77-1.53,1.79c0,0.26,0,0.51,0.13,0.77l0.51,1.79l-1.92,4.98
		l-0.38,0.89l-0.26-0.89l-2.43-8.05c0,0,0,0-0.13-0.13l0,0c-0.13-0.64-0.77-1.15-1.53-1.15l0,0h-4.09l0,0
		c-0.89,0.13-1.66,0.77-1.66,1.79c0,0.26,0.13,0.51,0.26,0.77l6,18.14c0.26,0.77,0.89,1.28,1.66,1.28c0.77,0,1.4-0.51,1.66-1.15
		l4.21-10.73l0.38-1.02l0.26,1.02l3.58,10.6c0.13,0.77,0.89,1.28,1.66,1.28c0.77,0,1.4-0.51,1.66-1.15l7.15-18.39
		c0.13-0.26,0.13-0.51,0.13-0.77C94.39,125.42,93.63,124.66,92.73,124.66L92.73,124.66z"/>
	<path class="st2" d="M112.4,124.66H98.23c-0.89,0-1.53,0.64-1.53,1.53l0,0l0,0c0,0,0,1.4,0,3.58c0,5.11,0,15.2,0,15.2l0,0l0,0
		c0.13,0.89,0.77,1.53,1.66,1.53l0,0c2.55,0,3.96,0,3.96,0l0,0c0.89,0,1.53-0.64,1.53-1.53c0,0.13,0-8.81,0-8.81h5.88
		c0.77,0,1.53-0.77,1.53-1.53c0-0.89-0.77-1.66-1.53-1.66c-0.13,0-5.88,0-5.88,0v-4.98h8.56c0.89,0,1.66-0.77,1.66-1.66
		C114.06,125.42,113.3,124.66,112.4,124.66L112.4,124.66z"/>
	<path class="st2" d="M90.44,64.63c2.55,2.81,2.81,11.5,9.32,8.05c3.83-2.04,3.83-10.73-1.4-13.92c-4.21-2.43-6.51,0.89-8.05,4.98
		C90.18,64.12,90.18,64.37,90.44,64.63L90.44,64.63z"/>
	<path class="st2" d="M80.35,63.22c-2.81,2.17-4.6,8.43-9.58,6.26c-4.09-2.04-4.47-9.96,2.55-13.67c4.85-2.3,7.28,2.17,7.28,6.9
		C80.6,62.84,80.47,63.09,80.35,63.22L80.35,63.22z"/>
	<path class="st2" d="M86.99,78.93c2.68-0.26,2.04-2.81,0-3.32c-1.79-0.64-4.47-1.02-6.51-0.89c-3.45,0-3.32,2.68-1.53,3.19
		c1.4,0.38,2.3,0.51,3.45,2.04C83.41,82,82.9,79.32,86.99,78.93L86.99,78.93z"/>
	<path class="st2" d="M99.63,34.48c3.32-5.62,9.2-4.6,12.13-1.79c3.19,3.07,3.83,6.64,2.55,9.07c-1.66,3.32-6,7.28-8.81,3.45
		c-1.28-1.79-3.83-3.83-5.36-4.34C97.97,39.85,97.59,37.93,99.63,34.48L99.63,34.48z"/>
	<path class="st2" d="M113.04,59.14c-0.26-1.02-0.77-0.89-0.77-0.13c0.26,10.22-5.88,21.2-18.9,21.33c-3.32,0-2.3,5.24-8.43,2.55
		c-4.34-2.94-6.9,2.94-9.96-3.32c-0.77-1.79-1.79-2.55-3.07-2.94c-12.9-3.19-16.99-20.95-5.62-35.25c2.17,1.4,3.07,1.66,5.49-0.64
		c1.15-1.15,3.32-2.43,4.47-2.81c2.68-1.02,4.21-2.17,1.79-7.41c-1.12-2.47-2.64-3.78-4.26-4.34h-4.34
		c-1.33,0.39-2.53,1.07-3.4,1.79c-3.32,2.68-5.49,6.9-1.4,11.88c-11.49,7.79-13.54,17.37-13.28,25.8c0.26,8.81-1.92,8.05,0.89,16.99
		c0.26,0.77-0.38,0.77-0.77,0.51c-12.01-7.66-18.52-31.16,0.26-44.06c0.38-0.38,0.26-0.89-1.28,0
		c-16.22,8.56-17.75,25.16-15.07,36.4c1.28,5.36-0.64,6.39,1.4,13.54c4.85,14.82,8.94,16.09,14.82,16.48
		c10.6,0,3.32-5.88,3.83-13.16c0-0.51,0.51-0.64,0.77,0.26c5.88,13.03,9.96,24.91,25.29,23.76c8.81-1.15,3.96-5.49,3.32-8.05
		c-6.51-21.59,9.32-26.69,4.85-5.62c-2.94,12.13,6.39,10.86,13.03,6.51C109.47,104.86,117.9,75.36,113.04,59.14L113.04,59.14z
		 M87.24,84.81c-1.53,3.83-9.07,2.55-9.32-1.28c0-0.13,0.26-0.13,0.26,0c3.45,0.77,6.64,1.15,8.81,1.15
		C87.11,84.68,87.24,84.55,87.24,84.81L87.24,84.81z"/>
	<path class="st2" d="M54.16,112.14c0,2.04-1.66,3.7-3.7,3.7c-2.17,0-3.83-1.66-3.83-3.7c0-2.04,1.66-3.83,3.83-3.83
		C52.5,108.31,54.16,110.1,54.16,112.14L54.16,112.14z M50.46,107.67c-2.55,0-4.6,1.92-4.6,4.47c0,2.43,2.04,4.47,4.6,4.47
		c2.43,0,4.47-2.04,4.47-4.47C54.93,109.59,52.88,107.67,50.46,107.67L50.46,107.67z"/>
	<path class="st2" d="M51.74,112.78c-0.13,0.64-0.64,1.02-1.15,1.02c-0.89,0-1.53-0.77-1.53-1.66c0-0.89,0.51-1.66,1.4-1.66
		c0.64,0,1.15,0.38,1.28,0.89h0.64c-0.13-1.02-0.89-1.53-1.92-1.53c-1.28,0-2.17,1.02-2.17,2.3s0.89,2.3,2.3,2.3
		c0.89,0,1.53-0.64,1.79-1.66H51.74L51.74,112.78z"/>
	<path class="st2" d="M113.3,118.02c0,2.04-1.66,3.7-3.7,3.7c-2.17,0-3.83-1.66-3.83-3.7c0-2.04,1.66-3.83,3.83-3.83
		C111.64,114.18,113.3,115.97,113.3,118.02L113.3,118.02z M109.59,113.54c-2.55,0-4.6,1.92-4.6,4.47c0,2.43,2.04,4.47,4.6,4.47
		c2.43,0,4.47-2.04,4.47-4.47C114.06,115.46,112.02,113.54,109.59,113.54L109.59,113.54z"/>
	<path class="st2" d="M108.83,118.27h0.64l1.15,1.92h0.77l-1.28-1.92c0.64-0.13,1.15-0.38,1.15-1.15c0-0.89-0.51-1.28-1.53-1.28
		h-1.53v4.34h0.64V118.27L108.83,118.27z M108.83,117.76v-1.28h0.77c0.51,0,1.02,0,1.02,0.51c0,0.77-0.51,0.77-1.02,0.77H108.83
		L108.83,117.76z"/>
</g>
</svg>
