<?xml version="1.0" encoding="utf-8"?>
<!-- Generator: Adobe Illustrator 25.0.1, SVG Export Plug-In . SVG Version: 6.00 Build 0)  -->
<svg version="1.1" id="Layer_1" xmlns="http://www.w3.org/2000/svg" xmlns:xlink="http://www.w3.org/1999/xlink" x="0px" y="0px"
	 viewBox="0 0 141.73 141.73" style="enable-background:new 0 0 141.73 141.73;" xml:space="preserve">
<style type="text/css">
	.st0{fill:url(#SVGID_1_);}
	.st1{fill:url(#SVGID_2_);}
	.st2{fill:#FFFFFF;}
</style>
<g>
	<g>
		<linearGradient id="SVGID_1_" gradientUnits="userSpaceOnUse" x1="70.8661" y1="78.8516" x2="70.8661" y2="10.9122">
			<stop  offset="0" style="stop-color:#B11F24"/>
			<stop  offset="0.4081" style="stop-color:#B42025"/>
			<stop  offset="0.7724" style="stop-color:#C12026"/>
			<stop  offset="1" style="stop-color:#CD2027"/>
		</linearGradient>
		<path class="st0" d="M130.27,78.85c0.35-2.61,0.55-5.28,0.55-7.99c0-33.11-26.84-59.95-59.95-59.95S10.91,37.75,10.91,70.87
			c0,2.5,0.17,4.97,0.47,7.39c15.97-8.65,36.5-13.85,58.91-13.85C93.2,64.41,114.15,69.85,130.27,78.85z"/>
		<linearGradient id="SVGID_2_" gradientUnits="userSpaceOnUse" x1="70.8283" y1="130.8201" x2="70.8283" y2="64.409">
			<stop  offset="0" style="stop-color:#B11F24"/>
			<stop  offset="0.3005" style="stop-color:#AD1F23"/>
			<stop  offset="0.5835" style="stop-color:#A41D21"/>
			<stop  offset="0.8586" style="stop-color:#951A1D"/>
			<stop  offset="1" style="stop-color:#8A181A"/>
		</linearGradient>
		<path class="st1" d="M70.87,130.82c30.4,0,55.5-22.63,59.41-51.97c-16.12-9-37.08-14.44-59.99-14.44
			c-22.4,0-42.93,5.2-58.91,13.85C15.03,107.88,40.26,130.82,70.87,130.82z"/>
	</g>
	<g id="Lozenge_2_">
		<g>
			<path class="st2" d="M105.33,56.2c0,0-0.69-5.06-2.79-7.28c-2.67-2.92-5.67-2.94-7.04-3.1c-9.85-0.74-24.61-0.74-24.61-0.74
				h-0.03c0,0-14.77,0-24.61,0.74c-1.37,0.17-4.37,0.19-7.05,3.1c-2.11,2.22-2.79,7.28-2.79,7.28s-0.71,5.93-0.71,11.87v5.56
				c0,5.94,0.71,11.87,0.71,11.87s0.69,5.05,2.79,7.28c2.68,2.92,6.2,2.83,7.76,3.13c5.63,0.56,23.91,0.74,23.91,0.74
				s14.78-0.03,24.63-0.76c1.37-0.17,4.37-0.19,7.04-3.11c2.11-2.22,2.79-7.28,2.79-7.28s0.71-5.93,0.71-11.87v-5.56
				C106.03,62.14,105.33,56.2,105.33,56.2z M63.61,80.38l0-20.6l19,10.34L63.61,80.38z"/>
		</g>
	</g>
</g>
</svg>
